M48
;Layer_Color=9474304
;FILE_FORMAT=4:3
METRIC,LZ
;TYPE=PLATED
T1F00S00C0.300
T2F00S00C0.500
T3F00S00C0.900
T4F00S00C3.000
%
T01
X0006Y0001
X0008
X001
X0012
X0014
Y0008
X0012Y00078
Y00062
X001Y0008
X0009
X0008
Y0012
X0007Y0011
X0009Y0013
X0001Y0011
Y0009
Y0006
X0015Y0008
X0016
X0018Y0009
X0019Y00078
X00206Y00108
X00214
X00208Y00132
X00272Y00118
Y0011
X0028Y0009
X003
X0031
Y001
X003
Y0007
X0031
Y0006
X003
X0032
Y0007
X00324Y00088
Y0011
X00332Y00118
X0034Y00102
X00356
Y0011
Y00118
Y00138
X00324
X00356Y00088
X0036Y00068
X0037
X0041
X0042
X00424Y0009
Y00098
Y00112
X00448Y00112
X0044Y0009
Y0014
X00424
X0049Y0014
Y0012
Y0006
X0044Y0001
X0042
X004
X0038
X0036
X0034
X0032
X003
X0028
X00238Y00072
X0016Y0001
X00386Y001
X00394
X0039Y00106
X00394Y0015
X00386
X0039Y00156
X00356Y00152
Y0016
Y00168
Y00188
Y00202
Y0021
Y00218
Y00238
Y00262
X00376Y00268
X0039Y00256
X00394Y0025
X00386
X00424Y00248
Y0024
X0044
X00452Y00248
X00444Y00266
X00452Y0029
X00474Y00292
X0049Y0029
X00464Y0032
X0043Y0032
X00446Y00344
X00422Y00368
X0049Y0037
Y0035
Y0039
X0043Y0044
X0041Y0044
X0039
X0037Y0044
X0035
X0033
X0031
X0029
X0027
X0025
X0023
X0021
X0019
X0017
X0015
X00148Y00384
X0017Y00378
Y00327
Y00318
Y00308
X0018Y00282
X00158Y00266
Y00258
Y0025
X00148Y00238
Y00262
X00214Y00252
X00222Y00252
X0023
X00238
X00246
X00254
X00262
Y00284
X00254
X00246
X00238
X0023
X00222Y00284
X00214Y00278
X0029Y00268
X00304Y00262
X00324
Y00238
Y0021
X00332Y00218
X0034Y00202
X00324Y00188
X00304Y0019
X00304Y00158
X00324Y0016
X00332Y00168
X0034Y00152
X0026Y0015
X00252Y00168
X00262Y00192
X0027
X0029Y00216
X0029Y00302
X00294Y00336
X00286
X00262
X00254
X00246
Y00344
Y00352
Y0036
X00254
X00262
X0028Y00376
X00302Y00384
X0033
X00316Y0037
X00344
X00376Y00336
X00412Y0029
Y00282
X00424Y00212
Y00198
Y0019
X0044
X0046Y00198
X00448Y00212
X0049Y0022
Y002
Y0018
Y0016
X0045
X00424Y00162
Y00148
X00394Y002
X00386
X0039Y00206
X00206Y00192
X00198
X0019Y00192
X00188Y00182
X00188Y00158
Y0015
X00208Y00168
X001Y00146
X00054Y00152
X00046
X00036Y00162
Y0017
X00064
Y00162
X0001Y0016
Y0018
Y002
Y0025
Y0027
Y0029
Y0031
Y0033
Y0035
Y0037
Y0039
X0007Y0044
X0009Y0044
X0011
X0013
X0012Y00384
X00106Y0037
X00134
X00132Y00262
X0014
Y00238
X00132
X0012Y00242
Y0025
Y00258
X00088Y00254
Y00246
Y00238
X00074
Y00246
Y00254
Y00262
X00088
X00058Y0027
X001Y00202
T02
X00264Y0038
X00065Y00196
T03
X001186Y00104
Y001294
X00144
Y00104
X003518Y0003
X003772
X004026
X00428
X0048Y000746
Y001
Y002112
Y002366
Y00262
X00144Y001548
X001186
T04
X0003Y0003
X0047
Y0042
X0003
M30
