M48
;Layer_Color=9474304
;FILE_FORMAT=2:4
INCH
;TYPE=PLATED
T1F00S00C0.0118
T2F00S00C0.0197
T3F00S00C0.0354
T4F00S00C0.1181
%
T01
X000394Y002362
Y003543
Y004331
X002756
X003150Y004724
X003543Y005118
Y003150
X003937
X003150
X004724Y003071
Y002441
X005512Y003150
Y000394
X004724
X003937
X003150
X002362
X006299
Y003150
X005906
X007087Y003543
X007480Y003071
X008110Y004252
X008425
X008189Y005197
X010709Y004646
Y004331
X011024Y003543
X011811
X012205
Y003937
X011811
Y002756
X012205
X012598
Y002362
X012205
X011811
Y000394
X012598
X013386
X014173
X014961
X015748
X016535
X017323
X016535Y002677
X016142
X016693Y003543
Y003858
Y004409
X017638Y004409
X017323Y003543
Y005512
X016693
X019291Y005512
Y004724
Y002362
X014567Y002677
X014173
X014016Y003465
Y004016
Y004331
Y004646
Y005433
X012756
Y004331
X013071Y004646
X013386Y004016
X012756Y003465
X015197Y003937
X015512
X015354Y004173
X009370Y002835
X011024Y000394
X010236Y005906
X009921Y006614
X010315Y007559
X010630
X011968Y007480
X012756Y007402
Y008268
X013071Y008583
X014016
Y008268
Y007953
Y007402
Y006614
Y006299
Y005984
X013386
X013071Y006614
X012756Y006299
X011968Y006220
X011417Y008504
Y010551
X011968Y010315
X012756
Y009370
X014016
Y010315
X014803Y010551
X015354Y010079
X015512Y009843
X015197
X016693Y009764
Y009449
X017323
X017795Y009764
X017480Y010472
X017795Y011417
X018661Y011496
X019291Y011417
X018268Y012598
X016929Y012598
X017559Y013543
X016614Y014488
X019291Y014567
Y013780
Y015354
X016929Y017323
X016142Y017323
X015354
X014567Y017323
X013780
X012992
X012205
X011417
X010630
X009843
X009055
X008268
X007480
X006693
X005906
X005827Y015118
X006693Y014882
Y012874
Y012520
Y012126
X007087Y011102
X008425Y010945
X008740Y011181
X009055Y011181
X009370
X009685
X010000
X010315
Y009921
X010000
X009685
X009370
X009055
X008740
X008425Y009921
X006220Y009843
Y010157
Y010472
X005827Y010315
Y009370
X007480Y007559
X007795Y007559
X008110
X008189Y006614
X007402Y006220
Y005906
X007402Y007165
X013386Y007953
X015197Y007874
X015512
X015354Y008110
X016693Y008346
Y007795
Y007480
X017323
X018110Y007795
X017638Y008346
X019291Y008661
Y007874
Y007087
Y006299
X017717
X016693Y006378
Y005827
X015512Y005906
X015197
X015354Y006142
X016220Y011102
Y011417
X014803Y013228
X013543Y014567
X012441
X011890Y015118
X012992
X011024Y014803
X010315Y014173
X010000
X009685
Y013858
Y013543
Y013228
X010000
X010315
X011260
X011575
X011417Y011890
X005512Y010315
X005197
X004724Y010157
Y009843
Y009528
X005197Y009370
X005512
X003465
Y009685
Y010000
Y010315
X002913
Y010000
Y009685
Y009370
X002283Y010630
X000394
Y009843
Y011417
Y012205
Y012992
Y013780
Y014567
Y015354
X002756Y017323
X003543Y017323
X004331
X005118
X004724Y015118
X004173Y014567
X005276
X003937Y007953
Y005748
X002520Y006378
Y006693
X002126Y005984
X001811
X001417Y006378
Y006693
X000394Y006299
Y007087
Y007874
T02
X010394Y014961
X002559Y007717
T03
X004669Y004094
Y005094
X005669
Y004094
X013850Y001181
X014850
X015850
X016850
X018898Y002937
Y003937
Y008315
Y009315
Y010315
X005669Y006094
X004669
T04
X001181Y001181
X018504
Y016535
X001181
M30
