%FSLAX43Y43*%
%MOMM*%
G71*
G01*
G75*
G04 Layer_Color=8388736*
%ADD10R,3.650X2.050*%
%ADD11R,1.400X0.400*%
%ADD12R,1.900X2.300*%
%ADD13R,1.900X2.400*%
%ADD14R,0.900X1.000*%
%ADD15R,0.900X0.800*%
%ADD16R,0.800X0.900*%
%ADD17R,0.700X0.900*%
%ADD18R,3.000X1.000*%
%ADD19O,1.550X0.250*%
%ADD20R,0.900X0.700*%
%ADD21R,3.300X1.100*%
%ADD22R,1.500X1.400*%
%ADD23R,1.050X0.600*%
%ADD24R,2.250X2.100*%
%ADD25R,1.250X1.950*%
%ADD26O,0.600X2.050*%
%ADD27O,2.050X0.600*%
%ADD28R,2.150X3.200*%
%ADD29R,2.150X0.900*%
%ADD30R,0.559X0.711*%
%ADD31C,0.200*%
%ADD32C,0.400*%
%ADD33C,5.000*%
%ADD34C,1.500*%
%ADD35R,1.500X1.500*%
%ADD36R,1.500X1.500*%
%ADD37C,0.600*%
%ADD38C,1.000*%
%ADD39R,0.450X0.900*%
%ADD40R,3.300X1.400*%
%ADD41R,0.600X1.000*%
%ADD42C,0.250*%
%ADD43C,0.100*%
%ADD44C,0.600*%
%ADD45C,0.254*%
%ADD46C,0.203*%
%ADD47R,3.853X2.253*%
%ADD48R,1.603X0.603*%
%ADD49R,2.103X2.503*%
%ADD50R,2.103X2.603*%
%ADD51R,1.103X1.203*%
%ADD52R,1.103X1.003*%
%ADD53R,1.003X1.103*%
%ADD54R,0.903X1.103*%
%ADD55R,3.203X1.203*%
%ADD56O,1.753X0.453*%
%ADD57R,1.103X0.903*%
%ADD58R,3.503X1.303*%
%ADD59R,1.703X1.603*%
%ADD60R,1.253X0.803*%
%ADD61R,2.453X2.303*%
%ADD62R,1.453X2.153*%
%ADD63O,0.803X2.253*%
%ADD64O,2.253X0.803*%
%ADD65R,2.353X3.403*%
%ADD66R,2.353X1.103*%
%ADD67R,0.762X0.914*%
%ADD68C,1.703*%
%ADD69R,1.703X1.703*%
%ADD70R,1.703X1.703*%
G54D33*
X3000Y3000D02*
D03*
X47000D02*
D03*
X3000Y42000D02*
D03*
X47000D02*
D03*
G54D47*
X25000Y41000D02*
D03*
X41000D02*
D03*
X9000D02*
D03*
X14000D02*
D03*
X19000D02*
D03*
X31000D02*
D03*
X36000D02*
D03*
G54D48*
X4850Y19300D02*
D03*
Y18000D02*
D03*
Y18650D02*
D03*
Y17350D02*
D03*
Y16700D02*
D03*
G54D49*
X2000Y21750D02*
D03*
Y14250D02*
D03*
G54D50*
X24450Y2600D02*
D03*
X20350D02*
D03*
G54D51*
X20600Y6800D02*
D03*
X22200D02*
D03*
X21400Y5000D02*
D03*
X23000D02*
D03*
X9200Y18400D02*
D03*
X7600D02*
D03*
X9200Y16800D02*
D03*
X7600D02*
D03*
G54D52*
X16000Y31300D02*
D03*
Y32700D02*
D03*
X29000Y32700D02*
D03*
Y31300D02*
D03*
X28000Y36700D02*
D03*
Y35300D02*
D03*
X17000Y36700D02*
D03*
Y35300D02*
D03*
X16400Y23900D02*
D03*
Y22500D02*
D03*
G54D53*
X1300Y26000D02*
D03*
X2700D02*
D03*
X1300Y28000D02*
D03*
X2700D02*
D03*
X1300Y8000D02*
D03*
X2700D02*
D03*
X1300Y10000D02*
D03*
X2700D02*
D03*
X43700Y34400D02*
D03*
X42300D02*
D03*
X38300Y22600D02*
D03*
X39700D02*
D03*
X38300Y17600D02*
D03*
X39700D02*
D03*
X38300Y12600D02*
D03*
X39700D02*
D03*
X38300Y7600D02*
D03*
X39700D02*
D03*
G54D54*
X5750Y26000D02*
D03*
X4250D02*
D03*
X5750Y28000D02*
D03*
X4250D02*
D03*
X42250Y29600D02*
D03*
X43750D02*
D03*
X5750Y8000D02*
D03*
X4250D02*
D03*
X5750Y10000D02*
D03*
X4250D02*
D03*
X43750Y36000D02*
D03*
X42250D02*
D03*
G54D55*
X14900Y2000D02*
D03*
X9100D02*
D03*
X14900Y6000D02*
D03*
X9100D02*
D03*
G54D56*
X36975Y26000D02*
D03*
Y25500D02*
D03*
Y25000D02*
D03*
Y24500D02*
D03*
Y24000D02*
D03*
X41025Y26000D02*
D03*
Y25500D02*
D03*
Y25000D02*
D03*
Y24500D02*
D03*
Y24000D02*
D03*
X36975Y21000D02*
D03*
Y20500D02*
D03*
Y20000D02*
D03*
Y19500D02*
D03*
Y19000D02*
D03*
X41025Y21000D02*
D03*
Y20500D02*
D03*
Y20000D02*
D03*
Y19500D02*
D03*
Y19000D02*
D03*
X36975Y16000D02*
D03*
Y15500D02*
D03*
Y15000D02*
D03*
Y14500D02*
D03*
Y14000D02*
D03*
X41025Y16000D02*
D03*
Y15500D02*
D03*
Y15000D02*
D03*
Y14500D02*
D03*
Y14000D02*
D03*
X36975Y11000D02*
D03*
Y10500D02*
D03*
Y10000D02*
D03*
Y9500D02*
D03*
Y9000D02*
D03*
X41025Y11000D02*
D03*
Y10500D02*
D03*
Y10000D02*
D03*
Y9500D02*
D03*
Y9000D02*
D03*
X45025Y31000D02*
D03*
Y31500D02*
D03*
Y32000D02*
D03*
Y32500D02*
D03*
Y33000D02*
D03*
X40975Y31000D02*
D03*
Y31500D02*
D03*
Y32000D02*
D03*
Y32500D02*
D03*
Y33000D02*
D03*
G54D57*
X47800Y31250D02*
D03*
Y32750D02*
D03*
G54D58*
X37000Y31150D02*
D03*
Y36850D02*
D03*
X8000D02*
D03*
Y31150D02*
D03*
G54D59*
X33000Y37000D02*
D03*
Y35000D02*
D03*
X12000Y37000D02*
D03*
Y35000D02*
D03*
X14800D02*
D03*
Y37000D02*
D03*
X30200Y35000D02*
D03*
Y37000D02*
D03*
G54D60*
X33325Y32950D02*
D03*
Y32000D02*
D03*
Y31050D02*
D03*
X30675D02*
D03*
Y32000D02*
D03*
Y32950D02*
D03*
X11675Y31050D02*
D03*
Y32000D02*
D03*
Y32950D02*
D03*
X14325D02*
D03*
Y32000D02*
D03*
Y31050D02*
D03*
G54D61*
X22725Y36000D02*
D03*
X19275D02*
D03*
G54D62*
X17000Y28225D02*
D03*
Y25775D02*
D03*
G54D63*
X19000Y20700D02*
D03*
X19800D02*
D03*
X20600D02*
D03*
X21400D02*
D03*
X22200D02*
D03*
X23000D02*
D03*
X23800D02*
D03*
X24600D02*
D03*
X25400D02*
D03*
X26200D02*
D03*
X27000D02*
D03*
Y9300D02*
D03*
X26200D02*
D03*
X25400D02*
D03*
X24600D02*
D03*
X23800D02*
D03*
X23000D02*
D03*
X22200D02*
D03*
X21400D02*
D03*
X20600D02*
D03*
X19800D02*
D03*
X19000D02*
D03*
G54D64*
X28700Y19000D02*
D03*
Y18200D02*
D03*
Y17400D02*
D03*
Y16600D02*
D03*
Y15800D02*
D03*
Y15000D02*
D03*
Y14200D02*
D03*
Y13400D02*
D03*
Y12600D02*
D03*
Y11800D02*
D03*
Y11000D02*
D03*
X17300D02*
D03*
Y11800D02*
D03*
Y12600D02*
D03*
Y13400D02*
D03*
Y14200D02*
D03*
Y15000D02*
D03*
Y15800D02*
D03*
Y16600D02*
D03*
Y17400D02*
D03*
Y18200D02*
D03*
Y19000D02*
D03*
G54D65*
X8075Y25000D02*
D03*
G54D66*
X13925Y27300D02*
D03*
Y25000D02*
D03*
Y22700D02*
D03*
G54D67*
X26483Y35086D02*
D03*
Y36914D02*
D03*
X25517D02*
D03*
Y35086D02*
D03*
G54D68*
X35180Y3000D02*
D03*
X37720D02*
D03*
X40260D02*
D03*
X11860Y10400D02*
D03*
X14400Y12940D02*
D03*
X11860D02*
D03*
X14400Y15480D02*
D03*
X11860D02*
D03*
X48000Y7460D02*
D03*
Y23660D02*
D03*
Y21120D02*
D03*
G54D69*
X42800Y3000D02*
D03*
G54D70*
X14400Y10400D02*
D03*
X48000Y10000D02*
D03*
Y26200D02*
D03*
M02*
