%FSLAX43Y43*%
%MOMM*%
G71*
G01*
G75*
G04 Layer_Color=65535*
%ADD10R,3.650X2.050*%
%ADD11R,1.400X0.400*%
%ADD12R,1.900X2.300*%
%ADD13R,1.900X2.400*%
%ADD14R,0.900X1.000*%
%ADD15R,0.900X0.800*%
%ADD16R,0.800X0.900*%
%ADD17R,0.700X0.900*%
%ADD18R,3.000X1.000*%
%ADD19O,1.550X0.250*%
%ADD20R,0.900X0.700*%
%ADD21R,3.300X1.100*%
%ADD22R,1.500X1.400*%
%ADD23R,1.050X0.600*%
%ADD24R,2.250X2.100*%
%ADD25R,1.250X1.950*%
%ADD26O,0.600X2.050*%
%ADD27O,2.050X0.600*%
%ADD28R,2.150X3.200*%
%ADD29R,2.150X0.900*%
%ADD30R,0.559X0.711*%
%ADD31C,0.200*%
%ADD32C,0.400*%
%ADD33C,5.000*%
%ADD34C,1.500*%
%ADD35R,1.500X1.500*%
%ADD36R,1.500X1.500*%
%ADD37C,0.600*%
%ADD38C,1.000*%
%ADD39R,0.450X0.900*%
%ADD40R,3.300X1.400*%
%ADD41R,0.600X1.000*%
%ADD42C,0.250*%
%ADD43C,0.100*%
%ADD44C,0.600*%
%ADD45C,0.254*%
%ADD46C,0.203*%
G54D31*
X37800Y42400D02*
Y44200D01*
X29200D02*
X37800D01*
X29200Y42400D02*
Y44200D01*
X20800Y42400D02*
Y44200D01*
X12200D02*
X20800D01*
X12200Y42400D02*
Y44200D01*
X36800Y44000D02*
X37000Y43800D01*
X21350Y7200D02*
X21450D01*
X21350Y6400D02*
X21450D01*
X22150Y5400D02*
X22250D01*
X22150Y4600D02*
X22250D01*
X44070Y1730D02*
Y4270D01*
X33910Y1730D02*
X44070D01*
X33910Y4270D02*
X44070D01*
X33910Y1730D02*
Y4270D01*
X10590Y16750D02*
X15670D01*
X10590Y9130D02*
X15670D01*
X10590D02*
Y16750D01*
X15670Y9130D02*
Y16750D01*
Y11882D02*
Y16750D01*
X46730Y6190D02*
X49270D01*
X46730D02*
Y11270D01*
X49270D01*
Y6190D02*
Y11270D01*
X46730Y19850D02*
Y27470D01*
Y19850D02*
X49270D01*
Y27470D01*
X46730D02*
X49270D01*
X4800Y25650D02*
X5200D01*
X4800Y26350D02*
X5200D01*
X4800Y27650D02*
X5200D01*
X4800Y28350D02*
X5200D01*
X42800Y29950D02*
X43200D01*
X42800Y29250D02*
X43200D01*
X8350Y18800D02*
X8450D01*
X8350Y18000D02*
X8450D01*
X8350Y17200D02*
X8450D01*
X8350Y16400D02*
X8450D01*
X4800Y7650D02*
X5200D01*
X4800Y8350D02*
X5200D01*
X4800Y9650D02*
X5200D01*
X4800Y10350D02*
X5200D01*
X38150Y23450D02*
Y26550D01*
X39850Y23450D02*
Y26550D01*
X38150D02*
X39850D01*
X38150Y23450D02*
X39850D01*
X38150Y18450D02*
Y21550D01*
X39850Y18450D02*
Y21550D01*
X38150D02*
X39850D01*
X38150Y18450D02*
X39850D01*
X38150Y13450D02*
Y16550D01*
X39850Y13450D02*
Y16550D01*
X38150D02*
X39850D01*
X38150Y13450D02*
X39850D01*
X38150Y8450D02*
Y11550D01*
X39850Y8450D02*
Y11550D01*
X38150D02*
X39850D01*
X38150Y8450D02*
X39850D01*
X47450Y31800D02*
Y32200D01*
X48150Y31800D02*
Y32200D01*
X42800Y35650D02*
X43200D01*
X42800Y36350D02*
X43200D01*
X43850Y30450D02*
Y33550D01*
X42150Y30450D02*
Y33550D01*
Y30450D02*
X43850D01*
X42150Y33550D02*
X43850D01*
X35450Y32100D02*
Y35900D01*
X38550Y32100D02*
Y35900D01*
X32350Y36000D02*
X33650D01*
X32400Y30550D02*
Y33450D01*
X31600Y30550D02*
Y33450D01*
Y30550D02*
X32400D01*
X31600Y33450D02*
X32400D01*
X23400Y34100D02*
Y34550D01*
X18600Y34100D02*
Y34550D01*
X23400Y37450D02*
Y37900D01*
X18600Y37450D02*
Y37900D01*
Y34100D02*
X23400D01*
X18600Y37900D02*
X23400D01*
X18750Y10750D02*
X27250D01*
X18750Y19250D02*
X27250D01*
Y10750D02*
Y19250D01*
X18750Y10750D02*
Y19250D01*
X9450Y28350D02*
X12550D01*
X9450Y21650D02*
X12550D01*
X9450D02*
Y28350D01*
X12550Y21650D02*
Y28350D01*
X9550Y32100D02*
Y35900D01*
X6450Y32100D02*
Y35900D01*
X11350Y36000D02*
X12650D01*
X12600Y30550D02*
Y33450D01*
X13400Y30550D02*
Y33450D01*
X12600D02*
X13400D01*
X12600Y30550D02*
X13400D01*
X14150Y36000D02*
X15450D01*
X29550D02*
X30850D01*
G54D42*
X37100Y26675D02*
G03*
X37100Y26675I-125J0D01*
G01*
Y21675D02*
G03*
X37100Y21675I-125J0D01*
G01*
Y16675D02*
G03*
X37100Y16675I-125J0D01*
G01*
Y11675D02*
G03*
X37100Y11675I-125J0D01*
G01*
X45150Y30325D02*
G03*
X45150Y30325I-125J0D01*
G01*
X30800Y33800D02*
G03*
X30800Y33800I-125J0D01*
G01*
X18075Y37600D02*
G03*
X18075Y37600I-125J0D01*
G01*
X17425Y19850D02*
G03*
X17425Y19850I-125J0D01*
G01*
X14050Y21700D02*
G03*
X14050Y21700I-125J0D01*
G01*
X14450Y30200D02*
G03*
X14450Y30200I-125J0D01*
G01*
G54D43*
X17975Y29100D02*
G03*
X17975Y29100I-50J0D01*
G01*
G54D44*
X20050Y18250D02*
G03*
X20050Y18250I-300J0D01*
G01*
G54D45*
X8850Y850D02*
X15150D01*
Y1054D01*
X8850Y850D02*
Y1054D01*
X15150Y2984D02*
Y5016D01*
X8850Y2984D02*
Y5016D01*
Y7150D02*
X15150D01*
X8850Y6946D02*
Y7150D01*
X15150Y6946D02*
Y7150D01*
X24984Y34476D02*
X27016D01*
Y37524D01*
X24984D02*
X27016D01*
X24984Y34476D02*
Y37524D01*
X35600Y43600D02*
Y42767D01*
X35767Y42600D01*
X36100D01*
X36266Y42767D01*
Y43600D01*
X13600D02*
Y42767D01*
X13767Y42600D01*
X14100D01*
X14266Y42767D01*
Y43600D01*
X40266Y43433D02*
X40100Y43600D01*
X39767D01*
X39600Y43433D01*
Y42767D01*
X39767Y42600D01*
X40100D01*
X40266Y42767D01*
Y43100D01*
X39933D01*
X40600Y42600D02*
Y43600D01*
X41266Y42600D01*
Y43600D01*
X41599D02*
Y42600D01*
X42099D01*
X42266Y42767D01*
Y43433D01*
X42099Y43600D01*
X41599D01*
X24266Y39433D02*
X24100Y39600D01*
X23767D01*
X23600Y39433D01*
Y38767D01*
X23767Y38600D01*
X24100D01*
X24266Y38767D01*
Y39100D01*
X23933D01*
X24600Y38600D02*
Y39600D01*
X25266Y38600D01*
Y39600D01*
X25599D02*
Y38600D01*
X26099D01*
X26266Y38767D01*
Y39433D01*
X26099Y39600D01*
X25599D01*
X22466Y43600D02*
X21800D01*
Y43100D01*
X22133D01*
X21800D01*
Y42600D01*
X22800Y43600D02*
Y42600D01*
X23466D01*
X23799Y43600D02*
Y43433D01*
X24133Y43100D01*
X24466Y43433D01*
Y43600D01*
X24133Y43100D02*
Y42600D01*
X24799Y43600D02*
Y42600D01*
X25299D01*
X25465Y42767D01*
Y42933D01*
X25299Y43100D01*
X24799D01*
X25299D01*
X25465Y43266D01*
Y43433D01*
X25299Y43600D01*
X24799D01*
X25799Y42600D02*
Y43266D01*
X26132Y43600D01*
X26465Y43266D01*
Y42600D01*
Y43100D01*
X25799D01*
X27465Y43433D02*
X27298Y43600D01*
X26965D01*
X26798Y43433D01*
Y42767D01*
X26965Y42600D01*
X27298D01*
X27465Y42767D01*
X27798Y43600D02*
Y42600D01*
Y42933D01*
X28465Y43600D01*
X27965Y43100D01*
X28465Y42600D01*
X30800Y43600D02*
X31133D01*
X30967D01*
Y42600D01*
X30800D01*
X31133D01*
X15700Y43600D02*
X15367D01*
X15200Y43433D01*
Y42767D01*
X15367Y42600D01*
X15700D01*
X15866Y42767D01*
Y43433D01*
X15700Y43600D01*
X16200D02*
Y42767D01*
X16366Y42600D01*
X16700D01*
X16866Y42767D01*
Y43600D01*
X17199D02*
X17866D01*
X17533D01*
Y42600D01*
X32600Y43600D02*
X32933D01*
X32767D01*
Y42600D01*
X32600D01*
X32933D01*
X33433D02*
Y43600D01*
X34100Y42600D01*
Y43600D01*
X18800Y43600D02*
X19133D01*
X18967D01*
Y42600D01*
X18800D01*
X19133D01*
X8466Y43433D02*
X8300Y43600D01*
X7967D01*
X7800Y43433D01*
Y42767D01*
X7967Y42600D01*
X8300D01*
X8466Y42767D01*
Y43100D01*
X8133D01*
X8800Y42600D02*
Y43600D01*
X9466Y42600D01*
Y43600D01*
X9799D02*
Y42600D01*
X10299D01*
X10466Y42767D01*
Y43433D01*
X10299Y43600D01*
X9799D01*
X5200Y13866D02*
Y13533D01*
Y13700D01*
X6033D01*
X6200Y13533D01*
Y13367D01*
X6033Y13200D01*
X6200Y14200D02*
Y14533D01*
Y14366D01*
X5200D01*
X5367Y14200D01*
X26400Y3200D02*
Y3033D01*
X26733Y2700D01*
X27066Y3033D01*
Y3200D01*
X26733Y2700D02*
Y2200D01*
X27400D02*
X27733D01*
X27566D01*
Y3200D01*
X27400Y3033D01*
X6500Y22800D02*
Y22133D01*
X6833Y21800D01*
X7166Y22133D01*
Y22800D01*
X7500Y21800D02*
Y22800D01*
X8000D01*
X8166Y22633D01*
Y22300D01*
X8000Y22133D01*
X7500D01*
X7833D02*
X8166Y21800D01*
X8499D02*
X8833D01*
X8666D01*
Y22800D01*
X8499Y22633D01*
X11600Y30000D02*
Y29167D01*
X11767Y29000D01*
X12100D01*
X12266Y29167D01*
Y30000D01*
X12600Y29833D02*
X12766Y30000D01*
X13100D01*
X13266Y29833D01*
Y29666D01*
X13100Y29500D01*
X13266Y29333D01*
Y29167D01*
X13100Y29000D01*
X12766D01*
X12600Y29167D01*
Y29333D01*
X12766Y29500D01*
X12600Y29666D01*
Y29833D01*
X12766Y29500D02*
X13100D01*
X31200Y30000D02*
Y29167D01*
X31367Y29000D01*
X31700D01*
X31866Y29167D01*
Y30000D01*
X32200D02*
X32866D01*
Y29833D01*
X32200Y29167D01*
Y29000D01*
X39400Y30400D02*
Y29567D01*
X39567Y29400D01*
X39900D01*
X40066Y29567D01*
Y30400D01*
X41066D02*
X40733Y30233D01*
X40400Y29900D01*
Y29567D01*
X40566Y29400D01*
X40900D01*
X41066Y29567D01*
Y29733D01*
X40900Y29900D01*
X40400D01*
X33000Y10400D02*
Y9567D01*
X33167Y9400D01*
X33500D01*
X33666Y9567D01*
Y10400D01*
X34666D02*
X34000D01*
Y9900D01*
X34333Y10066D01*
X34500D01*
X34666Y9900D01*
Y9567D01*
X34500Y9400D01*
X34166D01*
X34000Y9567D01*
X33000Y15400D02*
Y14567D01*
X33167Y14400D01*
X33500D01*
X33666Y14567D01*
Y15400D01*
X34500Y14400D02*
Y15400D01*
X34000Y14900D01*
X34666D01*
X33000Y20400D02*
Y19567D01*
X33167Y19400D01*
X33500D01*
X33666Y19567D01*
Y20400D01*
X34000Y20233D02*
X34166Y20400D01*
X34500D01*
X34666Y20233D01*
Y20066D01*
X34500Y19900D01*
X34333D01*
X34500D01*
X34666Y19733D01*
Y19567D01*
X34500Y19400D01*
X34166D01*
X34000Y19567D01*
X33000Y25400D02*
Y24567D01*
X33167Y24400D01*
X33500D01*
X33666Y24567D01*
Y25400D01*
X34666Y24400D02*
X34000D01*
X34666Y25066D01*
Y25233D01*
X34500Y25400D01*
X34166D01*
X34000Y25233D01*
X28400Y21200D02*
Y20367D01*
X28567Y20200D01*
X28900D01*
X29066Y20367D01*
Y21200D01*
X29400Y20200D02*
X29733D01*
X29566D01*
Y21200D01*
X29400Y21033D01*
X7167Y4066D02*
X7000Y3900D01*
Y3567D01*
X7167Y3400D01*
X7334D01*
X7500Y3567D01*
Y3900D01*
X7667Y4066D01*
X7833D01*
X8000Y3900D01*
Y3567D01*
X7833Y3400D01*
X8000Y4400D02*
Y4733D01*
Y4566D01*
X7000D01*
X7167Y4400D01*
X5800Y32800D02*
X4800D01*
Y33300D01*
X4967Y33466D01*
X5300D01*
X5467Y33300D01*
Y32800D01*
Y33133D02*
X5800Y33466D01*
Y33800D02*
Y34133D01*
Y33966D01*
X4800D01*
X4967Y33800D01*
X4800Y34633D02*
Y35299D01*
X4967D01*
X5633Y34633D01*
X5800D01*
X35400Y29200D02*
Y30200D01*
X35900D01*
X36066Y30033D01*
Y29700D01*
X35900Y29533D01*
X35400D01*
X35733D02*
X36066Y29200D01*
X36400D02*
X36733D01*
X36566D01*
Y30200D01*
X36400Y30033D01*
X37899Y30200D02*
X37566Y30033D01*
X37233Y29700D01*
Y29367D01*
X37399Y29200D01*
X37733D01*
X37899Y29367D01*
Y29533D01*
X37733Y29700D01*
X37233D01*
X3800Y11000D02*
Y12000D01*
X4300D01*
X4466Y11833D01*
Y11500D01*
X4300Y11333D01*
X3800D01*
X4133D02*
X4466Y11000D01*
X4800D02*
X5133D01*
X4966D01*
Y12000D01*
X4800Y11833D01*
X6299Y12000D02*
X5633D01*
Y11500D01*
X5966Y11666D01*
X6133D01*
X6299Y11500D01*
Y11167D01*
X6133Y11000D01*
X5799D01*
X5633Y11167D01*
X4000Y6000D02*
Y7000D01*
X4500D01*
X4666Y6833D01*
Y6500D01*
X4500Y6333D01*
X4000D01*
X4333D02*
X4666Y6000D01*
X5000D02*
X5333D01*
X5166D01*
Y7000D01*
X5000Y6833D01*
X6333Y6000D02*
Y7000D01*
X5833Y6500D01*
X6499D01*
X7200Y14800D02*
Y15800D01*
X7700D01*
X7866Y15633D01*
Y15300D01*
X7700Y15133D01*
X7200D01*
X7533D02*
X7866Y14800D01*
X8200D02*
X8533D01*
X8366D01*
Y15800D01*
X8200Y15633D01*
X9033D02*
X9199Y15800D01*
X9533D01*
X9699Y15633D01*
Y15466D01*
X9533Y15300D01*
X9366D01*
X9533D01*
X9699Y15133D01*
Y14967D01*
X9533Y14800D01*
X9199D01*
X9033Y14967D01*
X7200Y19400D02*
Y20400D01*
X7700D01*
X7866Y20233D01*
Y19900D01*
X7700Y19733D01*
X7200D01*
X7533D02*
X7866Y19400D01*
X8200D02*
X8533D01*
X8366D01*
Y20400D01*
X8200Y20233D01*
X9699Y19400D02*
X9033D01*
X9699Y20066D01*
Y20233D01*
X9533Y20400D01*
X9199D01*
X9033Y20233D01*
X42000Y37000D02*
Y38000D01*
X42500D01*
X42666Y37833D01*
Y37500D01*
X42500Y37333D01*
X42000D01*
X42333D02*
X42666Y37000D01*
X43000D02*
X43333D01*
X43166D01*
Y38000D01*
X43000Y37833D01*
X43833Y37000D02*
X44166D01*
X43999D01*
Y38000D01*
X43833Y37833D01*
X48800Y33800D02*
X47800D01*
Y34300D01*
X47967Y34466D01*
X48300D01*
X48467Y34300D01*
Y33800D01*
Y34133D02*
X48800Y34466D01*
Y34800D02*
Y35133D01*
Y34966D01*
X47800D01*
X47967Y34800D01*
Y35633D02*
X47800Y35799D01*
Y36133D01*
X47967Y36299D01*
X48633D01*
X48800Y36133D01*
Y35799D01*
X48633Y35633D01*
X47967D01*
X42200Y27600D02*
Y28600D01*
X42700D01*
X42866Y28433D01*
Y28100D01*
X42700Y27933D01*
X42200D01*
X42533D02*
X42866Y27600D01*
X43200Y27767D02*
X43366Y27600D01*
X43700D01*
X43866Y27767D01*
Y28433D01*
X43700Y28600D01*
X43366D01*
X43200Y28433D01*
Y28266D01*
X43366Y28100D01*
X43866D01*
X4000Y29000D02*
Y30000D01*
X4500D01*
X4666Y29833D01*
Y29500D01*
X4500Y29333D01*
X4000D01*
X4333D02*
X4666Y29000D01*
X5000Y29833D02*
X5166Y30000D01*
X5500D01*
X5666Y29833D01*
Y29666D01*
X5500Y29500D01*
X5666Y29333D01*
Y29167D01*
X5500Y29000D01*
X5166D01*
X5000Y29167D01*
Y29333D01*
X5166Y29500D01*
X5000Y29666D01*
Y29833D01*
X5166Y29500D02*
X5500D01*
X4000Y24000D02*
Y25000D01*
X4500D01*
X4666Y24833D01*
Y24500D01*
X4500Y24333D01*
X4000D01*
X4333D02*
X4666Y24000D01*
X5000Y25000D02*
X5666D01*
Y24833D01*
X5000Y24167D01*
Y24000D01*
X44200Y22600D02*
X43200D01*
Y23100D01*
X43367Y23266D01*
X43700D01*
X43867Y23100D01*
Y22600D01*
X44200Y24100D02*
X43200D01*
X43700Y23600D01*
Y24266D01*
X49000Y11800D02*
X48000D01*
Y12300D01*
X48167Y12466D01*
X48500D01*
X48667Y12300D01*
Y11800D01*
X48167Y12800D02*
X48000Y12966D01*
Y13300D01*
X48167Y13466D01*
X48334D01*
X48500Y13300D01*
Y13133D01*
Y13300D01*
X48667Y13466D01*
X48833D01*
X49000Y13300D01*
Y12966D01*
X48833Y12800D01*
X24600Y33800D02*
Y32800D01*
X25266D01*
X26266D02*
X25600D01*
X26266Y33466D01*
Y33633D01*
X26100Y33800D01*
X25766D01*
X25600Y33633D01*
X20200Y33600D02*
Y32600D01*
X20700D01*
X20866Y32767D01*
Y33433D01*
X20700Y33600D01*
X20200D01*
X21200Y32767D02*
X21366Y32600D01*
X21700D01*
X21866Y32767D01*
Y33433D01*
X21700Y33600D01*
X21366D01*
X21200Y33433D01*
Y33266D01*
X21366Y33100D01*
X21866D01*
X1000Y12000D02*
Y11000D01*
X1500D01*
X1666Y11167D01*
Y11833D01*
X1500Y12000D01*
X1000D01*
X2000Y11833D02*
X2166Y12000D01*
X2500D01*
X2666Y11833D01*
Y11666D01*
X2500Y11500D01*
X2666Y11333D01*
Y11167D01*
X2500Y11000D01*
X2166D01*
X2000Y11167D01*
Y11333D01*
X2166Y11500D01*
X2000Y11666D01*
Y11833D01*
X2166Y11500D02*
X2500D01*
X1000Y7000D02*
Y6000D01*
X1500D01*
X1666Y6167D01*
Y6833D01*
X1500Y7000D01*
X1000D01*
X2000D02*
X2666D01*
Y6833D01*
X2000Y6167D01*
Y6000D01*
X1000Y30000D02*
Y29000D01*
X1500D01*
X1666Y29167D01*
Y29833D01*
X1500Y30000D01*
X1000D01*
X2666Y29000D02*
X2000D01*
X2666Y29666D01*
Y29833D01*
X2500Y30000D01*
X2166D01*
X2000Y29833D01*
X850Y25100D02*
Y24100D01*
X1350D01*
X1516Y24267D01*
Y24933D01*
X1350Y25100D01*
X850D01*
X1850Y24100D02*
X2183D01*
X2016D01*
Y25100D01*
X1850Y24933D01*
X27167Y31466D02*
X27000Y31300D01*
Y30967D01*
X27167Y30800D01*
X27833D01*
X28000Y30967D01*
Y31300D01*
X27833Y31466D01*
X28000Y32466D02*
Y31800D01*
X27334Y32466D01*
X27167D01*
X27000Y32300D01*
Y31966D01*
X27167Y31800D01*
X27000Y33466D02*
X27167Y33133D01*
X27500Y32799D01*
X27833D01*
X28000Y32966D01*
Y33299D01*
X27833Y33466D01*
X27667D01*
X27500Y33299D01*
Y32799D01*
X17167Y31266D02*
X17000Y31100D01*
Y30767D01*
X17167Y30600D01*
X17833D01*
X18000Y30767D01*
Y31100D01*
X17833Y31266D01*
X18000Y32266D02*
Y31600D01*
X17334Y32266D01*
X17167D01*
X17000Y32100D01*
Y31766D01*
X17167Y31600D01*
X17000Y33266D02*
Y32599D01*
X17500D01*
X17334Y32933D01*
Y33099D01*
X17500Y33266D01*
X17833D01*
X18000Y33099D01*
Y32766D01*
X17833Y32599D01*
X10466Y39233D02*
X10300Y39400D01*
X9967D01*
X9800Y39233D01*
Y38567D01*
X9967Y38400D01*
X10300D01*
X10466Y38567D01*
X11466Y38400D02*
X10800D01*
X11466Y39066D01*
Y39233D01*
X11300Y39400D01*
X10966D01*
X10800Y39233D01*
X11799D02*
X11966Y39400D01*
X12299D01*
X12466Y39233D01*
Y39066D01*
X12299Y38900D01*
X12133D01*
X12299D01*
X12466Y38733D01*
Y38567D01*
X12299Y38400D01*
X11966D01*
X11799Y38567D01*
X17666Y39233D02*
X17500Y39400D01*
X17167D01*
X17000Y39233D01*
Y38567D01*
X17167Y38400D01*
X17500D01*
X17666Y38567D01*
X18666Y38400D02*
X18000D01*
X18666Y39066D01*
Y39233D01*
X18500Y39400D01*
X18166D01*
X18000Y39233D01*
X19666Y38400D02*
X18999D01*
X19666Y39066D01*
Y39233D01*
X19499Y39400D01*
X19166D01*
X18999Y39233D01*
X27748Y39016D02*
X27582Y39182D01*
X27249D01*
X27082Y39016D01*
Y38349D01*
X27249Y38183D01*
X27582D01*
X27748Y38349D01*
X28748Y38183D02*
X28082D01*
X28748Y38849D01*
Y39016D01*
X28581Y39182D01*
X28248D01*
X28082Y39016D01*
X29081Y38183D02*
X29415D01*
X29248D01*
Y39182D01*
X29081Y39016D01*
X33866Y39033D02*
X33700Y39200D01*
X33367D01*
X33200Y39033D01*
Y38367D01*
X33367Y38200D01*
X33700D01*
X33866Y38367D01*
X34866Y38200D02*
X34200D01*
X34866Y38866D01*
Y39033D01*
X34700Y39200D01*
X34366D01*
X34200Y39033D01*
X35199D02*
X35366Y39200D01*
X35699D01*
X35866Y39033D01*
Y38367D01*
X35699Y38200D01*
X35366D01*
X35199Y38367D01*
Y39033D01*
X45266Y34833D02*
X45100Y35000D01*
X44767D01*
X44600Y34833D01*
Y34167D01*
X44767Y34000D01*
X45100D01*
X45266Y34167D01*
X45600Y34000D02*
X45933D01*
X45766D01*
Y35000D01*
X45600Y34833D01*
X46433Y35000D02*
X47099D01*
Y34833D01*
X46433Y34167D01*
Y34000D01*
X35466Y8033D02*
X35300Y8200D01*
X34967D01*
X34800Y8033D01*
Y7367D01*
X34967Y7200D01*
X35300D01*
X35466Y7367D01*
X35800Y7200D02*
X36133D01*
X35966D01*
Y8200D01*
X35800Y8033D01*
X37299Y8200D02*
X36633D01*
Y7700D01*
X36966Y7866D01*
X37133D01*
X37299Y7700D01*
Y7367D01*
X37133Y7200D01*
X36799D01*
X36633Y7367D01*
X35466Y13233D02*
X35300Y13400D01*
X34967D01*
X34800Y13233D01*
Y12567D01*
X34967Y12400D01*
X35300D01*
X35466Y12567D01*
X35800Y12400D02*
X36133D01*
X35966D01*
Y13400D01*
X35800Y13233D01*
X37133Y12400D02*
Y13400D01*
X36633Y12900D01*
X37299D01*
X24866Y5433D02*
X24700Y5600D01*
X24367D01*
X24200Y5433D01*
Y4767D01*
X24367Y4600D01*
X24700D01*
X24866Y4767D01*
X25200Y4600D02*
X25533D01*
X25366D01*
Y5600D01*
X25200Y5433D01*
X26033D02*
X26199Y5600D01*
X26533D01*
X26699Y5433D01*
Y5266D01*
X26533Y5100D01*
X26366D01*
X26533D01*
X26699Y4933D01*
Y4767D01*
X26533Y4600D01*
X26199D01*
X26033Y4767D01*
X23866Y7033D02*
X23700Y7200D01*
X23367D01*
X23200Y7033D01*
Y6367D01*
X23367Y6200D01*
X23700D01*
X23866Y6367D01*
X24200Y6200D02*
X24533D01*
X24366D01*
Y7200D01*
X24200Y7033D01*
X25699Y6200D02*
X25033D01*
X25699Y6866D01*
Y7033D01*
X25533Y7200D01*
X25199D01*
X25033Y7033D01*
X36266Y18233D02*
X36100Y18400D01*
X35767D01*
X35600Y18233D01*
Y17567D01*
X35767Y17400D01*
X36100D01*
X36266Y17567D01*
X36600D02*
X36766Y17400D01*
X37100D01*
X37266Y17567D01*
Y18233D01*
X37100Y18400D01*
X36766D01*
X36600Y18233D01*
Y18066D01*
X36766Y17900D01*
X37266D01*
X36266Y23233D02*
X36100Y23400D01*
X35767D01*
X35600Y23233D01*
Y22567D01*
X35767Y22400D01*
X36100D01*
X36266Y22567D01*
X36600Y23233D02*
X36766Y23400D01*
X37100D01*
X37266Y23233D01*
Y23066D01*
X37100Y22900D01*
X37266Y22733D01*
Y22567D01*
X37100Y22400D01*
X36766D01*
X36600Y22567D01*
Y22733D01*
X36766Y22900D01*
X36600Y23066D01*
Y23233D01*
X36766Y22900D02*
X37100D01*
X17567Y23066D02*
X17400Y22900D01*
Y22567D01*
X17567Y22400D01*
X18233D01*
X18400Y22567D01*
Y22900D01*
X18233Y23066D01*
X17567Y23400D02*
X17400Y23566D01*
Y23900D01*
X17567Y24066D01*
X17734D01*
X17900Y23900D01*
Y23733D01*
Y23900D01*
X18067Y24066D01*
X18233D01*
X18400Y23900D01*
Y23566D01*
X18233Y23400D01*
X18367Y25866D02*
X18200Y25700D01*
Y25367D01*
X18367Y25200D01*
X19033D01*
X19200Y25367D01*
Y25700D01*
X19033Y25866D01*
X19200Y26866D02*
Y26200D01*
X18534Y26866D01*
X18367D01*
X18200Y26700D01*
Y26366D01*
X18367Y26200D01*
X30666Y39033D02*
X30500Y39200D01*
X30167D01*
X30000Y39033D01*
Y38367D01*
X30167Y38200D01*
X30500D01*
X30666Y38367D01*
X31000Y38200D02*
X31333D01*
X31166D01*
Y39200D01*
X31000Y39033D01*
X31833Y38367D02*
X31999Y38200D01*
X32333D01*
X32499Y38367D01*
Y39033D01*
X32333Y39200D01*
X31999D01*
X31833Y39033D01*
Y38866D01*
X31999Y38700D01*
X32499D01*
X14066Y39233D02*
X13900Y39400D01*
X13567D01*
X13400Y39233D01*
Y38567D01*
X13567Y38400D01*
X13900D01*
X14066Y38567D01*
X15066Y38400D02*
X14400D01*
X15066Y39066D01*
Y39233D01*
X14900Y39400D01*
X14566D01*
X14400Y39233D01*
X15899Y38400D02*
Y39400D01*
X15399Y38900D01*
X16066D01*
X47466Y19200D02*
X46800D01*
Y18200D01*
X47466D01*
X46800Y18700D02*
X47133D01*
X47800Y19200D02*
X48466Y18200D01*
Y19200D02*
X47800Y18200D01*
X48799Y19200D02*
X49466D01*
X49133D01*
Y18200D01*
X46800Y29000D02*
Y28167D01*
X46967Y28000D01*
X47300D01*
X47466Y28167D01*
Y29000D01*
X48466Y28833D02*
X48300Y29000D01*
X47966D01*
X47800Y28833D01*
Y28666D01*
X47966Y28500D01*
X48300D01*
X48466Y28333D01*
Y28167D01*
X48300Y28000D01*
X47966D01*
X47800Y28167D01*
X48799Y29000D02*
Y28000D01*
X49299D01*
X49466Y28167D01*
Y28333D01*
X49299Y28500D01*
X48799D01*
X49299D01*
X49466Y28666D01*
Y28833D01*
X49299Y29000D01*
X48799D01*
X9000Y9200D02*
Y9533D01*
Y9367D01*
X10000D01*
Y9200D01*
Y9533D01*
X9167Y10700D02*
X9000Y10533D01*
Y10200D01*
X9167Y10033D01*
X9334D01*
X9500Y10200D01*
Y10533D01*
X9667Y10700D01*
X9833D01*
X10000Y10533D01*
Y10200D01*
X9833Y10033D01*
X10000Y11033D02*
X9000D01*
Y11533D01*
X9167Y11699D01*
X9500D01*
X9667Y11533D01*
Y11033D01*
X46200Y17800D02*
X45200D01*
Y18300D01*
X45367Y18466D01*
X45700D01*
X45867Y18300D01*
Y17800D01*
X45200Y19300D02*
Y18966D01*
X45367Y18800D01*
X46033D01*
X46200Y18966D01*
Y19300D01*
X46033Y19466D01*
X45367D01*
X45200Y19300D01*
Y19799D02*
X46200D01*
X45867Y20133D01*
X46200Y20466D01*
X45200D01*
Y21465D02*
Y20799D01*
X46200D01*
Y21465D01*
X45700Y20799D02*
Y21132D01*
X46200Y21799D02*
X45200D01*
Y22299D01*
X45367Y22465D01*
X45700D01*
X45867Y22299D01*
Y21799D01*
Y22132D02*
X46200Y22465D01*
X45367Y24465D02*
X45200Y24298D01*
Y23965D01*
X45367Y23798D01*
X45534D01*
X45700Y23965D01*
Y24298D01*
X45867Y24465D01*
X46033D01*
X46200Y24298D01*
Y23965D01*
X46033Y23798D01*
X45200Y25464D02*
Y24798D01*
X46200D01*
Y25464D01*
X45700Y24798D02*
Y25131D01*
X45200Y25797D02*
X46200D01*
Y26464D01*
X45200Y27464D02*
Y26797D01*
X46200D01*
Y27464D01*
X45700Y26797D02*
Y27130D01*
X45367Y28463D02*
X45200Y28297D01*
Y27963D01*
X45367Y27797D01*
X46033D01*
X46200Y27963D01*
Y28297D01*
X46033Y28463D01*
X45200Y28796D02*
Y29463D01*
Y29130D01*
X46200D01*
X43600Y6466D02*
Y5800D01*
X44600D01*
Y6466D01*
X44100Y5800D02*
Y6133D01*
X43600Y6800D02*
X44600Y7466D01*
X43600D02*
X44600Y6800D01*
X43600Y7799D02*
Y8466D01*
Y8133D01*
X44600D01*
Y9799D02*
X43600D01*
Y10299D01*
X43767Y10465D01*
X44100D01*
X44267Y10299D01*
Y9799D01*
X43600Y11298D02*
Y10965D01*
X43767Y10798D01*
X44433D01*
X44600Y10965D01*
Y11298D01*
X44433Y11465D01*
X43767D01*
X43600Y11298D01*
Y11798D02*
X44600D01*
X44267Y12131D01*
X44600Y12465D01*
X43600D01*
Y13464D02*
Y12798D01*
X44600D01*
Y13464D01*
X44100Y12798D02*
Y13131D01*
X44600Y13797D02*
X43600D01*
Y14297D01*
X43767Y14464D01*
X44100D01*
X44267Y14297D01*
Y13797D01*
Y14131D02*
X44600Y14464D01*
X38266Y5800D02*
X37600D01*
Y4800D01*
X38266D01*
X37600Y5300D02*
X37933D01*
X38600Y4800D02*
Y5466D01*
X38933Y5800D01*
X39266Y5466D01*
Y4800D01*
Y5300D01*
X38600D01*
X39599Y4800D02*
Y5800D01*
X40099D01*
X40266Y5633D01*
Y5300D01*
X40099Y5133D01*
X39599D01*
X18200Y1600D02*
X17200D01*
Y2100D01*
X17367Y2266D01*
X17700D01*
X17867Y2100D01*
Y1600D01*
Y1933D02*
X18200Y2266D01*
X17200Y3266D02*
Y2600D01*
X18200D01*
Y3266D01*
X17700Y2600D02*
Y2933D01*
X17367Y4266D02*
X17200Y4099D01*
Y3766D01*
X17367Y3599D01*
X17534D01*
X17700Y3766D01*
Y4099D01*
X17867Y4266D01*
X18033D01*
X18200Y4099D01*
Y3766D01*
X18033Y3599D01*
X17200Y5265D02*
Y4599D01*
X18200D01*
Y5265D01*
X17700Y4599D02*
Y4932D01*
X17200Y5599D02*
Y6265D01*
Y5932D01*
X18200D01*
X45367Y5800D02*
X45200Y5967D01*
Y6300D01*
X45367Y6466D01*
X45534D01*
X45700Y6300D01*
Y6133D01*
Y6300D01*
X45867Y6466D01*
X46033D01*
X46200Y6300D01*
Y5967D01*
X46033Y5800D01*
X45200Y6800D02*
X45867D01*
X46200Y7133D01*
X45867Y7466D01*
X45200D01*
X45367Y7799D02*
X45200Y7966D01*
Y8299D01*
X45367Y8466D01*
X45534D01*
X45700Y8299D01*
Y8133D01*
Y8299D01*
X45867Y8466D01*
X46033D01*
X46200Y8299D01*
Y7966D01*
X46033Y7799D01*
X46200Y9799D02*
X45200D01*
X45534Y10132D01*
X45200Y10465D01*
X46200D01*
Y10798D02*
X45534D01*
X45200Y11132D01*
X45534Y11465D01*
X46200D01*
X45700D01*
Y10798D01*
X45200Y11798D02*
X46200Y12465D01*
X45200D02*
X46200Y11798D01*
G54D46*
X11400Y18066D02*
X11567Y17733D01*
X11900Y17400D01*
X12233D01*
X12400Y17567D01*
Y17900D01*
X12233Y18066D01*
X12067D01*
X11900Y17900D01*
Y17400D01*
X13800Y18066D02*
Y17400D01*
X14300D01*
X14134Y17733D01*
Y17900D01*
X14300Y18066D01*
X14633D01*
X14800Y17900D01*
Y17567D01*
X14633Y17400D01*
X12400Y8466D02*
Y7800D01*
X11734Y8466D01*
X11567D01*
X11400Y8300D01*
Y7967D01*
X11567Y7800D01*
X14800Y8200D02*
Y8533D01*
Y8367D01*
X13800D01*
X13967Y8200D01*
M02*
