%FSLAX43Y43*%
%MOMM*%
G71*
G01*
G75*
G04 Layer_Color=8388736*
%ADD10R,0.559X0.711*%
%ADD11R,3.650X2.050*%
%ADD12R,1.500X1.400*%
%ADD13R,0.800X0.900*%
%ADD14R,1.050X0.600*%
%ADD15R,3.300X1.100*%
%ADD16R,2.150X0.900*%
%ADD17R,2.150X3.200*%
%ADD18O,2.050X0.600*%
%ADD19O,0.600X2.050*%
%ADD20R,0.900X0.800*%
%ADD21R,1.250X1.950*%
%ADD22R,2.250X2.100*%
%ADD23O,1.550X0.250*%
%ADD24R,0.700X0.900*%
%ADD25R,0.900X0.700*%
%ADD26R,3.000X1.000*%
%ADD27R,0.900X1.000*%
%ADD28R,1.900X2.400*%
%ADD29R,1.900X2.300*%
%ADD30R,1.400X0.400*%
%ADD31C,0.400*%
%ADD32C,0.200*%
%ADD33C,1.500*%
%ADD34R,1.500X1.500*%
%ADD35R,1.500X1.500*%
%ADD36C,5.000*%
%ADD37C,0.600*%
%ADD38C,1.000*%
%ADD39R,0.450X0.900*%
%ADD40R,0.600X1.000*%
%ADD41R,3.300X1.400*%
%ADD42C,0.250*%
%ADD43C,0.600*%
%ADD44C,0.100*%
%ADD45C,0.254*%
%ADD46C,0.203*%
%ADD47R,0.762X0.914*%
%ADD48R,3.853X2.253*%
%ADD49R,1.703X1.603*%
%ADD50R,1.003X1.103*%
%ADD51R,1.253X0.803*%
%ADD52R,3.503X1.303*%
%ADD53R,2.353X1.103*%
%ADD54R,2.353X3.403*%
%ADD55O,2.253X0.803*%
%ADD56O,0.803X2.253*%
%ADD57R,1.103X1.003*%
%ADD58R,1.453X2.153*%
%ADD59R,2.453X2.303*%
%ADD60O,1.753X0.453*%
%ADD61R,0.903X1.103*%
%ADD62R,1.103X0.903*%
%ADD63R,3.203X1.203*%
%ADD64R,1.103X1.203*%
%ADD65R,2.103X2.603*%
%ADD66R,2.103X2.503*%
%ADD67R,1.603X0.603*%
%ADD68C,1.703*%
%ADD69R,1.703X1.703*%
%ADD70R,1.703X1.703*%
G54D36*
X47000Y42000D02*
D03*
X3000D02*
D03*
X47000Y3000D02*
D03*
X3000D02*
D03*
G54D47*
X25517Y35086D02*
D03*
Y36914D02*
D03*
X26483D02*
D03*
Y35086D02*
D03*
G54D48*
X36000Y41000D02*
D03*
X31000D02*
D03*
X19000D02*
D03*
X14000D02*
D03*
X9000D02*
D03*
X41000D02*
D03*
X25000D02*
D03*
G54D49*
X30200Y37000D02*
D03*
Y35000D02*
D03*
X14800Y37000D02*
D03*
Y35000D02*
D03*
X12000D02*
D03*
Y37000D02*
D03*
X33000Y35000D02*
D03*
Y37000D02*
D03*
G54D50*
X39700Y7600D02*
D03*
X38300D02*
D03*
X39700Y12600D02*
D03*
X38300D02*
D03*
X39700Y17600D02*
D03*
X38300D02*
D03*
X39700Y22600D02*
D03*
X38300D02*
D03*
X42300Y34400D02*
D03*
X43700D02*
D03*
X2700Y10000D02*
D03*
X1300D02*
D03*
X2700Y8000D02*
D03*
X1300D02*
D03*
X2700Y28000D02*
D03*
X1300D02*
D03*
X2700Y26000D02*
D03*
X1300D02*
D03*
G54D51*
X14325Y31050D02*
D03*
Y32000D02*
D03*
Y32950D02*
D03*
X11675D02*
D03*
Y32000D02*
D03*
Y31050D02*
D03*
X30675Y32950D02*
D03*
Y32000D02*
D03*
Y31050D02*
D03*
X33325D02*
D03*
Y32000D02*
D03*
Y32950D02*
D03*
G54D52*
X8000Y31150D02*
D03*
Y36850D02*
D03*
X37000D02*
D03*
Y31150D02*
D03*
G54D53*
X13925Y22700D02*
D03*
Y25000D02*
D03*
Y27300D02*
D03*
G54D54*
X8075Y25000D02*
D03*
G54D55*
X17300Y19000D02*
D03*
Y18200D02*
D03*
Y17400D02*
D03*
Y16600D02*
D03*
Y15800D02*
D03*
Y15000D02*
D03*
Y14200D02*
D03*
Y13400D02*
D03*
Y12600D02*
D03*
Y11800D02*
D03*
Y11000D02*
D03*
X28700D02*
D03*
Y11800D02*
D03*
Y12600D02*
D03*
Y13400D02*
D03*
Y14200D02*
D03*
Y15000D02*
D03*
Y15800D02*
D03*
Y16600D02*
D03*
Y17400D02*
D03*
Y18200D02*
D03*
Y19000D02*
D03*
G54D56*
X19000Y9300D02*
D03*
X19800D02*
D03*
X20600D02*
D03*
X21400D02*
D03*
X22200D02*
D03*
X23000D02*
D03*
X23800D02*
D03*
X24600D02*
D03*
X25400D02*
D03*
X26200D02*
D03*
X27000D02*
D03*
Y20700D02*
D03*
X26200D02*
D03*
X25400D02*
D03*
X24600D02*
D03*
X23800D02*
D03*
X23000D02*
D03*
X22200D02*
D03*
X21400D02*
D03*
X20600D02*
D03*
X19800D02*
D03*
X19000D02*
D03*
G54D57*
X16400Y22500D02*
D03*
Y23900D02*
D03*
X17000Y35300D02*
D03*
Y36700D02*
D03*
X28000Y35300D02*
D03*
Y36700D02*
D03*
X29000Y31300D02*
D03*
Y32700D02*
D03*
X16000Y32700D02*
D03*
Y31300D02*
D03*
G54D58*
X17000Y25775D02*
D03*
Y28225D02*
D03*
G54D59*
X19275Y36000D02*
D03*
X22725D02*
D03*
G54D60*
X40975Y33000D02*
D03*
Y32500D02*
D03*
Y32000D02*
D03*
Y31500D02*
D03*
Y31000D02*
D03*
X45025Y33000D02*
D03*
Y32500D02*
D03*
Y32000D02*
D03*
Y31500D02*
D03*
Y31000D02*
D03*
X41025Y9000D02*
D03*
Y9500D02*
D03*
Y10000D02*
D03*
Y10500D02*
D03*
Y11000D02*
D03*
X36975Y9000D02*
D03*
Y9500D02*
D03*
Y10000D02*
D03*
Y10500D02*
D03*
Y11000D02*
D03*
X41025Y14000D02*
D03*
Y14500D02*
D03*
Y15000D02*
D03*
Y15500D02*
D03*
Y16000D02*
D03*
X36975Y14000D02*
D03*
Y14500D02*
D03*
Y15000D02*
D03*
Y15500D02*
D03*
Y16000D02*
D03*
X41025Y19000D02*
D03*
Y19500D02*
D03*
Y20000D02*
D03*
Y20500D02*
D03*
Y21000D02*
D03*
X36975Y19000D02*
D03*
Y19500D02*
D03*
Y20000D02*
D03*
Y20500D02*
D03*
Y21000D02*
D03*
X41025Y24000D02*
D03*
Y24500D02*
D03*
Y25000D02*
D03*
Y25500D02*
D03*
Y26000D02*
D03*
X36975Y24000D02*
D03*
Y24500D02*
D03*
Y25000D02*
D03*
Y25500D02*
D03*
Y26000D02*
D03*
G54D61*
X42250Y36000D02*
D03*
X43750D02*
D03*
X4250Y10000D02*
D03*
X5750D02*
D03*
X4250Y8000D02*
D03*
X5750D02*
D03*
X43750Y29600D02*
D03*
X42250D02*
D03*
X4250Y28000D02*
D03*
X5750D02*
D03*
X4250Y26000D02*
D03*
X5750D02*
D03*
G54D62*
X47800Y32750D02*
D03*
Y31250D02*
D03*
G54D63*
X9100Y6000D02*
D03*
X14900D02*
D03*
X9100Y2000D02*
D03*
X14900D02*
D03*
G54D64*
X7600Y16800D02*
D03*
X9200D02*
D03*
X7600Y18400D02*
D03*
X9200D02*
D03*
X23000Y5000D02*
D03*
X21400D02*
D03*
X22200Y6800D02*
D03*
X20600D02*
D03*
G54D65*
X20350Y2600D02*
D03*
X24450D02*
D03*
G54D66*
X2000Y14250D02*
D03*
Y21750D02*
D03*
G54D67*
X4850Y16700D02*
D03*
Y17350D02*
D03*
Y18650D02*
D03*
Y18000D02*
D03*
Y19300D02*
D03*
G54D68*
X48000Y21120D02*
D03*
Y23660D02*
D03*
Y7460D02*
D03*
X11860Y15480D02*
D03*
X14400D02*
D03*
X11860Y12940D02*
D03*
X14400D02*
D03*
X11860Y10400D02*
D03*
X40260Y3000D02*
D03*
X37720D02*
D03*
X35180D02*
D03*
G54D69*
X48000Y26200D02*
D03*
Y10000D02*
D03*
X14400Y10400D02*
D03*
G54D70*
X42800Y3000D02*
D03*
M02*
