%FSLAX43Y43*%
%MOMM*%
G71*
G01*
G75*
G04 Layer_Color=32896*
%ADD10R,0.559X0.711*%
%ADD11R,3.650X2.050*%
%ADD12R,1.500X1.400*%
%ADD13R,0.800X0.900*%
%ADD14R,1.050X0.600*%
%ADD15R,3.300X1.100*%
%ADD16R,2.150X0.900*%
%ADD17R,2.150X3.200*%
%ADD18O,2.050X0.600*%
%ADD19O,0.600X2.050*%
%ADD20R,0.900X0.800*%
%ADD21R,1.250X1.950*%
%ADD22R,2.250X2.100*%
%ADD23O,1.550X0.250*%
%ADD24R,0.700X0.900*%
%ADD25R,0.900X0.700*%
%ADD26R,3.000X1.000*%
%ADD27R,0.900X1.000*%
%ADD28R,1.900X2.400*%
%ADD29R,1.900X2.300*%
%ADD30R,1.400X0.400*%
%ADD31C,0.400*%
%ADD32C,0.200*%
%ADD33C,1.500*%
%ADD34R,1.500X1.500*%
%ADD35R,1.500X1.500*%
%ADD36C,5.000*%
%ADD37C,0.600*%
%ADD38C,1.000*%
%ADD39R,0.450X0.900*%
%ADD40R,0.600X1.000*%
%ADD41R,3.300X1.400*%
%ADD42C,0.250*%
%ADD43C,0.600*%
%ADD44C,0.100*%
%ADD45C,0.254*%
%ADD46C,0.203*%
%ADD47R,0.762X0.914*%
%ADD48R,3.853X2.253*%
%ADD49R,1.703X1.603*%
%ADD50R,1.003X1.103*%
%ADD51R,1.253X0.803*%
%ADD52R,3.503X1.303*%
%ADD53R,2.353X1.103*%
%ADD54R,2.353X3.403*%
%ADD55O,2.253X0.803*%
%ADD56O,0.803X2.253*%
%ADD57R,1.103X1.003*%
%ADD58R,1.453X2.153*%
%ADD59R,2.453X2.303*%
%ADD60O,1.753X0.453*%
%ADD61R,0.903X1.103*%
%ADD62R,1.103X0.903*%
%ADD63R,3.203X1.203*%
%ADD64R,1.103X1.203*%
%ADD65R,2.103X2.603*%
%ADD66R,2.103X2.503*%
%ADD67R,1.603X0.603*%
%ADD68C,1.703*%
%ADD69R,1.703X1.703*%
%ADD70R,1.703X1.703*%
%ADD71R,0.653X1.103*%
%ADD72R,0.803X1.203*%
%ADD73R,3.503X1.603*%
G54D32*
X42100Y7300D02*
X42275D01*
X42100Y5500D02*
X42275D01*
X43325Y7300D02*
X43500D01*
X43325Y5500D02*
X43500D01*
X42100D02*
Y7300D01*
X43500Y5500D02*
Y7300D01*
X39500D02*
X39675D01*
X39500Y5500D02*
X39675D01*
X40725Y7300D02*
X40900D01*
X40725Y5500D02*
X40900D01*
X39500D02*
Y7300D01*
X40900Y5500D02*
Y7300D01*
X34500D02*
X34675D01*
X34500Y5500D02*
X34675D01*
X35725Y7300D02*
X35900D01*
X35725Y5500D02*
X35900D01*
X34500D02*
Y7300D01*
X35900Y5500D02*
Y7300D01*
X27900Y35500D02*
Y36500D01*
X27100D02*
X27900D01*
X24900Y35500D02*
Y36500D01*
X25700D01*
X27750Y31800D02*
Y32200D01*
X27050Y31800D02*
Y32200D01*
X26400Y21950D02*
X26800D01*
X26400Y21250D02*
X26800D01*
X21450Y14200D02*
Y15800D01*
X24550Y14200D02*
Y15800D01*
X18150Y15150D02*
Y15250D01*
X17450Y15150D02*
Y15250D01*
X37000Y9150D02*
X37400D01*
X37000Y8450D02*
X37400D01*
X12650Y6800D02*
Y7200D01*
X13350Y6800D02*
Y7200D01*
X37000Y14150D02*
X37400D01*
X37000Y13450D02*
X37400D01*
X37000Y19150D02*
X37400D01*
X37000Y18450D02*
X37400D01*
X37000Y24150D02*
X37400D01*
X37000Y23450D02*
X37400D01*
X37100Y7300D02*
X37275D01*
X37100Y5500D02*
X37275D01*
X38325Y7300D02*
X38500D01*
X38325Y5500D02*
X38500D01*
X37100D02*
Y7300D01*
X38500Y5500D02*
Y7300D01*
G54D42*
X28325Y34600D02*
G03*
X28325Y34600I-125J0D01*
G01*
G54D44*
X43375Y4950D02*
G03*
X43375Y4950I-50J0D01*
G01*
X40775D02*
G03*
X40775Y4950I-50J0D01*
G01*
X35775D02*
G03*
X35775Y4950I-50J0D01*
G01*
X38375D02*
G03*
X38375Y4950I-50J0D01*
G01*
X4125Y20100D02*
G03*
X4125Y20100I-50J0D01*
G01*
G54D45*
X21334Y22233D02*
X21500Y22400D01*
X21833D01*
X22000Y22233D01*
Y21567D01*
X21833Y21400D01*
X21500D01*
X21334Y21567D01*
X21000Y21400D02*
X20667D01*
X20834D01*
Y22400D01*
X21000Y22233D01*
X29134Y20433D02*
X29300Y20600D01*
X29633D01*
X29800Y20433D01*
Y19767D01*
X29633Y19600D01*
X29300D01*
X29134Y19767D01*
X28300Y19600D02*
Y20600D01*
X28800Y20100D01*
X28134D01*
X21228Y8633D02*
X21394Y8800D01*
X21728D01*
X21894Y8633D01*
Y7967D01*
X21728Y7800D01*
X21394D01*
X21228Y7967D01*
X20228Y8800D02*
X20894D01*
Y8300D01*
X20561Y8466D01*
X20395D01*
X20228Y8300D01*
Y7967D01*
X20395Y7800D01*
X20728D01*
X20894Y7967D01*
X28633Y8666D02*
X28800Y8500D01*
Y8167D01*
X28633Y8000D01*
X27967D01*
X27800Y8167D01*
Y8500D01*
X27967Y8666D01*
X28800Y9666D02*
X28633Y9333D01*
X28300Y9000D01*
X27967D01*
X27800Y9166D01*
Y9500D01*
X27967Y9666D01*
X28133D01*
X28300Y9500D01*
Y9000D01*
X18734Y22233D02*
X18900Y22400D01*
X19233D01*
X19400Y22233D01*
Y21567D01*
X19233Y21400D01*
X18900D01*
X18734Y21567D01*
X18400Y22400D02*
X17734D01*
Y22233D01*
X18400Y21567D01*
Y21400D01*
X16399Y17266D02*
X16565Y17100D01*
Y16767D01*
X16399Y16600D01*
X15732D01*
X15566Y16767D01*
Y17100D01*
X15732Y17266D01*
X15566Y17600D02*
Y17933D01*
Y17766D01*
X16565D01*
X16399Y17600D01*
Y18433D02*
X16565Y18599D01*
Y18933D01*
X16399Y19099D01*
X15732D01*
X15566Y18933D01*
Y18599D01*
X15732Y18433D01*
X16399D01*
X18033Y12066D02*
X18200Y11900D01*
Y11567D01*
X18033Y11400D01*
X17367D01*
X17200Y11567D01*
Y11900D01*
X17367Y12066D01*
X17200Y12400D02*
Y12733D01*
Y12566D01*
X18200D01*
X18033Y12400D01*
X17200Y13233D02*
Y13566D01*
Y13399D01*
X18200D01*
X18033Y13233D01*
X11233Y3466D02*
X11400Y3300D01*
Y2967D01*
X11233Y2800D01*
X10567D01*
X10400Y2967D01*
Y3300D01*
X10567Y3466D01*
X10400Y3800D02*
Y4133D01*
Y3966D01*
X11400D01*
X11233Y3800D01*
X11400Y5299D02*
X11233Y4966D01*
X10900Y4633D01*
X10567D01*
X10400Y4799D01*
Y5133D01*
X10567Y5299D01*
X10733D01*
X10900Y5133D01*
Y4633D01*
X43200Y8600D02*
X42200D01*
Y9100D01*
X42367Y9266D01*
X43033D01*
X43200Y9100D01*
Y8600D01*
X43033Y9600D02*
X43200Y9766D01*
Y10100D01*
X43033Y10266D01*
X42866D01*
X42700Y10100D01*
Y9933D01*
Y10100D01*
X42533Y10266D01*
X42367D01*
X42200Y10100D01*
Y9766D01*
X42367Y9600D01*
X41400Y8600D02*
X40400D01*
Y9100D01*
X40567Y9266D01*
X41233D01*
X41400Y9100D01*
Y8600D01*
X40400Y10100D02*
X41400D01*
X40900Y9600D01*
Y10266D01*
X39800Y8600D02*
X38800D01*
Y9100D01*
X38967Y9266D01*
X39633D01*
X39800Y9100D01*
Y8600D01*
Y10266D02*
Y9600D01*
X39300D01*
X39466Y9933D01*
Y10100D01*
X39300Y10266D01*
X38967D01*
X38800Y10100D01*
Y9766D01*
X38967Y9600D01*
X35600Y8600D02*
X34600D01*
Y9100D01*
X34767Y9266D01*
X35433D01*
X35600Y9100D01*
Y8600D01*
Y10266D02*
X35433Y9933D01*
X35100Y9600D01*
X34767D01*
X34600Y9766D01*
Y10100D01*
X34767Y10266D01*
X34933D01*
X35100Y10100D01*
Y9600D01*
X23600Y19000D02*
Y18000D01*
X22934D01*
X22600D02*
X22267D01*
X22434D01*
Y19000D01*
X22600Y18833D01*
X29334Y35567D02*
Y36233D01*
X29500Y36400D01*
X29833D01*
X30000Y36233D01*
Y35567D01*
X29833Y35400D01*
X29500D01*
X29667Y35733D02*
X29334Y35400D01*
X29500D02*
X29334Y35567D01*
X29000Y35400D02*
X28667D01*
X28834D01*
Y36400D01*
X29000Y36233D01*
X29600Y21200D02*
Y22200D01*
X29100D01*
X28934Y22033D01*
Y21700D01*
X29100Y21533D01*
X29600D01*
X29267D02*
X28934Y21200D01*
X28600D02*
X28267D01*
X28434D01*
Y22200D01*
X28600Y22033D01*
X40400Y23400D02*
Y24400D01*
X39900D01*
X39734Y24233D01*
Y23900D01*
X39900Y23733D01*
X40400D01*
X40067D02*
X39734Y23400D01*
X38734D02*
X39400D01*
X38734Y24066D01*
Y24233D01*
X38900Y24400D01*
X39234D01*
X39400Y24233D01*
X40400Y18400D02*
Y19400D01*
X39900D01*
X39734Y19233D01*
Y18900D01*
X39900Y18733D01*
X40400D01*
X40067D02*
X39734Y18400D01*
X39400Y19233D02*
X39234Y19400D01*
X38900D01*
X38734Y19233D01*
Y19066D01*
X38900Y18900D01*
X39067D01*
X38900D01*
X38734Y18733D01*
Y18567D01*
X38900Y18400D01*
X39234D01*
X39400Y18567D01*
X40400Y13200D02*
Y14200D01*
X39900D01*
X39734Y14033D01*
Y13700D01*
X39900Y13533D01*
X40400D01*
X40067D02*
X39734Y13200D01*
X38900D02*
Y14200D01*
X39400Y13700D01*
X38734D01*
X12600Y3600D02*
X13600D01*
Y4100D01*
X13433Y4266D01*
X13100D01*
X12933Y4100D01*
Y3600D01*
Y3933D02*
X12600Y4266D01*
X13600Y5266D02*
X13433Y4933D01*
X13100Y4600D01*
X12767D01*
X12600Y4766D01*
Y5100D01*
X12767Y5266D01*
X12933D01*
X13100Y5100D01*
Y4600D01*
X27000Y27800D02*
X28000D01*
Y28300D01*
X27833Y28466D01*
X27500D01*
X27333Y28300D01*
Y27800D01*
Y28133D02*
X27000Y28466D01*
Y28800D02*
Y29133D01*
Y28966D01*
X28000D01*
X27833Y28800D01*
Y29633D02*
X28000Y29799D01*
Y30133D01*
X27833Y30299D01*
X27666D01*
X27500Y30133D01*
X27333Y30299D01*
X27167D01*
X27000Y30133D01*
Y29799D01*
X27167Y29633D01*
X27333D01*
X27500Y29799D01*
X27666Y29633D01*
X27833D01*
X27500Y29799D02*
Y30133D01*
X38000Y9800D02*
Y10800D01*
X37500D01*
X37334Y10633D01*
Y10300D01*
X37500Y10133D01*
X38000D01*
X37667D02*
X37334Y9800D01*
X36334Y10800D02*
X37000D01*
Y10300D01*
X36667Y10466D01*
X36500D01*
X36334Y10300D01*
Y9967D01*
X36500Y9800D01*
X36834D01*
X37000Y9967D01*
X3433Y17466D02*
X3600Y17300D01*
Y16967D01*
X3433Y16800D01*
X2767D01*
X2600Y16967D01*
Y17300D01*
X2767Y17466D01*
X2600Y17800D02*
Y18133D01*
Y17966D01*
X3600D01*
X3433Y17800D01*
Y18633D02*
X3600Y18799D01*
Y19133D01*
X3433Y19299D01*
X3266D01*
X3100Y19133D01*
X2933Y19299D01*
X2767D01*
X2600Y19133D01*
Y18799D01*
X2767Y18633D01*
X2933D01*
X3100Y18799D01*
X3266Y18633D01*
X3433D01*
X3100Y18799D02*
Y19133D01*
X16734Y26800D02*
X17400D01*
X16734Y27466D01*
Y27633D01*
X16900Y27800D01*
X17233D01*
X17400Y27633D01*
X16400D02*
X16234Y27800D01*
X15900D01*
X15734Y27633D01*
Y26967D01*
X15900Y26800D01*
X16234D01*
X16400Y26967D01*
Y27633D01*
X15401Y26800D02*
X15067D01*
X15234D01*
Y27800D01*
X15401Y27633D01*
X14068Y26800D02*
Y27800D01*
X14568Y27300D01*
X13901D01*
X13568Y26800D02*
X12901Y27466D01*
X11902Y26800D02*
X12568D01*
X11902Y27466D01*
Y27633D01*
X12068Y27800D01*
X12402D01*
X12568Y27633D01*
X11569D02*
X11402Y27800D01*
X11069D01*
X10902Y27633D01*
Y26967D01*
X11069Y26800D01*
X11402D01*
X11569Y26967D01*
Y27633D01*
X10569Y26800D02*
X10236D01*
X10402D01*
Y27800D01*
X10569Y27633D01*
X9069Y27800D02*
X9736D01*
Y27300D01*
X9403Y27466D01*
X9236D01*
X9069Y27300D01*
Y26967D01*
X9236Y26800D01*
X9569D01*
X9736Y26967D01*
X22000Y29600D02*
Y28767D01*
X21833Y28600D01*
X21500D01*
X21334Y28767D01*
Y29600D01*
X21000Y28600D02*
Y29266D01*
X20500D01*
X20334Y29100D01*
Y28600D01*
X20001D02*
X19667D01*
X19834D01*
Y29266D01*
X20001D01*
X19168D02*
X18834Y28600D01*
X18501Y29266D01*
X17668Y28600D02*
X18001D01*
X18168Y28767D01*
Y29100D01*
X18001Y29266D01*
X17668D01*
X17501Y29100D01*
Y28933D01*
X18168D01*
X17168Y29266D02*
Y28600D01*
Y28933D01*
X17002Y29100D01*
X16835Y29266D01*
X16668D01*
X16169Y28600D02*
X15669D01*
X15502Y28767D01*
X15669Y28933D01*
X16002D01*
X16169Y29100D01*
X16002Y29266D01*
X15502D01*
X15169Y28600D02*
X14836D01*
X15002D01*
Y29266D01*
X15169D01*
X14169Y29433D02*
Y29266D01*
X14336D01*
X14003D01*
X14169D01*
Y28767D01*
X14003Y28600D01*
X13503Y29266D02*
Y28767D01*
X13336Y28600D01*
X12836D01*
Y28433D01*
X13003Y28267D01*
X13170D01*
X12836Y28600D02*
Y29266D01*
X11337Y28600D02*
X11004D01*
X10837Y28767D01*
Y29100D01*
X11004Y29266D01*
X11337D01*
X11503Y29100D01*
Y28767D01*
X11337Y28600D01*
X10337D02*
Y29433D01*
Y29100D01*
X10504D01*
X10170D01*
X10337D01*
Y29433D01*
X10170Y29600D01*
X8671D02*
X8005D01*
X8338D01*
Y28600D01*
X7505Y29266D02*
X7171D01*
X7005Y29100D01*
Y28600D01*
X7505D01*
X7671Y28767D01*
X7505Y28933D01*
X7005D01*
X6672Y29266D02*
Y28600D01*
Y28933D01*
X6505Y29100D01*
X6338Y29266D01*
X6172D01*
X5505Y29433D02*
Y29266D01*
X5672D01*
X5339D01*
X5505D01*
Y28767D01*
X5339Y28600D01*
X4839Y29266D02*
Y28767D01*
X4672Y28600D01*
X4172D01*
Y29266D01*
X18000Y30200D02*
Y31200D01*
X17667Y30866D01*
X17334Y31200D01*
Y30200D01*
X16834Y30866D02*
X16500D01*
X16334Y30700D01*
Y30200D01*
X16834D01*
X17000Y30367D01*
X16834Y30533D01*
X16334D01*
X16001Y30866D02*
Y30200D01*
Y30533D01*
X15834Y30700D01*
X15667Y30866D01*
X15501D01*
X15001Y30200D02*
Y31200D01*
Y30533D02*
X14501Y30866D01*
X15001Y30533D02*
X14501Y30200D01*
X13002Y31200D02*
Y30200D01*
X12335D01*
X11835Y30866D02*
X11502D01*
X11335Y30700D01*
Y30200D01*
X11835D01*
X12002Y30367D01*
X11835Y30533D01*
X11335D01*
X10836Y30866D02*
X10502D01*
X10336Y30700D01*
Y30200D01*
X10836D01*
X11002Y30367D01*
X10836Y30533D01*
X10336D01*
X10003Y30200D02*
Y30866D01*
X9503D01*
X9336Y30700D01*
Y30200D01*
X8503D02*
X8836D01*
X9003Y30367D01*
Y30700D01*
X8836Y30866D01*
X8503D01*
X8336Y30700D01*
Y30533D01*
X9003D01*
M02*
