%FSLAX43Y43*%
%MOMM*%
G71*
G01*
G75*
G04 Layer_Physical_Order=1*
G04 Layer_Color=255*
%ADD10R,0.559X0.711*%
%ADD11R,3.650X2.050*%
%ADD12R,1.500X1.400*%
%ADD13R,0.800X0.900*%
%ADD14R,1.050X0.600*%
%ADD15R,3.300X1.100*%
%ADD16R,2.150X0.900*%
%ADD17R,2.150X3.200*%
%ADD18O,2.050X0.600*%
%ADD19O,0.600X2.050*%
%ADD20R,0.900X0.800*%
%ADD21R,1.250X1.950*%
%ADD22R,2.250X2.100*%
%ADD23O,1.550X0.250*%
%ADD24R,0.700X0.900*%
%ADD25R,0.900X0.700*%
%ADD26R,3.000X1.000*%
%ADD27R,0.900X1.000*%
%ADD28R,1.900X2.400*%
%ADD29R,1.900X2.300*%
%ADD30R,1.400X0.400*%
%ADD31C,0.400*%
%ADD32C,0.200*%
%ADD33C,1.500*%
%ADD34R,1.500X1.500*%
%ADD35R,1.500X1.500*%
%ADD36C,5.000*%
%ADD37C,0.600*%
%ADD38C,1.000*%
G36*
X27792Y20569D02*
X27627Y20404D01*
X27510Y20452D01*
Y21425D01*
X27471Y21620D01*
X27360Y21785D01*
X27195Y21896D01*
X27000Y21935D01*
X26805Y21896D01*
X26690Y21820D01*
X26600Y21796D01*
X26510Y21820D01*
X26395Y21896D01*
X26300Y21915D01*
Y20700D01*
Y19485D01*
X26395Y19504D01*
X26530Y19441D01*
X26538Y19409D01*
X26529Y19395D01*
X26490Y19200D01*
X26529Y19005D01*
X26592Y18910D01*
Y16169D01*
X25916Y15493D01*
X25805Y15471D01*
X25640Y15360D01*
X25529Y15195D01*
X25490Y15000D01*
X25529Y14805D01*
X25640Y14640D01*
X25805Y14529D01*
X26000Y14490D01*
X26195Y14529D01*
X26360Y14640D01*
X26471Y14805D01*
X26493Y14916D01*
X27288Y15712D01*
X27288Y15712D01*
X27345Y15796D01*
X27473Y15760D01*
X27504Y15605D01*
X27580Y15490D01*
X27604Y15400D01*
X27580Y15310D01*
X27504Y15195D01*
X27465Y15000D01*
X27504Y14805D01*
X27580Y14690D01*
X27604Y14600D01*
X27580Y14510D01*
X27504Y14395D01*
X27465Y14200D01*
X27504Y14005D01*
X27580Y13890D01*
X27604Y13800D01*
X27580Y13710D01*
X27504Y13595D01*
X27465Y13400D01*
X27504Y13205D01*
X27580Y13090D01*
X27604Y13000D01*
X27580Y12910D01*
X27504Y12795D01*
X27465Y12600D01*
X27504Y12405D01*
X27441Y12270D01*
X27409Y12262D01*
X27395Y12271D01*
X27284Y12293D01*
X25208Y14369D01*
Y16231D01*
X25284Y16307D01*
X25395Y16329D01*
X25560Y16440D01*
X25671Y16605D01*
X25710Y16800D01*
X25671Y16995D01*
X25560Y17160D01*
X25395Y17271D01*
X25200Y17310D01*
X25005Y17271D01*
X24840Y17160D01*
X24729Y16995D01*
X24707Y16884D01*
X24512Y16688D01*
X24423Y16556D01*
X24418Y16530D01*
X24392Y16400D01*
X24392Y16400D01*
Y14200D01*
X24392Y14200D01*
X24418Y14070D01*
X24423Y14044D01*
X24512Y13912D01*
X26707Y11716D01*
X26729Y11605D01*
X26840Y11440D01*
X27005Y11329D01*
X27200Y11290D01*
X27395Y11329D01*
X27409Y11338D01*
X27441Y11330D01*
X27504Y11195D01*
X27485Y11100D01*
X29915D01*
X29896Y11195D01*
X29820Y11310D01*
X29796Y11400D01*
X29820Y11490D01*
X29896Y11605D01*
X29935Y11800D01*
X29896Y11995D01*
X29820Y12110D01*
X29802Y12175D01*
X29891Y12294D01*
X31047D01*
X31917Y11134D01*
X31890Y11000D01*
X31929Y10805D01*
X32040Y10640D01*
X32205Y10529D01*
X32400Y10490D01*
X32595Y10529D01*
X32665Y10576D01*
X32792Y10508D01*
Y9292D01*
X32665Y9224D01*
X32595Y9271D01*
X32400Y9310D01*
X32205Y9271D01*
X32040Y9160D01*
X31929Y8995D01*
X31890Y8800D01*
X31903Y8736D01*
X31273Y8106D01*
X27409D01*
X27373Y8233D01*
X27471Y8380D01*
X27510Y8575D01*
Y8605D01*
X27637Y8644D01*
X27640Y8640D01*
X27805Y8529D01*
X28000Y8490D01*
X28195Y8529D01*
X28360Y8640D01*
X28471Y8805D01*
X28510Y9000D01*
X28471Y9195D01*
X28360Y9360D01*
X28195Y9471D01*
X28000Y9510D01*
X27936Y9497D01*
X27916Y9516D01*
X27817Y9583D01*
X27700Y9606D01*
X27700Y9606D01*
X27510D01*
Y10025D01*
X27471Y10220D01*
X27360Y10385D01*
X27195Y10496D01*
X27000Y10535D01*
X26805Y10496D01*
X26690Y10420D01*
X26600Y10396D01*
X26510Y10420D01*
X26395Y10496D01*
X26200Y10535D01*
X26005Y10496D01*
X25890Y10420D01*
X25800Y10396D01*
X25710Y10420D01*
X25595Y10496D01*
X25400Y10535D01*
X25205Y10496D01*
X25090Y10420D01*
X25000Y10396D01*
X24910Y10420D01*
X24795Y10496D01*
X24600Y10535D01*
X24405Y10496D01*
X24290Y10420D01*
X24200Y10396D01*
X24110Y10420D01*
X23995Y10496D01*
X23800Y10535D01*
X23605Y10496D01*
X23490Y10420D01*
X23400Y10396D01*
X23310Y10420D01*
X23195Y10496D01*
X23000Y10535D01*
X22805Y10496D01*
X22690Y10420D01*
X22600Y10396D01*
X22510Y10420D01*
X22395Y10496D01*
X22200Y10535D01*
X22005Y10496D01*
X21890Y10420D01*
X21800Y10396D01*
X21710Y10420D01*
X21595Y10496D01*
X21500Y10515D01*
Y9300D01*
Y8085D01*
X21595Y8104D01*
X21710Y8180D01*
X21775Y8198D01*
X21894Y8128D01*
Y7500D01*
X21550D01*
Y6100D01*
X21894D01*
Y5700D01*
X21500D01*
Y5000D01*
Y4300D01*
X21701D01*
X21750Y4183D01*
X21612Y4044D01*
X21500Y4000D01*
Y4000D01*
X21500Y4000D01*
X19200D01*
Y1200D01*
X21500D01*
Y3067D01*
X22416Y3984D01*
X22416Y3984D01*
X22483Y4083D01*
X22506Y4200D01*
Y4300D01*
X22694D01*
Y4050D01*
X22694Y4050D01*
X22717Y3933D01*
X22784Y3834D01*
X23300Y3317D01*
Y1200D01*
X25600D01*
Y4000D01*
X23483D01*
X23310Y4173D01*
X23315Y4300D01*
X23650D01*
Y5700D01*
X23306D01*
Y6811D01*
X23433Y6849D01*
X23440Y6840D01*
X23605Y6729D01*
X23800Y6690D01*
X23864Y6703D01*
X24684Y5884D01*
X24684Y5884D01*
X24783Y5817D01*
X24900Y5794D01*
X26398D01*
Y400D01*
X18402D01*
Y7594D01*
X18529Y7607D01*
X18529Y7605D01*
X18640Y7440D01*
X18805Y7329D01*
X19000Y7290D01*
X19195Y7329D01*
X19360Y7440D01*
X19471Y7605D01*
X19510Y7800D01*
X19471Y7995D01*
X19416Y8078D01*
X19507Y8169D01*
X19605Y8104D01*
X19800Y8065D01*
X19995Y8104D01*
X20110Y8180D01*
X20200Y8204D01*
X20290Y8180D01*
X20405Y8104D01*
X20600Y8065D01*
X20795Y8104D01*
X20910Y8180D01*
X21000Y8204D01*
X21090Y8180D01*
X21205Y8104D01*
X21300Y8085D01*
Y9300D01*
Y10515D01*
X21205Y10496D01*
X21070Y10559D01*
X21062Y10591D01*
X21071Y10605D01*
X21110Y10800D01*
X21071Y10995D01*
X21008Y11090D01*
Y12738D01*
X21160Y12840D01*
X21271Y13005D01*
X21310Y13200D01*
X21271Y13395D01*
X21160Y13560D01*
X20995Y13671D01*
X20800Y13710D01*
X20605Y13671D01*
X20440Y13560D01*
X20329Y13395D01*
X20306Y13280D01*
X20223Y13156D01*
X20218Y13130D01*
X20192Y13000D01*
X20192Y13000D01*
Y11090D01*
X20129Y10995D01*
X20110Y10898D01*
X19973Y10860D01*
X19816Y11016D01*
X19717Y11083D01*
X19600Y11106D01*
X19600Y11106D01*
X18800D01*
X18683Y11083D01*
X18652Y11062D01*
X18511Y11119D01*
X18496Y11195D01*
X18420Y11310D01*
X18396Y11400D01*
X18420Y11490D01*
X18496Y11605D01*
X18535Y11800D01*
X18496Y11995D01*
X18420Y12110D01*
X18396Y12200D01*
X18420Y12290D01*
X18496Y12405D01*
X18535Y12600D01*
X18496Y12795D01*
X18420Y12910D01*
X18396Y13000D01*
X18420Y13090D01*
X18496Y13205D01*
X18535Y13400D01*
X18496Y13595D01*
X18449Y13665D01*
X18517Y13792D01*
X18990D01*
X18990Y13792D01*
X19120Y13818D01*
X19146Y13823D01*
X19278Y13912D01*
X19888Y14522D01*
X19888Y14522D01*
X19947Y14610D01*
X19977Y14654D01*
X20008Y14810D01*
X20008Y14810D01*
Y17246D01*
X20135Y17298D01*
X20373Y17061D01*
X20329Y16995D01*
X20290Y16800D01*
X20329Y16605D01*
X20440Y16440D01*
X20605Y16329D01*
X20800Y16290D01*
X20995Y16329D01*
X21160Y16440D01*
X21271Y16605D01*
X21310Y16800D01*
X21271Y16995D01*
X21208Y17090D01*
Y17210D01*
X21177Y17366D01*
X21088Y17498D01*
X21088Y17498D01*
X19489Y19097D01*
X19510Y19200D01*
X19471Y19395D01*
X19462Y19409D01*
X19470Y19441D01*
X19605Y19504D01*
X19700Y19485D01*
Y20700D01*
Y21915D01*
X19605Y21896D01*
X19490Y21820D01*
X19400Y21796D01*
X19310Y21820D01*
X19195Y21896D01*
X19000Y21935D01*
X18934Y21922D01*
X18871Y22039D01*
X20967Y24135D01*
X21094Y24082D01*
Y21891D01*
X20975Y21802D01*
X20910Y21820D01*
X20795Y21896D01*
X20600Y21935D01*
X20405Y21896D01*
X20290Y21820D01*
X20200Y21796D01*
X20110Y21820D01*
X19995Y21896D01*
X19900Y21915D01*
Y20700D01*
Y19485D01*
X19995Y19504D01*
X20130Y19441D01*
X20138Y19409D01*
X20129Y19395D01*
X20090Y19200D01*
X20129Y19005D01*
X20240Y18840D01*
X20405Y18729D01*
X20600Y18690D01*
X20795Y18729D01*
X20960Y18840D01*
X21071Y19005D01*
X21110Y19200D01*
X21071Y19395D01*
X21062Y19409D01*
X21070Y19441D01*
X21205Y19504D01*
X21400Y19465D01*
X21595Y19504D01*
X21710Y19580D01*
X21800Y19604D01*
X21890Y19580D01*
X22005Y19504D01*
X22200Y19465D01*
X22395Y19504D01*
X22510Y19580D01*
X22600Y19604D01*
X22690Y19580D01*
X22805Y19504D01*
X23000Y19465D01*
X23195Y19504D01*
X23310Y19580D01*
X23400Y19604D01*
X23490Y19580D01*
X23605Y19504D01*
X23800Y19465D01*
X23995Y19504D01*
X24110Y19580D01*
X24200Y19604D01*
X24290Y19580D01*
X24405Y19504D01*
X24600Y19465D01*
X24795Y19504D01*
X24910Y19580D01*
X25000Y19604D01*
X25090Y19580D01*
X25205Y19504D01*
X25400Y19465D01*
X25595Y19504D01*
X25710Y19580D01*
X25800Y19604D01*
X25890Y19580D01*
X26005Y19504D01*
X26100Y19485D01*
Y20700D01*
Y21915D01*
X26005Y21896D01*
X25890Y21820D01*
X25825Y21802D01*
X25706Y21872D01*
Y24753D01*
X25825Y24823D01*
X25890Y24805D01*
X26005Y24729D01*
X26200Y24690D01*
X26395Y24729D01*
X26560Y24840D01*
X26671Y25005D01*
X26710Y25200D01*
X26671Y25395D01*
X26560Y25560D01*
X26395Y25671D01*
X26353Y25679D01*
X26016Y26016D01*
X25917Y26083D01*
X25800Y26106D01*
X25800Y26106D01*
X21151D01*
X21034Y26083D01*
X20995Y26056D01*
X20935Y26016D01*
X20935Y26016D01*
X20584Y25665D01*
X20517Y25566D01*
X20494Y25449D01*
X20494Y25448D01*
Y24527D01*
X19100Y23133D01*
X18983Y23181D01*
Y26492D01*
X27792D01*
Y20569D01*
D02*
G37*
G36*
X42040Y23640D02*
X42205Y23529D01*
X42400Y23490D01*
X42595Y23529D01*
X42665Y23576D01*
X42792Y23508D01*
Y21692D01*
X42665Y21624D01*
X42595Y21671D01*
X42400Y21710D01*
X42205Y21671D01*
X42040Y21560D01*
X41929Y21395D01*
X41919Y21343D01*
X41834Y21316D01*
X41791Y21308D01*
X41675Y21331D01*
X40375D01*
X40248Y21306D01*
X40141Y21234D01*
X40069Y21127D01*
X40044Y21000D01*
X40069Y20873D01*
X40085Y20850D01*
X40133Y20750D01*
X40085Y20650D01*
X40069Y20627D01*
X40044Y20500D01*
X40069Y20373D01*
X40141Y20266D01*
Y20234D01*
X40069Y20127D01*
X40044Y20000D01*
X40069Y19873D01*
X40085Y19850D01*
X40133Y19750D01*
X40085Y19650D01*
X40069Y19627D01*
X40045Y19507D01*
X40042Y19499D01*
X39934Y19400D01*
X39894Y19408D01*
X39738Y19377D01*
X39606Y19288D01*
X39412Y19094D01*
X39323Y18962D01*
X39318Y18936D01*
X39292Y18806D01*
X39292Y18806D01*
Y18250D01*
X39100D01*
Y17077D01*
X39031Y17008D01*
X38900D01*
Y17500D01*
X37700D01*
Y17008D01*
X36159D01*
X36078Y17088D01*
X35946Y17177D01*
X35932Y17180D01*
X35795Y17271D01*
X35600Y17310D01*
X35405Y17271D01*
X35335Y17224D01*
X35208Y17292D01*
Y18308D01*
X35335Y18376D01*
X35405Y18329D01*
X35600Y18290D01*
X35795Y18329D01*
X35960Y18440D01*
X35997Y18494D01*
X36014D01*
X36014Y18494D01*
X36131Y18517D01*
X36230Y18584D01*
X36317Y18670D01*
X36325Y18669D01*
X37625D01*
X37752Y18694D01*
X37859Y18766D01*
X37931Y18873D01*
X37956Y19000D01*
X37931Y19127D01*
X37859Y19234D01*
Y19266D01*
X37931Y19373D01*
X37956Y19500D01*
X37931Y19627D01*
X37859Y19734D01*
Y19766D01*
X37931Y19873D01*
X37936Y19900D01*
X36975D01*
Y20100D01*
X37936D01*
X37931Y20127D01*
X37859Y20234D01*
Y20266D01*
X37931Y20373D01*
X37956Y20500D01*
X37931Y20627D01*
X37915Y20650D01*
X37867Y20750D01*
X37915Y20850D01*
X37931Y20873D01*
X37956Y21000D01*
X37943Y21065D01*
X38029Y21192D01*
X39400D01*
X39400Y21192D01*
X39530Y21218D01*
X39556Y21223D01*
X39688Y21312D01*
X39988Y21612D01*
X39988Y21612D01*
X40077Y21744D01*
X40108Y21900D01*
Y21950D01*
X40300D01*
Y23250D01*
X40108D01*
Y23531D01*
X40267Y23690D01*
X40375Y23669D01*
X41675D01*
X41802Y23694D01*
X41909Y23766D01*
X41955D01*
X42040Y23640D01*
D02*
G37*
G36*
Y18640D02*
X42205Y18529D01*
X42400Y18490D01*
X42595Y18529D01*
X42665Y18576D01*
X42792Y18508D01*
Y16692D01*
X42665Y16624D01*
X42595Y16671D01*
X42400Y16710D01*
X42205Y16671D01*
X42040Y16560D01*
X41929Y16395D01*
X41919Y16343D01*
X41834Y16316D01*
X41791Y16308D01*
X41675Y16331D01*
X40375D01*
X40248Y16306D01*
X40141Y16234D01*
X40069Y16127D01*
X40044Y16000D01*
X40069Y15873D01*
X40085Y15850D01*
X40133Y15750D01*
X40085Y15650D01*
X40069Y15627D01*
X40044Y15500D01*
X40069Y15373D01*
X40141Y15266D01*
Y15234D01*
X40069Y15127D01*
X40064Y15100D01*
X41025D01*
Y14900D01*
X40064D01*
X40069Y14873D01*
X40085Y14850D01*
X40133Y14750D01*
X40085Y14650D01*
X40069Y14627D01*
X40044Y14500D01*
X39935Y14395D01*
X39844Y14377D01*
X39712Y14288D01*
X39412Y13988D01*
X39323Y13856D01*
X39318Y13830D01*
X39292Y13700D01*
X39292Y13700D01*
Y13250D01*
X39100D01*
Y12077D01*
X39031Y12008D01*
X38900D01*
Y12500D01*
X37700D01*
Y12008D01*
X36159D01*
X36078Y12088D01*
X35946Y12177D01*
X35932Y12180D01*
X35795Y12271D01*
X35600Y12310D01*
X35405Y12271D01*
X35335Y12224D01*
X35208Y12292D01*
Y13308D01*
X35335Y13376D01*
X35405Y13329D01*
X35600Y13290D01*
X35795Y13329D01*
X35960Y13440D01*
X35997Y13494D01*
X36014D01*
X36014Y13494D01*
X36131Y13517D01*
X36230Y13584D01*
X36317Y13670D01*
X36325Y13669D01*
X37625D01*
X37752Y13694D01*
X37859Y13766D01*
X37931Y13873D01*
X37956Y14000D01*
X37931Y14127D01*
X37859Y14234D01*
Y14266D01*
X37931Y14373D01*
X37956Y14500D01*
X37931Y14627D01*
X37915Y14650D01*
X37867Y14750D01*
X37915Y14850D01*
X37931Y14873D01*
X37936Y14900D01*
X36975D01*
Y15100D01*
X37936D01*
X37931Y15127D01*
X37859Y15234D01*
Y15266D01*
X37931Y15373D01*
X37956Y15500D01*
X37931Y15627D01*
X37915Y15650D01*
X37867Y15750D01*
X37915Y15850D01*
X37931Y15873D01*
X37956Y16000D01*
X37943Y16065D01*
X38029Y16192D01*
X39200D01*
X39200Y16192D01*
X39330Y16218D01*
X39356Y16223D01*
X39488Y16312D01*
X39988Y16812D01*
X39988Y16812D01*
X40077Y16944D01*
X40078Y16950D01*
X40300D01*
Y18250D01*
X40108D01*
Y18637D01*
X40165Y18694D01*
X40248D01*
X40248Y18694D01*
X40375Y18669D01*
X41675D01*
X41802Y18694D01*
X41909Y18766D01*
X41955D01*
X42040Y18640D01*
D02*
G37*
G36*
X9912Y34712D02*
X9912Y34712D01*
X10044Y34623D01*
X10200Y34592D01*
X11050D01*
Y34100D01*
X12950D01*
Y34592D01*
X13850D01*
Y34100D01*
X15750D01*
Y34592D01*
X16700D01*
X16700Y34592D01*
X16830Y34618D01*
X16856Y34623D01*
X16971Y34700D01*
X17650D01*
Y34892D01*
X17950D01*
Y34750D01*
X20394D01*
Y32227D01*
X18673Y30506D01*
X15159D01*
X15050Y30550D01*
X15050Y30633D01*
Y30950D01*
X13600D01*
Y30633D01*
Y30612D01*
X13473Y30560D01*
X12766Y31266D01*
X12667Y31333D01*
X12550Y31356D01*
X12550Y31356D01*
X12400D01*
Y31500D01*
Y32450D01*
Y33450D01*
X10950D01*
Y33256D01*
X10577D01*
X8306Y35527D01*
Y36100D01*
X8523D01*
X9912Y34712D01*
D02*
G37*
G36*
X45915Y44473D02*
X45770Y44413D01*
X45408Y44191D01*
X45085Y43915D01*
X44809Y43592D01*
X44587Y43230D01*
X44424Y42837D01*
X44325Y42424D01*
X44292Y42000D01*
X44325Y41576D01*
X44424Y41163D01*
X44587Y40770D01*
X44809Y40408D01*
X45085Y40085D01*
X45408Y39809D01*
X45770Y39587D01*
X46163Y39424D01*
X46576Y39325D01*
X47000Y39292D01*
X47424Y39325D01*
X47837Y39424D01*
X48230Y39587D01*
X48592Y39809D01*
X48915Y40085D01*
X49191Y40408D01*
X49413Y40770D01*
X49473Y40915D01*
X49600Y40890D01*
X49600Y4110D01*
X49473Y4085D01*
X49413Y4230D01*
X49191Y4592D01*
X48915Y4915D01*
X48592Y5191D01*
X48230Y5413D01*
X47837Y5576D01*
X47424Y5675D01*
X47000Y5708D01*
X46576Y5675D01*
X46163Y5576D01*
X45864Y5452D01*
X45792Y5560D01*
X46216Y5984D01*
X46283Y6083D01*
X46306Y6200D01*
Y10293D01*
X46416Y10404D01*
X46416Y10404D01*
X46483Y10503D01*
X46506Y10620D01*
X46506Y10620D01*
Y16400D01*
X46506Y16400D01*
X46483Y16517D01*
X46416Y16616D01*
X46416Y16616D01*
X45706Y17327D01*
Y19254D01*
X45833Y19323D01*
X46000Y19290D01*
X46195Y19329D01*
X46360Y19440D01*
X46471Y19605D01*
X46510Y19800D01*
X46471Y19995D01*
X46408Y20090D01*
Y24509D01*
X46525Y24558D01*
X47104Y23979D01*
X47074Y23908D01*
X47042Y23660D01*
X47074Y23412D01*
X47170Y23181D01*
X47322Y22982D01*
X47521Y22830D01*
X47752Y22734D01*
X48000Y22702D01*
X48248Y22734D01*
X48479Y22830D01*
X48678Y22982D01*
X48830Y23181D01*
X48926Y23412D01*
X48958Y23660D01*
X48926Y23908D01*
X48830Y24139D01*
X48678Y24338D01*
X48479Y24490D01*
X48248Y24586D01*
X48000Y24618D01*
X47752Y24586D01*
X47681Y24556D01*
X47114Y25123D01*
X47166Y25250D01*
X48950D01*
Y27150D01*
X47135D01*
X47050Y27150D01*
X47008Y27260D01*
D01*
Y28708D01*
X47135Y28776D01*
X47205Y28729D01*
X47400Y28690D01*
X47595Y28729D01*
X47760Y28840D01*
X47871Y29005D01*
X47910Y29200D01*
X47897Y29264D01*
X49016Y30384D01*
X49016Y30384D01*
X49083Y30483D01*
X49106Y30600D01*
X49106Y30600D01*
Y33200D01*
X49083Y33317D01*
X49056Y33357D01*
X49016Y33416D01*
X49016Y33416D01*
X48616Y33816D01*
X48517Y33883D01*
X48400Y33906D01*
X48400Y33906D01*
X46520D01*
X44300Y36125D01*
Y36650D01*
X43200D01*
Y35350D01*
X44210D01*
X45897Y33664D01*
Y33536D01*
X45689Y33329D01*
X45675Y33331D01*
X44375D01*
X44248Y33306D01*
X44141Y33234D01*
X44069Y33127D01*
X44044Y33000D01*
X44069Y32873D01*
X44141Y32766D01*
Y32734D01*
X44069Y32627D01*
X44044Y32500D01*
X44069Y32373D01*
X44141Y32266D01*
Y32234D01*
X44069Y32127D01*
X44064Y32100D01*
X45025D01*
Y31900D01*
X44035D01*
X43973Y31806D01*
X43900D01*
X43900Y31806D01*
X43783Y31783D01*
X43744Y31757D01*
X43594Y31727D01*
X43553Y31700D01*
X43462Y31791D01*
X43471Y31805D01*
X43510Y32000D01*
X43471Y32195D01*
X43360Y32360D01*
X43195Y32471D01*
X43000Y32510D01*
X42805Y32471D01*
X42745Y32431D01*
X42488Y32688D01*
X42436Y32724D01*
Y32876D01*
X42488Y32912D01*
X42588Y33012D01*
X42588Y33012D01*
X42647Y33100D01*
X42677Y33144D01*
X42708Y33300D01*
X42708Y33300D01*
Y33750D01*
X42900D01*
Y35050D01*
X41700D01*
Y34377D01*
X41531Y34208D01*
X37820D01*
X37785Y34255D01*
X37762Y34330D01*
X39416Y35984D01*
X39416Y35984D01*
X39483Y36083D01*
X39506Y36200D01*
X39506Y36200D01*
Y37800D01*
X39483Y37917D01*
X39416Y38016D01*
X37775Y39658D01*
X37824Y39775D01*
X38025D01*
Y42225D01*
X33975D01*
Y39775D01*
X36792D01*
X38840Y37727D01*
X38788Y37600D01*
X35150D01*
Y36100D01*
X35507D01*
X35556Y35983D01*
X35181Y35608D01*
X33950D01*
Y35900D01*
X32050D01*
Y35708D01*
X31150D01*
Y35900D01*
X29250D01*
Y35708D01*
X28650D01*
Y35900D01*
X27350D01*
Y35493D01*
X26962D01*
Y35641D01*
X26124D01*
X26003Y35641D01*
X26000D01*
X25997D01*
X25876Y35641D01*
X25617D01*
Y35086D01*
Y34530D01*
X25876D01*
X25997Y34530D01*
X26000D01*
X26003D01*
X26124Y34530D01*
X26962D01*
Y34678D01*
X27786D01*
X27786Y34678D01*
X27897Y34700D01*
X28650D01*
Y34892D01*
X29250D01*
Y34100D01*
X31150D01*
Y34892D01*
X32050D01*
Y34100D01*
X33950D01*
Y34792D01*
X35350D01*
X35350Y34792D01*
X35480Y34818D01*
X35506Y34823D01*
X35638Y34912D01*
X36577Y35850D01*
X36694Y35801D01*
Y35127D01*
X34167Y32600D01*
X34050Y32649D01*
Y33450D01*
X32600D01*
Y33211D01*
X32534Y33166D01*
X32534Y33166D01*
X31784Y32416D01*
X31717Y32317D01*
X31694Y32200D01*
X31694Y32200D01*
Y30927D01*
X31517Y30750D01*
X31400Y30799D01*
Y31500D01*
Y31900D01*
X29950D01*
Y31500D01*
Y31458D01*
X29650D01*
Y31900D01*
X28350D01*
Y30700D01*
X28592D01*
Y30490D01*
X28529Y30395D01*
X28490Y30200D01*
X28523Y30033D01*
X28454Y29906D01*
X27672D01*
X27162Y30416D01*
X27063Y30483D01*
X26946Y30506D01*
X26946Y30506D01*
X24878D01*
X21606Y33778D01*
Y34750D01*
X24050D01*
Y36507D01*
X25038D01*
Y36359D01*
X25997D01*
X25997Y36359D01*
X25997D01*
X26003D01*
Y36359D01*
X26124Y36359D01*
X26962D01*
Y37470D01*
X26962Y37470D01*
X26962D01*
X26970Y37594D01*
X27011Y37647D01*
X27082Y37817D01*
X27106Y38000D01*
X27082Y38183D01*
X27011Y38353D01*
X26899Y38499D01*
X26811Y38567D01*
X26854Y38694D01*
X31000D01*
X31000Y38694D01*
X31117Y38717D01*
X31216Y38784D01*
X32208Y39775D01*
X33025D01*
Y42225D01*
X28975D01*
Y39775D01*
X31176D01*
X31225Y39658D01*
X30873Y39306D01*
X23000D01*
X23000Y39306D01*
X22883Y39283D01*
X22784Y39216D01*
X21084Y37516D01*
X21076Y37505D01*
X20924D01*
X20916Y37516D01*
X20306Y38127D01*
Y39775D01*
X21025D01*
Y42225D01*
X16975D01*
Y39775D01*
X19694D01*
Y38000D01*
X19694Y38000D01*
X19717Y37883D01*
X19784Y37784D01*
X20200Y37367D01*
X20151Y37250D01*
X17950D01*
Y35708D01*
X17650D01*
Y35900D01*
X16350D01*
Y35408D01*
X15750D01*
Y35900D01*
X13850D01*
Y35408D01*
X12950D01*
Y35900D01*
X11050D01*
Y35408D01*
X10369D01*
X9794Y35983D01*
X9843Y36100D01*
X9850D01*
Y37600D01*
X6150D01*
Y36100D01*
X7694D01*
Y35400D01*
X7694Y35400D01*
X7717Y35283D01*
X7784Y35184D01*
X10234Y32734D01*
X10333Y32667D01*
X10450Y32644D01*
X10950D01*
Y32450D01*
Y32030D01*
X10850Y31956D01*
X10733Y31933D01*
X10634Y31866D01*
X10634Y31866D01*
X10223Y31456D01*
X9850D01*
Y31900D01*
X7683D01*
X5906Y33677D01*
Y38273D01*
X6527Y38894D01*
X12200D01*
X12200Y38894D01*
X12317Y38917D01*
X12416Y38984D01*
X13208Y39775D01*
X16025D01*
Y42225D01*
X11975D01*
Y39775D01*
X12176D01*
X12225Y39658D01*
X12073Y39506D01*
X6400D01*
X6283Y39483D01*
X6184Y39416D01*
X5384Y38616D01*
X5317Y38517D01*
X5294Y38400D01*
X5294Y38400D01*
Y33550D01*
X5294Y33550D01*
X5317Y33433D01*
X5384Y33334D01*
X6700Y32017D01*
X6651Y31900D01*
X6150D01*
Y30400D01*
X7592D01*
Y30200D01*
X7592Y30200D01*
X7618Y30070D01*
X7623Y30044D01*
X7712Y29912D01*
X8190Y29433D01*
X8138Y29306D01*
X2000D01*
X2000Y29306D01*
X1883Y29283D01*
X1784Y29216D01*
X1784Y29216D01*
X1217Y28650D01*
X700D01*
Y27350D01*
X1900D01*
Y28447D01*
X1984Y28514D01*
X2100Y28464D01*
Y27350D01*
X3300D01*
Y27592D01*
X3700D01*
Y27350D01*
X4800D01*
Y28567D01*
X4800Y28650D01*
X4909Y28694D01*
X4909D01*
X5091D01*
X5200Y28650D01*
X5200Y28567D01*
Y28100D01*
X6300D01*
Y28567D01*
X6300Y28650D01*
X6409Y28694D01*
X6409D01*
X16098D01*
X16175Y28617D01*
Y27977D01*
X15906Y27708D01*
X15200D01*
Y27950D01*
X12650D01*
Y26650D01*
X15200D01*
Y26892D01*
X16075D01*
X16075Y26892D01*
X16077Y26893D01*
X16175Y26812D01*
Y25875D01*
X17825D01*
Y26950D01*
X17825Y26950D01*
Y26950D01*
Y27050D01*
X17825D01*
X17825Y27077D01*
Y27432D01*
X17942Y27481D01*
X18167Y27256D01*
Y23144D01*
X17167Y22144D01*
X17050Y22193D01*
Y23100D01*
X15750D01*
Y22908D01*
X15200D01*
Y23350D01*
X12650D01*
Y22050D01*
X15194D01*
X15279Y21956D01*
X14731Y21408D01*
X7900D01*
X7900Y21408D01*
X7744Y21377D01*
X7612Y21288D01*
X6923Y20600D01*
X6806Y20649D01*
Y23200D01*
X7975D01*
Y24900D01*
X6800D01*
Y24212D01*
X6673Y24160D01*
X5816Y25016D01*
X5717Y25083D01*
X5600Y25106D01*
X5600Y25106D01*
X2327D01*
X2210Y25223D01*
X2262Y25350D01*
X3300D01*
Y25592D01*
X3700D01*
Y25350D01*
X4800D01*
Y26650D01*
X3700D01*
Y26408D01*
X3300D01*
Y26650D01*
X2100D01*
Y25536D01*
X1984Y25486D01*
X1900Y25553D01*
Y26650D01*
X700D01*
Y25350D01*
X1217D01*
X1984Y24584D01*
X1984Y24584D01*
X2083Y24517D01*
X2200Y24494D01*
X2200Y24494D01*
X5473D01*
X6194Y23773D01*
Y20231D01*
X6147Y20211D01*
X6001Y20099D01*
X5889Y19953D01*
X5818Y19783D01*
X5808Y19708D01*
X4850D01*
X4811Y19700D01*
X3950D01*
Y18900D01*
Y18250D01*
Y17600D01*
Y16950D01*
Y16800D01*
X5750D01*
Y16950D01*
Y17600D01*
Y17694D01*
X6273D01*
X6950Y17017D01*
Y16100D01*
X8250D01*
Y17500D01*
X7333D01*
X7260Y17589D01*
X7307Y17700D01*
X8250D01*
Y18992D01*
X8550D01*
Y17700D01*
X9570D01*
X9600Y17694D01*
X14581D01*
X14630Y17632D01*
X14574Y17506D01*
X9600D01*
X9600Y17506D01*
X9570Y17500D01*
X8550D01*
Y16100D01*
X9839D01*
X9922Y16003D01*
X5534Y11615D01*
X5467Y11516D01*
X5444Y11399D01*
X5444Y11399D01*
Y10650D01*
X5200D01*
Y9408D01*
X4800D01*
Y10650D01*
X3700D01*
Y10306D01*
X3300D01*
Y10650D01*
X2100D01*
Y9651D01*
X1989Y9604D01*
X1900Y9677D01*
Y10650D01*
X700D01*
Y9350D01*
X1073D01*
X1360Y9064D01*
Y8936D01*
X1073Y8650D01*
X700D01*
Y7350D01*
X1900D01*
Y8323D01*
X1989Y8396D01*
X2100Y8349D01*
Y7350D01*
X3300D01*
Y7694D01*
X3700D01*
Y7350D01*
X4800D01*
Y8592D01*
X5200D01*
Y7350D01*
X5444D01*
Y6050D01*
X5444Y6050D01*
X5467Y5933D01*
X5534Y5834D01*
X6984Y4384D01*
X6984Y4384D01*
X7043Y4344D01*
X7083Y4317D01*
X7200Y4294D01*
X16600D01*
X16600Y4294D01*
X16717Y4317D01*
X16816Y4384D01*
X17881Y5448D01*
X17998Y5400D01*
Y400D01*
X4110D01*
X4085Y527D01*
X4230Y587D01*
X4592Y809D01*
X4915Y1085D01*
X5191Y1408D01*
X5413Y1770D01*
X5576Y2163D01*
X5675Y2576D01*
X5708Y3000D01*
X5675Y3424D01*
X5576Y3837D01*
X5413Y4230D01*
X5191Y4592D01*
X4915Y4915D01*
X4592Y5191D01*
X4230Y5413D01*
X3837Y5576D01*
X3424Y5675D01*
X3000Y5708D01*
X2576Y5675D01*
X2163Y5576D01*
X1770Y5413D01*
X1408Y5191D01*
X1085Y4915D01*
X809Y4592D01*
X587Y4230D01*
X527Y4085D01*
X400Y4110D01*
X400Y40890D01*
X527Y40915D01*
X587Y40770D01*
X809Y40408D01*
X1085Y40085D01*
X1408Y39809D01*
X1770Y39587D01*
X2163Y39424D01*
X2576Y39325D01*
X3000Y39292D01*
X3424Y39325D01*
X3837Y39424D01*
X4230Y39587D01*
X4592Y39809D01*
X4915Y40085D01*
X5191Y40408D01*
X5413Y40770D01*
X5576Y41163D01*
X5675Y41576D01*
X5708Y42000D01*
X5675Y42424D01*
X5576Y42837D01*
X5413Y43230D01*
X5191Y43592D01*
X4915Y43915D01*
X4592Y44191D01*
X4230Y44413D01*
X4085Y44473D01*
X4110Y44600D01*
X45890D01*
X45915Y44473D01*
D02*
G37*
G36*
X43929Y26405D02*
X44040Y26240D01*
X44205Y26129D01*
X44400Y26090D01*
X44595Y26129D01*
X44665Y26176D01*
X44792Y26108D01*
Y25090D01*
X44729Y24995D01*
X44710Y24902D01*
X44573Y24860D01*
X43216Y26216D01*
X43117Y26283D01*
X43000Y26306D01*
X43000Y26306D01*
X41802D01*
X41802Y26306D01*
X41675Y26331D01*
X40375D01*
X40248Y26306D01*
X40141Y26234D01*
X40069Y26127D01*
X40044Y26000D01*
X40069Y25873D01*
X40085Y25850D01*
X40133Y25750D01*
X40085Y25650D01*
X40069Y25627D01*
X40044Y25500D01*
X40069Y25373D01*
X40141Y25266D01*
Y25234D01*
X40069Y25127D01*
X40044Y25000D01*
X40069Y24873D01*
X40085Y24850D01*
X40133Y24750D01*
X40085Y24650D01*
X40069Y24627D01*
X40044Y24500D01*
X39935Y24395D01*
X39844Y24377D01*
X39712Y24288D01*
X39412Y23988D01*
X39323Y23856D01*
X39318Y23830D01*
X39292Y23700D01*
X39292Y23700D01*
Y23250D01*
X39100D01*
Y22008D01*
X38900D01*
Y22500D01*
X37700D01*
Y22008D01*
X36159D01*
X36078Y22088D01*
X35946Y22177D01*
X35932Y22180D01*
X35795Y22271D01*
X35600Y22310D01*
X35405Y22271D01*
X35335Y22224D01*
X35208Y22292D01*
Y23308D01*
X35335Y23376D01*
X35405Y23329D01*
X35600Y23290D01*
X35795Y23329D01*
X35960Y23440D01*
X35997Y23494D01*
X36014D01*
X36014Y23494D01*
X36131Y23517D01*
X36230Y23584D01*
X36317Y23670D01*
X36325Y23669D01*
X37625D01*
X37752Y23694D01*
X37859Y23766D01*
X37931Y23873D01*
X37956Y24000D01*
X37931Y24127D01*
X37859Y24234D01*
Y24266D01*
X37931Y24373D01*
X37956Y24500D01*
X37931Y24627D01*
X37915Y24650D01*
X37867Y24750D01*
X37915Y24850D01*
X37931Y24873D01*
X37936Y24900D01*
X36975D01*
Y25100D01*
X37936D01*
X37931Y25127D01*
X37859Y25234D01*
Y25266D01*
X37931Y25373D01*
X37956Y25500D01*
X37931Y25627D01*
X37915Y25650D01*
X37867Y25750D01*
X37915Y25850D01*
X37931Y25873D01*
X37956Y26000D01*
X37931Y26127D01*
X37859Y26234D01*
X37871Y26379D01*
X37960Y26440D01*
X37996Y26492D01*
X43912D01*
X43929Y26405D01*
D02*
G37*
G36*
X10914Y10310D02*
X10934Y10152D01*
X11030Y9921D01*
X11182Y9722D01*
X11381Y9570D01*
X11592Y9483D01*
Y8090D01*
X11529Y7995D01*
X11490Y7800D01*
X11529Y7605D01*
X11640Y7440D01*
X11805Y7329D01*
X12000Y7290D01*
X12195Y7329D01*
X12360Y7440D01*
X12471Y7605D01*
X12510Y7800D01*
X12471Y7995D01*
X12408Y8090D01*
Y9623D01*
X12538Y9722D01*
X12690Y9921D01*
X12767Y10108D01*
X12894Y10082D01*
Y9400D01*
X12894Y9400D01*
X12917Y9283D01*
X12984Y9184D01*
X13184Y8984D01*
X13283Y8917D01*
X13400Y8894D01*
X16894D01*
Y6827D01*
X16717Y6650D01*
X16600Y6699D01*
Y6700D01*
X13200D01*
Y6306D01*
X12489D01*
X12471Y6395D01*
X12360Y6560D01*
X12195Y6671D01*
X12000Y6710D01*
X11805Y6671D01*
X11640Y6560D01*
X11529Y6395D01*
X11511Y6306D01*
X10800D01*
Y6700D01*
X7400D01*
Y5300D01*
X10800D01*
Y5694D01*
X11980D01*
X12000Y5690D01*
X12020Y5694D01*
X13200D01*
Y5300D01*
X16600D01*
Y5714D01*
X16617Y5717D01*
X16716Y5784D01*
X17416Y6484D01*
X17416Y6484D01*
X17483Y6583D01*
X17506Y6700D01*
X17506Y6700D01*
Y8530D01*
X17633Y8594D01*
X17694Y8548D01*
Y6127D01*
X16473Y4906D01*
X7327D01*
X6056Y6177D01*
Y7350D01*
X6300D01*
Y8592D01*
X7200D01*
X7200Y8592D01*
X7330Y8618D01*
X7356Y8623D01*
X7488Y8712D01*
X10000Y11223D01*
X10914Y10310D01*
D02*
G37*
G36*
X32792Y8308D02*
Y6600D01*
X32792Y6600D01*
X32823Y6444D01*
X32912Y6312D01*
X33390Y5833D01*
X33338Y5706D01*
X29224D01*
X27553Y7377D01*
X27601Y7494D01*
X31400D01*
X31400Y7494D01*
X31517Y7517D01*
X31616Y7584D01*
X32336Y8303D01*
X32400Y8290D01*
X32595Y8329D01*
X32665Y8376D01*
X32792Y8308D01*
D02*
G37*
G36*
X28384Y3984D02*
X28384Y3984D01*
X28483Y3917D01*
X28600Y3894D01*
X28600Y3894D01*
X34576D01*
X34619Y3767D01*
X34502Y3678D01*
X34350Y3479D01*
X34254Y3248D01*
X34222Y3000D01*
X34254Y2752D01*
X34350Y2521D01*
X34502Y2322D01*
X34701Y2170D01*
X34932Y2074D01*
X35180Y2042D01*
X35428Y2074D01*
X35659Y2170D01*
X35858Y2322D01*
X36010Y2521D01*
X36106Y2752D01*
X36138Y3000D01*
X36106Y3248D01*
X36010Y3479D01*
X35858Y3678D01*
X35741Y3767D01*
X35784Y3894D01*
X37116D01*
X37159Y3767D01*
X37042Y3678D01*
X36890Y3479D01*
X36794Y3248D01*
X36762Y3000D01*
X36794Y2752D01*
X36890Y2521D01*
X37042Y2322D01*
X37241Y2170D01*
X37472Y2074D01*
X37720Y2042D01*
X37968Y2074D01*
X38199Y2170D01*
X38398Y2322D01*
X38550Y2521D01*
X38646Y2752D01*
X38678Y3000D01*
X38646Y3248D01*
X38550Y3479D01*
X38398Y3678D01*
X38281Y3767D01*
X38324Y3894D01*
X39656D01*
X39699Y3767D01*
X39582Y3678D01*
X39430Y3479D01*
X39334Y3248D01*
X39302Y3000D01*
X39334Y2752D01*
X39430Y2521D01*
X39582Y2322D01*
X39781Y2170D01*
X40012Y2074D01*
X40260Y2042D01*
X40508Y2074D01*
X40739Y2170D01*
X40938Y2322D01*
X41090Y2521D01*
X41186Y2752D01*
X41218Y3000D01*
X41186Y3248D01*
X41090Y3479D01*
X40938Y3678D01*
X40821Y3767D01*
X40864Y3894D01*
X41850D01*
Y2050D01*
X43750D01*
Y3894D01*
X44000D01*
X44000Y3894D01*
X44117Y3917D01*
X44216Y3984D01*
X44440Y4208D01*
X44548Y4136D01*
X44424Y3837D01*
X44325Y3424D01*
X44292Y3000D01*
X44325Y2576D01*
X44424Y2163D01*
X44587Y1770D01*
X44809Y1408D01*
X45085Y1085D01*
X45408Y809D01*
X45770Y587D01*
X45915Y527D01*
X45890Y400D01*
X26802D01*
Y5400D01*
X26919Y5448D01*
X28384Y3984D01*
D02*
G37*
G36*
X14059Y16367D02*
X13921Y16310D01*
X13722Y16158D01*
X13570Y15959D01*
X13474Y15728D01*
X13442Y15480D01*
X13474Y15232D01*
X13497Y15178D01*
X12825Y14506D01*
X12323D01*
X12297Y14633D01*
X12339Y14650D01*
X12538Y14802D01*
X12690Y15001D01*
X12786Y15232D01*
X12805Y15380D01*
X11860D01*
Y15580D01*
X12805D01*
X12786Y15728D01*
X12690Y15959D01*
X12538Y16158D01*
X12339Y16310D01*
X12201Y16367D01*
X12226Y16494D01*
X14034D01*
X14059Y16367D01*
D02*
G37*
G36*
X42040Y13640D02*
X42205Y13529D01*
X42400Y13490D01*
X42595Y13529D01*
X42665Y13576D01*
X42792Y13508D01*
Y11692D01*
X42665Y11624D01*
X42595Y11671D01*
X42400Y11710D01*
X42205Y11671D01*
X42040Y11560D01*
X41929Y11395D01*
X41919Y11343D01*
X41834Y11316D01*
X41791Y11308D01*
X41675Y11331D01*
X40375D01*
X40248Y11306D01*
X40141Y11234D01*
X40069Y11127D01*
X40044Y11000D01*
X40069Y10873D01*
X40085Y10850D01*
X40133Y10750D01*
X40085Y10650D01*
X40069Y10627D01*
X40044Y10500D01*
X40069Y10373D01*
X40141Y10266D01*
Y10234D01*
X40069Y10127D01*
X40064Y10100D01*
X41025D01*
Y9900D01*
X40064D01*
X40069Y9873D01*
X40085Y9850D01*
X40133Y9750D01*
X40085Y9650D01*
X40069Y9627D01*
X40044Y9500D01*
X39935Y9395D01*
X39844Y9377D01*
X39712Y9288D01*
X39412Y8988D01*
X39323Y8856D01*
X39318Y8830D01*
X39292Y8700D01*
X39292Y8700D01*
Y8250D01*
X39100D01*
Y6950D01*
X39100Y6950D01*
X39100D01*
X39060Y6837D01*
X38631Y6408D01*
X37492D01*
X37424Y6535D01*
X37471Y6605D01*
X37510Y6800D01*
X37471Y6995D01*
X37360Y7160D01*
X37195Y7271D01*
X37084Y7293D01*
X36088Y8288D01*
X36026Y8330D01*
X36015Y8348D01*
X36012Y8367D01*
X36014Y8493D01*
X36014Y8494D01*
X36131Y8517D01*
X36230Y8584D01*
X36317Y8670D01*
X36325Y8669D01*
X37625D01*
X37752Y8694D01*
X37859Y8766D01*
X37931Y8873D01*
X37956Y9000D01*
X37931Y9127D01*
X37859Y9234D01*
Y9266D01*
X37931Y9373D01*
X37956Y9500D01*
X37931Y9627D01*
X37915Y9650D01*
X37867Y9750D01*
X37915Y9850D01*
X37931Y9873D01*
X37936Y9900D01*
X36975D01*
Y10100D01*
X37936D01*
X37931Y10127D01*
X37859Y10234D01*
Y10266D01*
X37931Y10373D01*
X37956Y10500D01*
X37931Y10627D01*
X37915Y10650D01*
X37867Y10750D01*
X37915Y10850D01*
X37931Y10873D01*
X37956Y11000D01*
X37943Y11065D01*
X38029Y11192D01*
X39200D01*
X39200Y11192D01*
X39330Y11218D01*
X39356Y11223D01*
X39488Y11312D01*
X39988Y11812D01*
X39988Y11812D01*
X40077Y11944D01*
X40078Y11950D01*
X40300D01*
Y13250D01*
X40108D01*
Y13531D01*
X40267Y13690D01*
X40375Y13669D01*
X41675D01*
X41802Y13694D01*
X41909Y13766D01*
X41955D01*
X42040Y13640D01*
D02*
G37*
G36*
X9502Y14539D02*
X9529Y14405D01*
X9592Y14310D01*
Y11969D01*
X7031Y9408D01*
X6300D01*
Y10650D01*
X6056D01*
Y11272D01*
X9367Y14583D01*
X9502Y14539D01*
D02*
G37*
%LPC*%
G36*
X38900Y18250D02*
X38400D01*
Y17700D01*
X38900D01*
Y18250D01*
D02*
G37*
G36*
X38200D02*
X37700D01*
Y17700D01*
X38200D01*
Y18250D01*
D02*
G37*
G36*
X5750Y16600D02*
X4950D01*
Y16300D01*
X5750D01*
Y16600D01*
D02*
G37*
G36*
X38200Y23250D02*
X37700D01*
Y22700D01*
X38200D01*
Y23250D01*
D02*
G37*
G36*
X3150Y23100D02*
X850D01*
Y20400D01*
X3150D01*
Y23100D01*
D02*
G37*
G36*
X43025Y40900D02*
X41100D01*
Y39775D01*
X43025D01*
Y40900D01*
D02*
G37*
G36*
X4750Y16600D02*
X3950D01*
Y16300D01*
X4750D01*
Y16600D01*
D02*
G37*
G36*
X38900Y13250D02*
X38400D01*
Y12700D01*
X38900D01*
Y13250D01*
D02*
G37*
G36*
X38200D02*
X37700D01*
Y12700D01*
X38200D01*
Y13250D01*
D02*
G37*
G36*
X29915Y10900D02*
X28800D01*
Y10490D01*
X29425D01*
X29620Y10529D01*
X29785Y10640D01*
X29896Y10805D01*
X29915Y10900D01*
D02*
G37*
G36*
X8900Y42225D02*
X6975D01*
Y41100D01*
X8900D01*
Y42225D01*
D02*
G37*
G36*
X11025D02*
X9100D01*
Y41100D01*
X11025D01*
Y42225D01*
D02*
G37*
G36*
X3150Y15600D02*
X850D01*
Y12900D01*
X3150D01*
Y15600D01*
D02*
G37*
G36*
X38900Y23250D02*
X38400D01*
Y22700D01*
X38900D01*
Y23250D01*
D02*
G37*
G36*
X7975Y26800D02*
X6800D01*
Y25100D01*
X7975D01*
Y26800D01*
D02*
G37*
G36*
X24900Y40900D02*
X22975D01*
Y39775D01*
X24900D01*
Y40900D01*
D02*
G37*
G36*
X27025D02*
X25100D01*
Y39775D01*
X27025D01*
Y40900D01*
D02*
G37*
G36*
X15200Y25650D02*
X14025D01*
Y25100D01*
X15200D01*
Y25650D01*
D02*
G37*
G36*
X13825D02*
X12650D01*
Y25100D01*
X13825D01*
Y25650D01*
D02*
G37*
G36*
X9350Y26800D02*
X8175D01*
Y25100D01*
X9350D01*
Y26800D01*
D02*
G37*
G36*
X15200Y24900D02*
X14025D01*
Y24350D01*
X15200D01*
Y24900D01*
D02*
G37*
G36*
X17050Y23800D02*
X16500D01*
Y23300D01*
X17050D01*
Y23800D01*
D02*
G37*
G36*
X16300D02*
X15750D01*
Y23300D01*
X16300D01*
Y23800D01*
D02*
G37*
G36*
X9350Y24900D02*
X8175D01*
Y23200D01*
X9350D01*
Y24900D01*
D02*
G37*
G36*
X13825D02*
X12650D01*
Y24350D01*
X13825D01*
Y24900D01*
D02*
G37*
G36*
X17825Y25675D02*
X16175D01*
Y24627D01*
X16175Y24600D01*
X16110Y24500D01*
X15750D01*
Y24000D01*
X17050D01*
Y24473D01*
X17050Y24500D01*
X17115Y24600D01*
X17825D01*
Y25675D01*
D02*
G37*
G36*
X40900Y40900D02*
X38975D01*
Y39775D01*
X40900D01*
Y40900D01*
D02*
G37*
G36*
X28600Y10900D02*
X27485D01*
X27504Y10805D01*
X27615Y10640D01*
X27780Y10529D01*
X27975Y10490D01*
X28600D01*
Y10900D01*
D02*
G37*
G36*
X21300Y4900D02*
X20750D01*
Y4300D01*
X21300D01*
Y4900D01*
D02*
G37*
G36*
X16600Y2700D02*
X15000D01*
Y2100D01*
X16600D01*
Y2700D01*
D02*
G37*
G36*
X14800D02*
X13200D01*
Y2100D01*
X14800D01*
Y2700D01*
D02*
G37*
G36*
X21250Y6700D02*
X20700D01*
Y6100D01*
X21250D01*
Y6700D01*
D02*
G37*
G36*
X20500D02*
X19950D01*
Y6100D01*
X20500D01*
Y6700D01*
D02*
G37*
G36*
X21300Y5700D02*
X20750D01*
Y5100D01*
X21300D01*
Y5700D01*
D02*
G37*
G36*
X10800Y2700D02*
X9200D01*
Y2100D01*
X10800D01*
Y2700D01*
D02*
G37*
G36*
Y1900D02*
X9200D01*
Y1300D01*
X10800D01*
Y1900D01*
D02*
G37*
G36*
X9000D02*
X7400D01*
Y1300D01*
X9000D01*
Y1900D01*
D02*
G37*
G36*
X43025Y42225D02*
X41100D01*
Y41100D01*
X43025D01*
Y42225D01*
D02*
G37*
G36*
X9000Y2700D02*
X7400D01*
Y2100D01*
X9000D01*
Y2700D01*
D02*
G37*
G36*
X16600Y1900D02*
X15000D01*
Y1300D01*
X16600D01*
Y1900D01*
D02*
G37*
G36*
X14800D02*
X13200D01*
Y1300D01*
X14800D01*
Y1900D01*
D02*
G37*
G36*
X47900Y7360D02*
X47055D01*
X47074Y7212D01*
X47170Y6981D01*
X47322Y6782D01*
X47521Y6630D01*
X47752Y6534D01*
X47900Y6515D01*
Y7360D01*
D02*
G37*
G36*
X40900Y42225D02*
X38975D01*
Y41100D01*
X40900D01*
Y42225D01*
D02*
G37*
G36*
X38900Y8250D02*
X38400D01*
Y7700D01*
X38900D01*
Y8250D01*
D02*
G37*
G36*
X38200D02*
X37700D01*
Y7700D01*
X38200D01*
Y8250D01*
D02*
G37*
G36*
X24900Y42225D02*
X22975D01*
Y41100D01*
X24900D01*
Y42225D01*
D02*
G37*
G36*
X48000Y22078D02*
X47752Y22046D01*
X47521Y21950D01*
X47322Y21798D01*
X47170Y21599D01*
X47074Y21368D01*
X47042Y21120D01*
X47074Y20872D01*
X47170Y20641D01*
X47322Y20442D01*
X47521Y20290D01*
X47592Y20261D01*
Y10950D01*
X47050D01*
Y9050D01*
X48950D01*
Y10950D01*
X48408D01*
Y20261D01*
X48479Y20290D01*
X48678Y20442D01*
X48830Y20641D01*
X48926Y20872D01*
X48958Y21120D01*
X48926Y21368D01*
X48830Y21599D01*
X48678Y21798D01*
X48479Y21950D01*
X48248Y22046D01*
X48000Y22078D01*
D02*
G37*
G36*
X27025Y42225D02*
X25100D01*
Y41100D01*
X27025D01*
Y42225D01*
D02*
G37*
G36*
X48100Y8405D02*
Y7560D01*
X48945D01*
X48926Y7708D01*
X48830Y7939D01*
X48678Y8138D01*
X48479Y8290D01*
X48248Y8386D01*
X48100Y8405D01*
D02*
G37*
G36*
X21250Y7500D02*
X20700D01*
Y6900D01*
X21250D01*
Y7500D01*
D02*
G37*
G36*
X20500D02*
X19950D01*
Y6900D01*
X20500D01*
Y7500D01*
D02*
G37*
G36*
X48945Y7360D02*
X48100D01*
Y6515D01*
X48248Y6534D01*
X48479Y6630D01*
X48678Y6782D01*
X48830Y6981D01*
X48926Y7212D01*
X48945Y7360D01*
D02*
G37*
G36*
X47900Y8405D02*
X47752Y8386D01*
X47521Y8290D01*
X47322Y8138D01*
X47170Y7939D01*
X47074Y7708D01*
X47055Y7560D01*
X47900D01*
Y8405D01*
D02*
G37*
G36*
X38900Y7500D02*
X38400D01*
Y6950D01*
X38900D01*
Y7500D01*
D02*
G37*
G36*
X38200D02*
X37700D01*
Y6950D01*
X38200D01*
Y7500D01*
D02*
G37*
G36*
X14700Y36900D02*
X13850D01*
Y36100D01*
X14700D01*
Y36900D01*
D02*
G37*
G36*
X12950D02*
X12100D01*
Y36100D01*
X12950D01*
Y36900D01*
D02*
G37*
G36*
X11900D02*
X11050D01*
Y36100D01*
X11900D01*
Y36900D01*
D02*
G37*
G36*
X31150D02*
X30300D01*
Y36100D01*
X31150D01*
Y36900D01*
D02*
G37*
G36*
X30100D02*
X29250D01*
Y36100D01*
X30100D01*
Y36900D01*
D02*
G37*
G36*
X15750D02*
X14900D01*
Y36100D01*
X15750D01*
Y36900D01*
D02*
G37*
G36*
X28650Y36600D02*
X28100D01*
Y36100D01*
X28650D01*
Y36600D01*
D02*
G37*
G36*
X42800Y36650D02*
X42350D01*
Y36100D01*
X42800D01*
Y36650D01*
D02*
G37*
G36*
X42150D02*
X41700D01*
Y36100D01*
X42150D01*
Y36650D01*
D02*
G37*
G36*
X42800Y35900D02*
X42350D01*
Y35350D01*
X42800D01*
Y35900D01*
D02*
G37*
G36*
X27900Y36600D02*
X27350D01*
Y36100D01*
X27900D01*
Y36600D01*
D02*
G37*
G36*
X17650D02*
X17100D01*
Y36100D01*
X17650D01*
Y36600D01*
D02*
G37*
G36*
X16900D02*
X16350D01*
Y36100D01*
X16900D01*
Y36600D01*
D02*
G37*
G36*
X32900Y36900D02*
X32050D01*
Y36100D01*
X32900D01*
Y36900D01*
D02*
G37*
G36*
X30100Y37900D02*
X29250D01*
Y37100D01*
X30100D01*
Y37900D01*
D02*
G37*
G36*
X15750D02*
X14900D01*
Y37100D01*
X15750D01*
Y37900D01*
D02*
G37*
G36*
X14700D02*
X13850D01*
Y37100D01*
X14700D01*
Y37900D01*
D02*
G37*
G36*
X33950D02*
X33100D01*
Y37100D01*
X33950D01*
Y37900D01*
D02*
G37*
G36*
X32900D02*
X32050D01*
Y37100D01*
X32900D01*
Y37900D01*
D02*
G37*
G36*
X31150D02*
X30300D01*
Y37100D01*
X31150D01*
Y37900D01*
D02*
G37*
G36*
X12950D02*
X12100D01*
Y37100D01*
X12950D01*
Y37900D01*
D02*
G37*
G36*
X17650Y37300D02*
X17100D01*
Y36800D01*
X17650D01*
Y37300D01*
D02*
G37*
G36*
X16900D02*
X16350D01*
Y36800D01*
X16900D01*
Y37300D01*
D02*
G37*
G36*
X33950Y36900D02*
X33100D01*
Y36100D01*
X33950D01*
Y36900D01*
D02*
G37*
G36*
X11900Y37900D02*
X11050D01*
Y37100D01*
X11900D01*
Y37900D01*
D02*
G37*
G36*
X28650Y37300D02*
X28100D01*
Y36800D01*
X28650D01*
Y37300D01*
D02*
G37*
G36*
X27900D02*
X27350D01*
Y36800D01*
X27900D01*
Y37300D01*
D02*
G37*
G36*
X42150Y35900D02*
X41700D01*
Y35350D01*
X42150D01*
Y35900D01*
D02*
G37*
G36*
X16650Y31200D02*
X16100D01*
Y30700D01*
X16650D01*
Y31200D01*
D02*
G37*
G36*
X15900D02*
X15350D01*
Y30700D01*
X15900D01*
Y31200D01*
D02*
G37*
G36*
X8900Y40900D02*
X6975D01*
Y39775D01*
X8900D01*
Y40900D01*
D02*
G37*
G36*
X16650Y31900D02*
X16100D01*
Y31400D01*
X16650D01*
Y31900D01*
D02*
G37*
G36*
X15900D02*
X15350D01*
Y31400D01*
X15900D01*
Y31900D01*
D02*
G37*
G36*
X15050D02*
X13600D01*
Y31500D01*
Y31150D01*
X15050D01*
Y31500D01*
Y31900D01*
D02*
G37*
G36*
X11025Y40900D02*
X9100D01*
Y39775D01*
X11025D01*
Y40900D01*
D02*
G37*
G36*
X5650Y26650D02*
X5200D01*
Y26100D01*
X5650D01*
Y26650D01*
D02*
G37*
G36*
X6300Y25900D02*
X5850D01*
Y25350D01*
X6300D01*
Y25900D01*
D02*
G37*
G36*
X5650D02*
X5200D01*
Y25350D01*
X5650D01*
Y25900D01*
D02*
G37*
G36*
X6300Y27900D02*
X5850D01*
Y27350D01*
X6300D01*
Y27900D01*
D02*
G37*
G36*
X5650D02*
X5200D01*
Y27350D01*
X5650D01*
Y27900D01*
D02*
G37*
G36*
X6300Y26650D02*
X5850D01*
Y26100D01*
X6300D01*
Y26650D01*
D02*
G37*
G36*
X28900Y32600D02*
X28350D01*
Y32100D01*
X28900D01*
Y32600D01*
D02*
G37*
G36*
X43600Y35050D02*
X43100D01*
Y34500D01*
X43600D01*
Y35050D01*
D02*
G37*
G36*
X44300Y34300D02*
X43800D01*
Y33750D01*
X44300D01*
Y34300D01*
D02*
G37*
G36*
X43600D02*
X43100D01*
Y33750D01*
X43600D01*
Y34300D01*
D02*
G37*
G36*
X25417Y35641D02*
X25038D01*
Y35186D01*
X25417D01*
Y35641D01*
D02*
G37*
G36*
Y34986D02*
X25038D01*
Y34530D01*
X25417D01*
Y34986D01*
D02*
G37*
G36*
X44300Y35050D02*
X43800D01*
Y34500D01*
X44300D01*
Y35050D01*
D02*
G37*
G36*
X31400Y33450D02*
X30775D01*
Y33050D01*
X31400D01*
Y33450D01*
D02*
G37*
G36*
X15050Y33450D02*
X13600D01*
Y32450D01*
Y32100D01*
X15050D01*
Y32450D01*
Y32542D01*
X15350D01*
Y32100D01*
X16650D01*
Y32180D01*
X16777Y32248D01*
X16805Y32229D01*
X17000Y32190D01*
X17195Y32229D01*
X17360Y32340D01*
X17471Y32505D01*
X17510Y32700D01*
X17471Y32895D01*
X17360Y33060D01*
X17195Y33171D01*
X17000Y33210D01*
X16805Y33171D01*
X16777Y33152D01*
X16650Y33220D01*
Y33300D01*
X15946D01*
X15906Y33327D01*
X15880Y33332D01*
X15750Y33358D01*
X15750Y33358D01*
X15050D01*
Y33450D01*
D02*
G37*
G36*
X31400Y32850D02*
X29950D01*
Y32450D01*
Y32100D01*
X31400D01*
Y32450D01*
Y32850D01*
D02*
G37*
G36*
X29650Y32600D02*
X29100D01*
Y32100D01*
X29650D01*
Y32600D01*
D02*
G37*
G36*
X30575Y33450D02*
X29950D01*
Y33050D01*
X30575D01*
Y33450D01*
D02*
G37*
G36*
X29650Y33300D02*
X29100D01*
Y32800D01*
X29650D01*
Y33300D01*
D02*
G37*
G36*
X28900D02*
X28350D01*
Y32800D01*
X28900D01*
Y33300D01*
D02*
G37*
%LPD*%
G54D10*
X25517Y35086D02*
D03*
Y36914D02*
D03*
X26483D02*
D03*
Y35086D02*
D03*
G54D11*
X36000Y41000D02*
D03*
X31000D02*
D03*
X19000D02*
D03*
X14000D02*
D03*
X9000D02*
D03*
X41000D02*
D03*
X25000D02*
D03*
G54D12*
X30200Y37000D02*
D03*
Y35000D02*
D03*
X14800Y37000D02*
D03*
Y35000D02*
D03*
X12000D02*
D03*
Y37000D02*
D03*
X33000Y35000D02*
D03*
Y37000D02*
D03*
G54D13*
X39700Y7600D02*
D03*
X38300D02*
D03*
X39700Y12600D02*
D03*
X38300D02*
D03*
X39700Y17600D02*
D03*
X38300D02*
D03*
X39700Y22600D02*
D03*
X38300D02*
D03*
X42300Y34400D02*
D03*
X43700D02*
D03*
X2700Y10000D02*
D03*
X1300D02*
D03*
X2700Y8000D02*
D03*
X1300D02*
D03*
X2700Y28000D02*
D03*
X1300D02*
D03*
X2700Y26000D02*
D03*
X1300D02*
D03*
G54D14*
X14325Y31050D02*
D03*
Y32000D02*
D03*
Y32950D02*
D03*
X11675D02*
D03*
Y32000D02*
D03*
Y31050D02*
D03*
X30675Y32950D02*
D03*
Y32000D02*
D03*
Y31050D02*
D03*
X33325D02*
D03*
Y32000D02*
D03*
Y32950D02*
D03*
G54D15*
X8000Y31150D02*
D03*
Y36850D02*
D03*
X37000D02*
D03*
Y31150D02*
D03*
G54D16*
X13925Y22700D02*
D03*
Y25000D02*
D03*
Y27300D02*
D03*
G54D17*
X8075Y25000D02*
D03*
G54D18*
X17300Y19000D02*
D03*
Y18200D02*
D03*
Y17400D02*
D03*
Y16600D02*
D03*
Y15800D02*
D03*
Y15000D02*
D03*
Y14200D02*
D03*
Y13400D02*
D03*
Y12600D02*
D03*
Y11800D02*
D03*
Y11000D02*
D03*
X28700D02*
D03*
Y11800D02*
D03*
Y12600D02*
D03*
Y13400D02*
D03*
Y14200D02*
D03*
Y15000D02*
D03*
Y15800D02*
D03*
Y16600D02*
D03*
Y17400D02*
D03*
Y18200D02*
D03*
Y19000D02*
D03*
G54D19*
X19000Y9300D02*
D03*
X19800D02*
D03*
X20600D02*
D03*
X21400D02*
D03*
X22200D02*
D03*
X23000D02*
D03*
X23800D02*
D03*
X24600D02*
D03*
X25400D02*
D03*
X26200D02*
D03*
X27000D02*
D03*
Y20700D02*
D03*
X26200D02*
D03*
X25400D02*
D03*
X24600D02*
D03*
X23800D02*
D03*
X23000D02*
D03*
X22200D02*
D03*
X21400D02*
D03*
X20600D02*
D03*
X19800D02*
D03*
X19000D02*
D03*
G54D20*
X16400Y22500D02*
D03*
Y23900D02*
D03*
X17000Y35300D02*
D03*
Y36700D02*
D03*
X28000Y35300D02*
D03*
Y36700D02*
D03*
X29000Y31300D02*
D03*
Y32700D02*
D03*
X16000Y32700D02*
D03*
Y31300D02*
D03*
G54D21*
X17000Y25775D02*
D03*
Y28225D02*
D03*
G54D22*
X19275Y36000D02*
D03*
X22725D02*
D03*
G54D23*
X40975Y33000D02*
D03*
Y32500D02*
D03*
Y32000D02*
D03*
Y31500D02*
D03*
Y31000D02*
D03*
X45025Y33000D02*
D03*
Y32500D02*
D03*
Y32000D02*
D03*
Y31500D02*
D03*
Y31000D02*
D03*
X41025Y9000D02*
D03*
Y9500D02*
D03*
Y10000D02*
D03*
Y10500D02*
D03*
Y11000D02*
D03*
X36975Y9000D02*
D03*
Y9500D02*
D03*
Y10000D02*
D03*
Y10500D02*
D03*
Y11000D02*
D03*
X41025Y14000D02*
D03*
Y14500D02*
D03*
Y15000D02*
D03*
Y15500D02*
D03*
Y16000D02*
D03*
X36975Y14000D02*
D03*
Y14500D02*
D03*
Y15000D02*
D03*
Y15500D02*
D03*
Y16000D02*
D03*
X41025Y19000D02*
D03*
Y19500D02*
D03*
Y20000D02*
D03*
Y20500D02*
D03*
Y21000D02*
D03*
X36975Y19000D02*
D03*
Y19500D02*
D03*
Y20000D02*
D03*
Y20500D02*
D03*
Y21000D02*
D03*
X41025Y24000D02*
D03*
Y24500D02*
D03*
Y25000D02*
D03*
Y25500D02*
D03*
Y26000D02*
D03*
X36975Y24000D02*
D03*
Y24500D02*
D03*
Y25000D02*
D03*
Y25500D02*
D03*
Y26000D02*
D03*
G54D24*
X42250Y36000D02*
D03*
X43750D02*
D03*
X4250Y10000D02*
D03*
X5750D02*
D03*
X4250Y8000D02*
D03*
X5750D02*
D03*
X43750Y29600D02*
D03*
X42250D02*
D03*
X4250Y28000D02*
D03*
X5750D02*
D03*
X4250Y26000D02*
D03*
X5750D02*
D03*
G54D25*
X47800Y32750D02*
D03*
Y31250D02*
D03*
G54D26*
X9100Y6000D02*
D03*
X14900D02*
D03*
X9100Y2000D02*
D03*
X14900D02*
D03*
G54D27*
X7600Y16800D02*
D03*
X9200D02*
D03*
X7600Y18400D02*
D03*
X9200D02*
D03*
X23000Y5000D02*
D03*
X21400D02*
D03*
X22200Y6800D02*
D03*
X20600D02*
D03*
G54D28*
X20350Y2600D02*
D03*
X24450D02*
D03*
G54D29*
X2000Y14250D02*
D03*
Y21750D02*
D03*
G54D30*
X4850Y16700D02*
D03*
Y17350D02*
D03*
Y18650D02*
D03*
Y18000D02*
D03*
Y19300D02*
D03*
G54D31*
X41700Y33800D02*
X42300Y34400D01*
X37800Y33800D02*
X41700D01*
X37600Y33600D02*
X37800Y33800D01*
X17900Y28100D02*
X18575Y27425D01*
X16000Y32700D02*
X17000D01*
X42200Y36000D02*
Y36800D01*
Y36000D02*
X42250D01*
X8000Y36850D02*
X8350D01*
X18575Y22975D02*
Y27425D01*
X15800Y20200D02*
X18575Y22975D01*
X10000Y20200D02*
X15800D01*
X28200Y26900D02*
X29000D01*
X18575Y27425D02*
X18600Y27400D01*
X17000Y28225D02*
X17775D01*
X18600Y26800D02*
X18700Y26900D01*
X18600Y26800D02*
Y27400D01*
X44700Y27500D02*
X45200Y27000D01*
X42600Y28200D02*
X45000D01*
X42250Y28550D02*
X42600Y28200D01*
X45000D02*
X46000Y27200D01*
X27000Y19200D02*
X28200Y20400D01*
Y26900D01*
X27000Y16000D02*
Y19200D01*
X26000Y15000D02*
X27000Y16000D01*
X24800Y16400D02*
X25200Y16800D01*
X24800Y14200D02*
Y16400D01*
Y14200D02*
X27200Y11800D01*
X2000Y9000D02*
X7200D01*
X10000Y11800D01*
X1300Y8000D02*
Y8300D01*
X2000Y9000D01*
X1300Y9700D02*
Y10000D01*
Y9700D02*
X2000Y9000D01*
X10000Y11800D02*
Y14600D01*
X35790Y11800D02*
X35990Y11600D01*
X35600Y11800D02*
X35790D01*
X35990Y11600D02*
X39200D01*
X39700Y12100D01*
X35790Y16800D02*
X35990Y16600D01*
X35600Y16800D02*
X35790D01*
X35990Y16600D02*
X39200D01*
X39700Y17100D01*
Y17600D01*
Y12100D02*
Y12600D01*
Y6900D02*
Y7600D01*
X38800Y6000D02*
X39700Y6900D01*
X33800Y6000D02*
X38800D01*
X44000Y8400D02*
Y9000D01*
X42400Y6800D02*
X44000Y8400D01*
X42000Y6800D02*
X42400D01*
X43200Y8449D02*
Y15400D01*
X42751Y8000D02*
X43200Y8449D01*
X42210Y8000D02*
X42751D01*
X41010Y6800D02*
X42210Y8000D01*
X41000Y6800D02*
X41010D01*
X35800Y8000D02*
X37000Y6800D01*
X33200Y6600D02*
X33800Y6000D01*
X33200Y6600D02*
Y11800D01*
X34900Y9500D02*
X35900D01*
X34800Y9600D02*
Y19600D01*
X34000Y20200D02*
Y24600D01*
Y15200D02*
Y20200D01*
Y10200D02*
Y15200D01*
X39700Y7600D02*
Y8700D01*
X40000Y9000D01*
X39700Y12600D02*
Y13700D01*
X40000Y14000D01*
X39700Y18806D02*
X39894Y19000D01*
X39700Y17600D02*
Y18806D01*
X10000Y11800D02*
X11400Y10400D01*
X11860D01*
X27000Y19200D02*
Y20700D01*
X13925Y27300D02*
X16075D01*
X17000Y28225D01*
X33200Y11800D02*
Y16800D01*
Y21800D01*
X35990Y21600D02*
X39400D01*
X35790Y21800D02*
X35990Y21600D01*
X39400D02*
X39700Y21900D01*
X29000Y26800D02*
Y26900D01*
X33200D01*
Y21800D02*
X33200Y21800D01*
X33200Y21800D02*
Y26900D01*
X35600Y21800D02*
X35790D01*
X29000Y30200D02*
Y31300D01*
X39700Y21900D02*
Y22600D01*
X33200Y26900D02*
X44100D01*
X44400Y26600D01*
X34800Y19600D02*
Y23990D01*
X34000Y24600D02*
X34900Y25500D01*
X34900Y19500D02*
X35900D01*
X39700Y22600D02*
Y23700D01*
X40000Y24000D01*
X42100Y10500D02*
X43100D01*
X43200Y15400D02*
Y24990D01*
X43100Y15500D02*
X43200Y15400D01*
X42100Y15500D02*
X43100D01*
X42100Y20500D02*
X43100D01*
X38950Y31150D02*
X39800Y32000D01*
X48000Y10000D02*
Y21120D01*
X42690Y25500D02*
X43200Y24990D01*
X42100Y25500D02*
X42690D01*
X46600Y25060D02*
Y29400D01*
X46000Y19800D02*
Y27200D01*
X45200Y24800D02*
Y27000D01*
X46600Y29400D02*
X47800Y30600D01*
X15750Y32950D02*
X16000Y32700D01*
X14325Y32950D02*
X15750D01*
X26200Y19200D02*
X26200Y19200D01*
X26200Y19200D02*
Y20700D01*
X19800Y19200D02*
X19800Y19200D01*
X19800Y19200D02*
Y20700D01*
X18800Y15800D02*
X18800Y15800D01*
X17300Y15800D02*
X18800D01*
X20600Y13000D02*
X20800Y13200D01*
X27200Y11000D02*
X28700D01*
X46250Y32750D02*
X47800D01*
X46400Y32000D02*
X46800D01*
X47800Y30600D02*
Y31250D01*
X43700Y32300D02*
X43800Y32200D01*
X14900Y21000D02*
X16400Y22500D01*
X20600Y19200D02*
Y20700D01*
X19000Y19010D02*
X20800Y17210D01*
X14125Y22500D02*
X16400D01*
X13925Y22700D02*
X14125Y22500D01*
X18990Y14200D02*
X19600Y14810D01*
X17300Y14200D02*
X18990D01*
X12000Y7800D02*
Y10260D01*
X11860Y10400D02*
X12000Y10260D01*
X20600Y10800D02*
Y13000D01*
Y9300D02*
Y10800D01*
X19600Y14810D02*
Y17400D01*
X19000Y19010D02*
Y19200D01*
X18800Y18200D02*
X19600Y17400D01*
X20800Y16800D02*
Y17210D01*
X4250Y28000D02*
X4250Y28000D01*
X2700Y28000D02*
X4250D01*
X21400Y9300D02*
Y10800D01*
X19000Y19200D02*
Y20700D01*
X17300Y18200D02*
X18800D01*
X27200Y11800D02*
X28700D01*
X34900Y14500D02*
X35900D01*
X44000Y19000D02*
Y24000D01*
Y14000D02*
Y19000D01*
Y9000D02*
Y14000D01*
X34800Y19600D02*
X34900Y19500D01*
X34800Y9600D02*
X34900Y9500D01*
X17300Y15000D02*
X17300Y15000D01*
X18800D01*
X34900Y25500D02*
X35900D01*
X34800Y23990D02*
X35310Y24500D01*
X35900D01*
X47550Y31250D02*
X47800D01*
X42600Y32000D02*
X43000D01*
X42200Y32400D02*
X42600Y32000D01*
X42200Y33200D02*
X42300Y33300D01*
Y34400D01*
X43750Y29600D02*
Y31350D01*
X37000Y31150D02*
X38950D01*
X26483Y36914D02*
Y37917D01*
X26400Y38000D02*
X26483Y37917D01*
Y35086D02*
X27786D01*
X28000Y35300D01*
X32700D02*
X33000Y35000D01*
X18575Y35300D02*
X19275Y36000D01*
X17000Y35300D02*
X18575D01*
X16700Y35000D02*
X17000Y35300D01*
X12000Y35000D02*
X16700D01*
X33000D02*
X33200Y35200D01*
X35350D02*
X37000Y36850D01*
X33200Y35200D02*
X35350D01*
X29000Y31300D02*
X29250Y31050D01*
X30675D01*
X42250Y28550D02*
Y29600D01*
X42200Y31400D02*
X42250Y31350D01*
Y29600D02*
Y31350D01*
X43700Y32300D02*
Y34400D01*
X44600D01*
X46800Y32000D02*
X47550Y31250D01*
X46600Y25060D02*
X48000Y23660D01*
X14200Y19400D02*
X15400Y18200D01*
X17300D01*
X4250Y26000D02*
X4250Y26000D01*
X2700Y26000D02*
X4250D01*
X4850Y19300D02*
X6200D01*
X6500Y19600D02*
X7900Y21000D01*
X6300Y19400D02*
X6400Y19500D01*
X7900Y21000D02*
X14900D01*
X6500Y19600D02*
X6700Y19400D01*
X14200D01*
X6300D02*
X6700D01*
X18600Y29600D02*
X20700Y27500D01*
X8600Y29600D02*
X18600D01*
X28000Y35300D02*
X32700D01*
X18700Y26900D02*
X28200D01*
X20700Y27500D02*
X44700D01*
X22725Y36000D02*
X23639Y36914D01*
X25517D01*
X10200Y35000D02*
X12000D01*
X8350Y36850D02*
X10200Y35000D01*
X8000Y30200D02*
Y31150D01*
Y30200D02*
X8600Y29600D01*
X35400Y8000D02*
X35800D01*
X34000Y8551D02*
X35751Y6800D01*
X34000Y8551D02*
Y10200D01*
X35751Y6800D02*
X36000D01*
X34800Y8600D02*
X35400Y8000D01*
X34800Y8600D02*
Y9600D01*
G54D32*
X37000Y35000D02*
Y36850D01*
X34000Y32000D02*
X37000Y35000D01*
X33325Y32000D02*
X34000D01*
X5750Y6050D02*
Y8000D01*
X17300Y20900D02*
X20800Y24400D01*
X17300Y19000D02*
Y20900D01*
X20800Y24400D02*
Y25449D01*
X25800Y25800D02*
X26200Y25400D01*
X21151Y25800D02*
X25800D01*
X20800Y25449D02*
X21151Y25800D01*
X4250Y10000D02*
X4250Y10000D01*
X2700Y10000D02*
X4250D01*
Y8000D02*
X4250Y8000D01*
X2700Y8000D02*
X4250D01*
X29097Y5400D02*
X43503D01*
X28931Y5000D02*
X43669D01*
X28766Y4600D02*
X43834D01*
X28600Y4200D02*
X44000D01*
X43503Y5400D02*
X44800Y6697D01*
X43669Y5000D02*
X45200Y6531D01*
X43834Y4600D02*
X45600Y6366D01*
X44000Y4200D02*
X46000Y6200D01*
X28766Y4600D02*
X28766Y4600D01*
X26866Y6500D02*
X28766Y4600D01*
X29097Y5400D02*
X29097Y5400D01*
X27197Y7300D02*
X29097Y5400D01*
X31400Y7800D02*
X32400Y8800D01*
X26400Y7800D02*
X31400D01*
X35600Y16000D02*
X35600Y16000D01*
X36975D01*
X35649Y15200D02*
X35949Y15500D01*
X35600Y15200D02*
X35649D01*
X35949Y15500D02*
X36975D01*
X35600Y11000D02*
X36975D01*
X35649Y10200D02*
X35949Y10500D01*
X35600Y10200D02*
X35649D01*
X35949Y10500D02*
X36975D01*
X35900Y9500D02*
X36975D01*
X35600Y8800D02*
X36014D01*
X40000Y9000D02*
X41025D01*
X40000Y14000D02*
X40200D01*
X40200Y14000D01*
X1300Y28000D02*
Y28300D01*
X2000Y29000D01*
X16225D01*
X17000Y28225D01*
X40200Y14000D02*
X41025D01*
X32000Y21000D02*
X32400D01*
X31800Y20800D02*
X32000Y21000D01*
X36975D02*
X36975Y21000D01*
X35600Y21000D02*
X36975D01*
X35649Y20200D02*
X35949Y20500D01*
X35600Y20200D02*
X35649D01*
X35949Y20500D02*
X36975D01*
X35900Y19500D02*
X36975D01*
X36214Y19000D02*
X36975D01*
X36014Y18800D02*
X36214Y19000D01*
X35600Y18800D02*
X35800Y18800D01*
X40000Y24000D02*
X41025D01*
Y10500D02*
X42100D01*
X41025Y15500D02*
X42100D01*
X41025Y20500D02*
X42100D01*
X28700Y12600D02*
X31200D01*
X32400Y11000D01*
X26883Y28000D02*
X41000D01*
X27049Y28400D02*
X39400D01*
X27214Y28800D02*
X37800D01*
X38600Y29600D01*
X43000Y26000D02*
X45400Y23600D01*
X41025Y26000D02*
X43000D01*
X41025Y25500D02*
X42100D01*
X42200Y25000D02*
X42400Y24800D01*
X18800Y30200D02*
X20600Y28400D01*
X13400Y30200D02*
X18800D01*
X16600Y4600D02*
X18000Y6000D01*
Y9000D01*
X27700Y9300D02*
X28000Y9000D01*
X27000Y9300D02*
X27700D01*
X23000Y4050D02*
X24450Y2600D01*
X22200Y4200D02*
Y6800D01*
X20600Y2600D02*
X22200Y4200D01*
X23000Y4050D02*
Y9300D01*
X20350Y2600D02*
X20600D01*
X22200Y6800D02*
X22200Y6800D01*
X22200Y6800D02*
Y9300D01*
X32400Y25200D02*
Y26200D01*
X31000Y29200D02*
X32850Y31050D01*
X27380Y29200D02*
X31000D01*
X32400Y22400D02*
Y23800D01*
Y17600D02*
Y18800D01*
Y15000D02*
Y16000D01*
X28700Y13400D02*
X32000D01*
X32400Y13800D01*
X43993Y36000D02*
X46393Y33600D01*
X43750Y36000D02*
X43993D01*
X45793Y33000D02*
X46393Y33600D01*
X48400D01*
X46150Y32750D02*
X46250D01*
X45900Y32500D02*
X46150Y32750D01*
X48400Y33600D02*
X48800Y33200D01*
Y30600D02*
Y33200D01*
X47400Y29200D02*
X48800Y30600D01*
X45025Y33000D02*
X45793D01*
X46400Y30200D02*
Y30600D01*
X46000Y31000D02*
X46400Y30600D01*
X45025Y31000D02*
X46000D01*
X26100Y7300D02*
X27197D01*
X28600Y4200D02*
X28600Y4200D01*
X26700Y6100D02*
X28600Y4200D01*
X23800Y8049D02*
X25349Y6500D01*
X23800Y8049D02*
Y9300D01*
X9100Y6000D02*
X14900D01*
X16500D01*
X17200Y6700D01*
Y9200D01*
X13400D02*
X17200D01*
X7200Y4600D02*
X16600D01*
X33325Y31050D02*
X33425Y31150D01*
X44000Y32000D02*
X45025D01*
X43800Y32200D02*
X44000Y32000D01*
X11325Y31650D02*
X11675Y32000D01*
X10850Y31650D02*
X11325D01*
X10350Y31150D02*
X10850Y31650D01*
X8000Y31150D02*
X10350D01*
X35600Y23800D02*
X35800Y23800D01*
X31800Y22600D02*
Y24600D01*
X31000Y21800D02*
X31800Y22600D01*
X31400Y21400D02*
X32400Y22400D01*
X39894Y19000D02*
X41025D01*
X31800Y15800D02*
Y17000D01*
X31000Y15000D02*
X31800Y15800D01*
X28700Y15000D02*
X31000D01*
X31800Y17000D02*
X32400Y17600D01*
X31800Y17800D02*
Y20800D01*
Y24600D02*
X32400Y25200D01*
X28700Y19000D02*
Y21300D01*
X30600Y16600D02*
X31800Y17800D01*
X28700Y16600D02*
X30600D01*
X30400Y15800D02*
X30600D01*
X30600Y15800D01*
X28700Y21300D02*
X29000Y21600D01*
X31600Y14200D02*
X32400Y15000D01*
X28700Y15800D02*
X30600D01*
X28700Y14200D02*
X31600D01*
X26200Y8000D02*
X26400Y7800D01*
X26200Y8000D02*
Y9300D01*
X27000D02*
X27000Y9300D01*
X25700Y6900D02*
X27031D01*
X25349Y6500D02*
X26866D01*
X27031Y6900D02*
X28931Y5000D01*
X24900Y6100D02*
X26700D01*
X25400Y8000D02*
X26100Y7300D01*
X25400Y8000D02*
Y9300D01*
X24600Y8000D02*
X25700Y6900D01*
X24600Y8000D02*
Y9300D01*
X23800Y7200D02*
X24900Y6100D01*
X5750Y6050D02*
X7200Y4600D01*
X18800Y10800D02*
X19600D01*
X17200Y9200D02*
X18800Y10800D01*
X19000Y7800D02*
Y9300D01*
X19600Y10800D02*
X19800Y10600D01*
Y9300D02*
Y10600D01*
X11400Y11600D02*
X12400D01*
X13200Y10800D01*
Y9400D02*
X13400Y9200D01*
X11400Y14200D02*
X12951D01*
X14231Y15480D01*
X14400D01*
Y10400D02*
X15000Y11000D01*
X17300D01*
X13600Y11800D02*
X17300D01*
X12460Y12940D02*
X13600Y11800D01*
X11860Y12940D02*
X12460D01*
X14740Y12600D02*
X17300D01*
X14400Y12940D02*
X14740Y12600D01*
X13200Y9400D02*
Y10800D01*
X41025Y10000D02*
X42200D01*
Y11000D02*
X42400Y11200D01*
X41025Y11000D02*
X42200D01*
X41025Y15000D02*
X42200D01*
X41025Y16000D02*
X42200D01*
X42400Y16200D01*
X36214Y14000D02*
X36975D01*
X36014Y13800D02*
X36214Y14000D01*
X35800Y13800D02*
X36014D01*
X36214Y24000D02*
X36975D01*
X36014Y23800D02*
X36214Y24000D01*
X35800Y23800D02*
X36014D01*
X41025Y21000D02*
X42200D01*
X41025Y20000D02*
X42200D01*
X42400Y19800D01*
X42200Y21000D02*
X42400Y21200D01*
X41025Y25000D02*
X42200D01*
X35800Y26000D02*
X36975D01*
X36014Y8800D02*
X36214Y9000D01*
X36975D01*
X35600Y13800D02*
X35800Y13800D01*
X35900Y14500D02*
X36975D01*
X44800Y21200D02*
X45000Y21000D01*
X41025Y24500D02*
X41851D01*
X42151Y24200D01*
X42200D01*
X42400Y24000D01*
X41025Y19500D02*
X41851D01*
X42151Y19200D01*
X42200D01*
X42400Y19000D01*
X41025Y14500D02*
X41851D01*
X42151Y14200D01*
X42200D01*
X42400Y14000D01*
X42200Y15000D02*
X42400Y14800D01*
X41025Y9500D02*
X41851D01*
X42151Y9200D01*
X42200D01*
X42200Y10000D02*
X42400Y9800D01*
X42400D01*
X42200Y9200D02*
X42400Y9000D01*
X35800Y18800D02*
X36014D01*
X44800Y6697D02*
Y11200D01*
X45200Y6531D02*
Y10751D01*
X45600Y6366D02*
Y10586D01*
X45200Y10751D02*
X45400Y10951D01*
X45600Y10586D02*
X45800Y10786D01*
X46000Y6200D02*
Y10420D01*
X46200Y10620D01*
X45400Y10951D02*
Y15600D01*
X45000Y16000D02*
X45400Y15600D01*
X45000Y17034D02*
Y21000D01*
Y17034D02*
X45800Y16234D01*
Y10786D02*
Y16234D01*
X45400Y17200D02*
Y23600D01*
Y17200D02*
X46200Y16400D01*
Y10620D02*
Y16400D01*
X39800Y32000D02*
X40975D01*
X35900Y25500D02*
X36975D01*
X35900Y24500D02*
X36975D01*
X35600Y26200D02*
X35800Y26000D01*
X40975Y31500D02*
X42100D01*
X42200Y31400D01*
X40975Y33000D02*
X42000D01*
X42200Y33200D01*
X42100Y32500D02*
X42200Y32400D01*
X40975Y32500D02*
X42100D01*
X43900Y31500D02*
X45025D01*
X43750Y31350D02*
X43900Y31500D01*
X11675Y31050D02*
X12550D01*
X13400Y30200D01*
X31400Y18200D02*
Y21400D01*
X28700Y17400D02*
X30600D01*
X31000Y18600D02*
Y21800D01*
X30600Y17400D02*
X31400Y18200D01*
X28700Y18200D02*
X30000D01*
X30000Y18200D01*
X30600D01*
X31000Y18600D01*
X30400Y19000D02*
Y26200D01*
X30400Y26200D01*
X23000Y20700D02*
Y25200D01*
X32000Y32200D02*
X32750Y32950D01*
X33325D01*
X23800Y20700D02*
Y25200D01*
X32850Y31050D02*
X33325D01*
X24600Y20700D02*
Y25200D01*
X24600Y25200D01*
X33425Y31150D02*
X37000D01*
X25400Y20700D02*
Y25200D01*
X22200Y20700D02*
X22200Y20700D01*
X26200Y25200D02*
Y25400D01*
X25400Y28449D02*
X25951Y29000D01*
X21400Y20700D02*
Y25200D01*
X22200Y20700D02*
Y25200D01*
X23800Y25200D02*
X23800Y25200D01*
X25400Y25200D02*
X25400Y25200D01*
X24600Y28400D02*
Y28449D01*
X23000Y25200D02*
X23000Y25200D01*
Y28449D02*
X24751Y30200D01*
X23000Y28400D02*
Y28449D01*
X23800Y28400D02*
Y28449D01*
X20600Y28400D02*
X22200D01*
X25951Y29000D02*
X26449D01*
X26780Y29800D02*
X27380Y29200D01*
X26614Y29400D02*
X27214Y28800D01*
X26449Y29000D02*
X27049Y28400D01*
X26200D02*
X26483D01*
X26883Y28000D01*
X39400Y28400D02*
X40000Y29000D01*
Y31000D02*
X40975D01*
X38600Y29600D02*
X40000Y31000D01*
X41000Y28000D02*
X41200Y28200D01*
X45025Y32500D02*
X45900D01*
X40000Y29000D02*
X41200D01*
X45200D02*
X46400Y30200D01*
X9200Y18400D02*
X9600Y18000D01*
X10600Y13400D02*
X11400Y14200D01*
X10600Y12400D02*
Y13400D01*
Y12400D02*
X11400Y11600D01*
X9200Y16800D02*
X9600Y17200D01*
X15566Y16600D02*
X17300D01*
X15331Y17400D02*
X17300D01*
X14731Y18000D02*
X15331Y17400D01*
X9600Y17200D02*
X14966D01*
X15566Y16600D01*
X9600Y18000D02*
X14731D01*
X14800Y16800D02*
X15600Y16000D01*
X11151Y16800D02*
X14800D01*
X5750Y10000D02*
Y11399D01*
X11151Y16800D01*
X7350Y18650D02*
X7600Y18400D01*
X4850Y18000D02*
X6400D01*
X7600Y16800D01*
X1300Y25700D02*
Y26000D01*
Y25700D02*
X2200Y24800D01*
X5600D01*
X4850Y18650D02*
X7350D01*
X6500Y19600D02*
Y23900D01*
X5600Y24800D02*
X6500Y23900D01*
X6400Y19500D02*
Y19600D01*
X27546Y29600D02*
X30800D01*
X32000Y30800D01*
Y32200D01*
X26946Y30200D02*
X27546Y29600D01*
X18800Y30200D02*
X20700Y32100D01*
X25400Y28400D02*
Y28449D01*
X24751Y30200D02*
X26946D01*
X24600Y28449D02*
X25551Y29400D01*
X26614D01*
X23800Y28449D02*
X25151Y29800D01*
X26780D01*
X21300Y33651D02*
X24751Y30200D01*
X31000Y39000D02*
X32000Y40000D01*
Y41000D01*
X21300Y33651D02*
Y37300D01*
X23000Y39000D01*
X31000D01*
X20000Y38000D02*
Y41000D01*
Y38000D02*
X20700Y37300D01*
Y32100D02*
Y37300D01*
X37000Y31150D02*
Y34000D01*
Y31150D02*
X37000Y31150D01*
X10450Y32950D02*
X11675D01*
X8000Y35400D02*
X10450Y32950D01*
X8000Y35400D02*
Y36850D01*
X12200Y39200D02*
X14000Y41000D01*
X6400Y39200D02*
X12200D01*
X5600Y38400D02*
X6400Y39200D01*
X5600Y33550D02*
Y38400D01*
Y33550D02*
X8000Y31150D01*
X39200Y36200D02*
Y37800D01*
X37000Y34000D02*
X39200Y36200D01*
X36000Y41000D02*
X39200Y37800D01*
X16526Y13400D02*
X17300D01*
X15600Y14326D02*
Y16000D01*
Y14326D02*
X16526Y13400D01*
G54D33*
X48000Y21120D02*
D03*
Y23660D02*
D03*
Y7460D02*
D03*
X11860Y15480D02*
D03*
X14400D02*
D03*
X11860Y12940D02*
D03*
X14400D02*
D03*
X11860Y10400D02*
D03*
X40260Y3000D02*
D03*
X37720D02*
D03*
X35180D02*
D03*
G54D34*
X48000Y26200D02*
D03*
Y10000D02*
D03*
X14400Y10400D02*
D03*
G54D35*
X42800Y3000D02*
D03*
G54D36*
X47000Y42000D02*
D03*
X3000D02*
D03*
X47000Y3000D02*
D03*
X3000D02*
D03*
G54D37*
X18000Y28200D02*
D03*
X17000Y32700D02*
D03*
X42200Y36800D02*
D03*
X10600Y37000D02*
D03*
X21400Y27800D02*
D03*
X4600Y15200D02*
D03*
X3600Y16200D02*
D03*
X6400D02*
D03*
X5400Y15200D02*
D03*
X10000Y8000D02*
D03*
X14000D02*
D03*
X8000D02*
D03*
X9000D02*
D03*
Y13000D02*
D03*
X7000Y11000D02*
D03*
X8000Y12000D02*
D03*
X39000Y10600D02*
D03*
X39400Y10000D02*
D03*
X38600D02*
D03*
X39000Y15600D02*
D03*
X39400Y15000D02*
D03*
X38600D02*
D03*
X39000Y20600D02*
D03*
X39400Y20000D02*
D03*
X38600D02*
D03*
X39000Y25600D02*
D03*
X39400Y25000D02*
D03*
X38600D02*
D03*
X35600Y11800D02*
D03*
X41000Y6800D02*
D03*
X37000D02*
D03*
X36000D02*
D03*
X42000D02*
D03*
X32000Y7000D02*
D03*
X31000D02*
D03*
Y6000D02*
D03*
X32000D02*
D03*
X36000Y1000D02*
D03*
X35600Y16000D02*
D03*
Y11000D02*
D03*
Y10200D02*
D03*
Y8800D02*
D03*
X10000Y14600D02*
D03*
X26000Y15000D02*
D03*
X27000Y19200D02*
D03*
X10000Y20200D02*
D03*
X33200Y11800D02*
D03*
Y16800D02*
D03*
X35600D02*
D03*
X33200Y21800D02*
D03*
X35600D02*
D03*
X29000Y26800D02*
D03*
X29000Y30200D02*
D03*
X44400Y26600D02*
D03*
X32400Y21000D02*
D03*
X35600D02*
D03*
X34000Y20200D02*
D03*
X35600D02*
D03*
Y18800D02*
D03*
X37600Y26800D02*
D03*
Y33600D02*
D03*
X34000Y10200D02*
D03*
X42400Y24800D02*
D03*
X18000Y9000D02*
D03*
X28000D02*
D03*
X26200Y19200D02*
D03*
X19800D02*
D03*
X18800Y15800D02*
D03*
X20800Y13200D02*
D03*
X27200Y11000D02*
D03*
X46400Y32000D02*
D03*
X20600Y19200D02*
D03*
X35600Y23800D02*
D03*
X32400Y18800D02*
D03*
X30400Y15800D02*
D03*
X29000Y21600D02*
D03*
X32400Y16000D02*
D03*
X34000Y15200D02*
D03*
X35600D02*
D03*
X23800Y7200D02*
D03*
X32400Y8800D02*
D03*
X19000Y7800D02*
D03*
X12000Y6200D02*
D03*
Y7800D02*
D03*
X20600Y10800D02*
D03*
X21400D02*
D03*
X19000Y19200D02*
D03*
X18800Y18200D02*
D03*
X27200Y11800D02*
D03*
X25200Y16800D02*
D03*
X20800D02*
D03*
X42400Y11200D02*
D03*
Y16200D02*
D03*
Y19800D02*
D03*
Y21200D02*
D03*
X32400Y26200D02*
D03*
Y23800D02*
D03*
Y13800D02*
D03*
Y11000D02*
D03*
X35600Y13800D02*
D03*
X46000Y19800D02*
D03*
X44800Y21200D02*
D03*
X42400Y24000D02*
D03*
X44000D02*
D03*
X42400Y19000D02*
D03*
X44000D02*
D03*
X42400Y14000D02*
D03*
X44000D02*
D03*
X42400Y14800D02*
D03*
X45000Y16000D02*
D03*
X42400Y9800D02*
D03*
Y9000D02*
D03*
X44000D02*
D03*
X44800Y11200D02*
D03*
X45200Y24800D02*
D03*
X18800Y15000D02*
D03*
X35600Y26200D02*
D03*
X43000Y32000D02*
D03*
X30400Y19000D02*
D03*
X30400Y26200D02*
D03*
X24600Y25200D02*
D03*
X26200D02*
D03*
Y28400D02*
D03*
X21400Y25200D02*
D03*
X22200Y25200D02*
D03*
X23800D02*
D03*
X25400D02*
D03*
X24600Y28400D02*
D03*
X23000Y25200D02*
D03*
Y28400D02*
D03*
X23800D02*
D03*
X22200Y28400D02*
D03*
X41200Y28200D02*
D03*
X44600Y34400D02*
D03*
X47400Y29200D02*
D03*
X41200Y29000D02*
D03*
X45200D02*
D03*
X7400Y26200D02*
D03*
X8800D02*
D03*
X7400Y23800D02*
D03*
X8800D02*
D03*
Y25400D02*
D03*
Y24600D02*
D03*
X7400Y25400D02*
D03*
Y24600D02*
D03*
X12000Y25000D02*
D03*
X15800Y25800D02*
D03*
Y25000D02*
D03*
Y26600D02*
D03*
X14800Y26200D02*
D03*
X14000D02*
D03*
X13200D02*
D03*
Y23800D02*
D03*
X14000D02*
D03*
X14800D02*
D03*
X12000Y24200D02*
D03*
Y25800D02*
D03*
X34400Y37000D02*
D03*
X31600D02*
D03*
X30200Y38400D02*
D03*
X33000D02*
D03*
X28000Y37600D02*
D03*
X17000Y37800D02*
D03*
X13400Y37000D02*
D03*
X17000Y30800D02*
D03*
Y31800D02*
D03*
X28600Y33600D02*
D03*
X26200D02*
D03*
X30000Y7000D02*
D03*
Y6000D02*
D03*
X49000Y18000D02*
D03*
Y16000D02*
D03*
Y14000D02*
D03*
Y12000D02*
D03*
X41000Y44000D02*
D03*
X39000D02*
D03*
X37000Y44000D02*
D03*
X35000D02*
D03*
X33000D02*
D03*
X31000D02*
D03*
X29000D02*
D03*
X27000D02*
D03*
X25000D02*
D03*
X23000D02*
D03*
X21000D02*
D03*
X19000D02*
D03*
X17000D02*
D03*
X15000D02*
D03*
X13000D02*
D03*
X11000D02*
D03*
X9000D02*
D03*
X49000Y20000D02*
D03*
Y22000D02*
D03*
Y29000D02*
D03*
X1000Y33000D02*
D03*
Y31000D02*
D03*
Y6000D02*
D03*
X28000Y1000D02*
D03*
X30000D02*
D03*
X32000D02*
D03*
X34000D02*
D03*
X38000D02*
D03*
X44000D02*
D03*
X42000D02*
D03*
X40000D02*
D03*
X16000D02*
D03*
X14000D02*
D03*
X6000D02*
D03*
X8000D02*
D03*
X10000D02*
D03*
X12000D02*
D03*
X49000Y6000D02*
D03*
X5800Y27000D02*
D03*
X1000Y29000D02*
D03*
Y27000D02*
D03*
Y25000D02*
D03*
Y11000D02*
D03*
Y9000D02*
D03*
Y16000D02*
D03*
Y18000D02*
D03*
Y20000D02*
D03*
X6400Y17000D02*
D03*
X3600D02*
D03*
X30000Y9000D02*
D03*
X31000D02*
D03*
Y10000D02*
D03*
X30000D02*
D03*
X16000Y8000D02*
D03*
X15000D02*
D03*
X26200Y36000D02*
D03*
X25400D02*
D03*
X29400Y33600D02*
D03*
X25400Y28400D02*
D03*
Y33600D02*
D03*
X24600D02*
D03*
Y34400D02*
D03*
Y36000D02*
D03*
Y35200D02*
D03*
X1000Y35000D02*
D03*
X49000D02*
D03*
X12000Y38400D02*
D03*
X14800D02*
D03*
X7000Y44000D02*
D03*
X43000D02*
D03*
X1000Y39000D02*
D03*
Y37000D02*
D03*
X49000Y39000D02*
D03*
Y37000D02*
D03*
G54D38*
X26400Y38000D02*
D03*
X6500Y19600D02*
D03*
M02*
