%FSLAX43Y43*%
%MOMM*%
G71*
G01*
G75*
G04 Layer_Physical_Order=2*
G04 Layer_Color=16711680*
%ADD10R,3.650X2.050*%
%ADD11R,1.400X0.400*%
%ADD12R,1.900X2.300*%
%ADD13R,1.900X2.400*%
%ADD14R,0.900X1.000*%
%ADD15R,0.900X0.800*%
%ADD16R,0.800X0.900*%
%ADD17R,0.700X0.900*%
%ADD18R,3.000X1.000*%
%ADD19O,1.550X0.250*%
%ADD20R,0.900X0.700*%
%ADD21R,3.300X1.100*%
%ADD22R,1.500X1.400*%
%ADD23R,1.050X0.600*%
%ADD24R,2.250X2.100*%
%ADD25R,1.250X1.950*%
%ADD26O,0.600X2.050*%
%ADD27O,2.050X0.600*%
%ADD28R,2.150X3.200*%
%ADD29R,2.150X0.900*%
%ADD30R,0.559X0.711*%
%ADD31C,0.200*%
%ADD32C,0.400*%
%ADD33C,5.000*%
%ADD34C,1.500*%
%ADD35R,1.500X1.500*%
%ADD36R,1.500X1.500*%
%ADD37C,0.600*%
%ADD38C,1.000*%
%ADD39R,0.450X0.900*%
%ADD40R,3.300X1.400*%
%ADD41R,0.600X1.000*%
G36*
X45915Y44473D02*
X45770Y44413D01*
X45408Y44191D01*
X45085Y43915D01*
X44809Y43592D01*
X44587Y43230D01*
X44424Y42837D01*
X44325Y42424D01*
X44292Y42000D01*
X44325Y41576D01*
X44424Y41163D01*
X44587Y40770D01*
X44809Y40408D01*
X45085Y40085D01*
X45408Y39809D01*
X45770Y39587D01*
X46163Y39424D01*
X46576Y39325D01*
X47000Y39292D01*
X47424Y39325D01*
X47837Y39424D01*
X48230Y39587D01*
X48592Y39809D01*
X48915Y40085D01*
X49191Y40408D01*
X49413Y40770D01*
X49473Y40915D01*
X49600Y40890D01*
X49600Y4110D01*
X49473Y4085D01*
X49413Y4230D01*
X49191Y4592D01*
X48915Y4915D01*
X48592Y5191D01*
X48230Y5413D01*
X47837Y5576D01*
X47424Y5675D01*
X47000Y5708D01*
X46576Y5675D01*
X46163Y5576D01*
X45770Y5413D01*
X45408Y5191D01*
X45085Y4915D01*
X44809Y4592D01*
X44587Y4230D01*
X44424Y3837D01*
X44325Y3424D01*
X44292Y3000D01*
X44325Y2576D01*
X44424Y2163D01*
X44587Y1770D01*
X44809Y1408D01*
X45085Y1085D01*
X45408Y809D01*
X45770Y587D01*
X45915Y527D01*
X45890Y400D01*
X4110D01*
X4085Y527D01*
X4230Y587D01*
X4592Y809D01*
X4915Y1085D01*
X5191Y1408D01*
X5413Y1770D01*
X5576Y2163D01*
X5675Y2576D01*
X5708Y3000D01*
X5675Y3424D01*
X5576Y3837D01*
X5413Y4230D01*
X5191Y4592D01*
X4915Y4915D01*
X4592Y5191D01*
X4230Y5413D01*
X3837Y5576D01*
X3424Y5675D01*
X3000Y5708D01*
X2576Y5675D01*
X2163Y5576D01*
X1770Y5413D01*
X1408Y5191D01*
X1085Y4915D01*
X809Y4592D01*
X587Y4230D01*
X527Y4085D01*
X400Y4110D01*
X400Y40890D01*
X527Y40915D01*
X587Y40770D01*
X809Y40408D01*
X1085Y40085D01*
X1408Y39809D01*
X1770Y39587D01*
X2163Y39424D01*
X2576Y39325D01*
X3000Y39292D01*
X3424Y39325D01*
X3837Y39424D01*
X4230Y39587D01*
X4592Y39809D01*
X4915Y40085D01*
X5191Y40408D01*
X5413Y40770D01*
X5576Y41163D01*
X5675Y41576D01*
X5708Y42000D01*
X5675Y42424D01*
X5576Y42837D01*
X5413Y43230D01*
X5191Y43592D01*
X4915Y43915D01*
X4592Y44191D01*
X4230Y44413D01*
X4085Y44473D01*
X4110Y44600D01*
X45890D01*
X45915Y44473D01*
D02*
G37*
%LPC*%
G36*
X14400Y13898D02*
X14152Y13866D01*
X13921Y13770D01*
X13722Y13618D01*
X13570Y13419D01*
X13474Y13188D01*
X13442Y12940D01*
X13474Y12692D01*
X13570Y12461D01*
X13722Y12262D01*
X13921Y12110D01*
X14152Y12014D01*
X14400Y11982D01*
X14648Y12014D01*
X14879Y12110D01*
X15078Y12262D01*
X15230Y12461D01*
X15326Y12692D01*
X15358Y12940D01*
X15326Y13188D01*
X15230Y13419D01*
X15078Y13618D01*
X14879Y13770D01*
X14648Y13866D01*
X14400Y13898D01*
D02*
G37*
G36*
X11860D02*
X11612Y13866D01*
X11381Y13770D01*
X11182Y13618D01*
X11030Y13419D01*
X10934Y13188D01*
X10902Y12940D01*
X10934Y12692D01*
X11030Y12461D01*
X11182Y12262D01*
X11381Y12110D01*
X11612Y12014D01*
X11860Y11982D01*
X12108Y12014D01*
X12339Y12110D01*
X12538Y12262D01*
X12690Y12461D01*
X12786Y12692D01*
X12818Y12940D01*
X12786Y13188D01*
X12690Y13419D01*
X12538Y13618D01*
X12339Y13770D01*
X12108Y13866D01*
X11860Y13898D01*
D02*
G37*
G36*
X28850Y11300D02*
X28300D01*
Y10800D01*
X28850D01*
Y11300D01*
D02*
G37*
G36*
X37850Y13700D02*
X37400D01*
Y13150D01*
X37850D01*
Y13700D01*
D02*
G37*
G36*
X28850Y12700D02*
X27550D01*
Y12320D01*
X27423Y12252D01*
X27395Y12271D01*
X27200Y12310D01*
X27005Y12271D01*
X26840Y12160D01*
X26729Y11995D01*
X26690Y11800D01*
X26729Y11605D01*
X26840Y11440D01*
X27005Y11329D01*
X27200Y11290D01*
X27395Y11329D01*
X27450Y11366D01*
X27550Y11280D01*
X27550Y11265D01*
Y10800D01*
X28100D01*
Y11304D01*
X28060Y11418D01*
X28062Y11427D01*
X28171Y11500D01*
X28850D01*
Y12700D01*
D02*
G37*
G36*
X35600Y12310D02*
X35405Y12271D01*
X35310Y12208D01*
X33490D01*
X33395Y12271D01*
X33200Y12310D01*
X33005Y12271D01*
X32840Y12160D01*
X32729Y11995D01*
X32690Y11800D01*
X32729Y11605D01*
X32814Y11477D01*
X32723Y11386D01*
X32595Y11471D01*
X32400Y11510D01*
X32205Y11471D01*
X32040Y11360D01*
X31929Y11195D01*
X31890Y11000D01*
X31929Y10805D01*
X32040Y10640D01*
X32205Y10529D01*
X32400Y10490D01*
X32595Y10529D01*
X32760Y10640D01*
X32797Y10694D01*
X33611D01*
X33649Y10567D01*
X33640Y10560D01*
X33529Y10395D01*
X33490Y10200D01*
X33529Y10005D01*
X33640Y9840D01*
X33805Y9729D01*
X34000Y9690D01*
X34195Y9729D01*
X34290Y9792D01*
X35310D01*
X35405Y9729D01*
X35600Y9690D01*
X35795Y9729D01*
X35960Y9840D01*
X36071Y10005D01*
X36110Y10200D01*
X36071Y10395D01*
X35995Y10510D01*
X35971Y10600D01*
X35995Y10690D01*
X36071Y10805D01*
X36110Y11000D01*
X36071Y11195D01*
X35995Y11310D01*
X35971Y11400D01*
X35995Y11490D01*
X36071Y11605D01*
X36110Y11800D01*
X36071Y11995D01*
X35960Y12160D01*
X35795Y12271D01*
X35600Y12310D01*
D02*
G37*
G36*
X22300Y10450D02*
X21800D01*
Y9900D01*
X22300D01*
Y10450D01*
D02*
G37*
G36*
X15350Y11350D02*
X13450D01*
Y9450D01*
X15350D01*
Y11350D01*
D02*
G37*
G36*
X11860Y11358D02*
X11612Y11326D01*
X11381Y11230D01*
X11182Y11078D01*
X11030Y10879D01*
X10934Y10648D01*
X10902Y10400D01*
X10934Y10152D01*
X11030Y9921D01*
X11182Y9722D01*
X11381Y9570D01*
X11612Y9474D01*
X11860Y9442D01*
X12108Y9474D01*
X12339Y9570D01*
X12538Y9722D01*
X12690Y9921D01*
X12786Y10152D01*
X12818Y10400D01*
X12786Y10648D01*
X12690Y10879D01*
X12538Y11078D01*
X12339Y11230D01*
X12108Y11326D01*
X11860Y11358D01*
D02*
G37*
G36*
X42400Y11710D02*
X42205Y11671D01*
X42040Y11560D01*
X41929Y11395D01*
X41890Y11200D01*
X41929Y11005D01*
X42040Y10840D01*
X42205Y10729D01*
X42400Y10690D01*
X42595Y10729D01*
X42760Y10840D01*
X42797Y10894D01*
X44403D01*
X44440Y10840D01*
X44605Y10729D01*
X44800Y10690D01*
X44995Y10729D01*
X45160Y10840D01*
X45271Y11005D01*
X45310Y11200D01*
X45271Y11395D01*
X45160Y11560D01*
X44995Y11671D01*
X44800Y11710D01*
X44605Y11671D01*
X44440Y11560D01*
X44403Y11506D01*
X42797D01*
X42760Y11560D01*
X42595Y11671D01*
X42400Y11710D01*
D02*
G37*
G36*
X28850Y10600D02*
X28300D01*
Y10100D01*
X28850D01*
Y10600D01*
D02*
G37*
G36*
X28100D02*
X27550D01*
Y10100D01*
X28100D01*
Y10600D01*
D02*
G37*
G36*
X38500Y13700D02*
X38050D01*
Y13150D01*
X38500D01*
Y13700D01*
D02*
G37*
G36*
X11760Y15380D02*
X10915D01*
X10934Y15232D01*
X11030Y15001D01*
X11182Y14802D01*
X11381Y14650D01*
X11612Y14554D01*
X11760Y14535D01*
Y15380D01*
D02*
G37*
G36*
X14400Y16438D02*
X14152Y16406D01*
X13921Y16310D01*
X13722Y16158D01*
X13570Y15959D01*
X13474Y15728D01*
X13442Y15480D01*
X13474Y15232D01*
X13570Y15001D01*
X13722Y14802D01*
X13921Y14650D01*
X14152Y14554D01*
X14400Y14522D01*
X14648Y14554D01*
X14879Y14650D01*
X15078Y14802D01*
X15230Y15001D01*
X15326Y15232D01*
X15358Y15480D01*
X15326Y15728D01*
X15230Y15959D01*
X15078Y16158D01*
X14879Y16310D01*
X14648Y16406D01*
X14400Y16438D01*
D02*
G37*
G36*
X18450Y15800D02*
X17900D01*
Y15335D01*
X17946Y15223D01*
X17773Y15050D01*
X17150D01*
Y13950D01*
X18450D01*
Y14480D01*
X18577Y14548D01*
X18605Y14529D01*
X18800Y14490D01*
X18995Y14529D01*
X19160Y14640D01*
X19271Y14805D01*
X19310Y15000D01*
X19271Y15195D01*
X19160Y15360D01*
X18995Y15471D01*
X18800Y15510D01*
X18605Y15471D01*
X18577Y15452D01*
X18450Y15520D01*
Y15800D01*
D02*
G37*
G36*
X17700D02*
X17150D01*
Y15350D01*
X17700D01*
Y15800D01*
D02*
G37*
G36*
X30400Y19510D02*
X30205Y19471D01*
X30039Y19360D01*
X29929Y19195D01*
X29890Y19000D01*
X29929Y18805D01*
X30039Y18639D01*
X30094Y18603D01*
Y16197D01*
X30040Y16160D01*
X29929Y15995D01*
X29890Y15800D01*
X29929Y15605D01*
X30040Y15440D01*
X30205Y15329D01*
X30400Y15290D01*
X30595Y15329D01*
X30760Y15440D01*
X30871Y15605D01*
X30910Y15800D01*
X30871Y15995D01*
X30760Y16160D01*
X30706Y16197D01*
Y18603D01*
X30760Y18639D01*
X30871Y18805D01*
X30910Y19000D01*
X30871Y19195D01*
X30760Y19360D01*
X30595Y19471D01*
X30400Y19510D01*
D02*
G37*
G36*
X12805Y15380D02*
X11960D01*
Y14535D01*
X12108Y14554D01*
X12339Y14650D01*
X12538Y14802D01*
X12690Y15001D01*
X12786Y15232D01*
X12805Y15380D01*
D02*
G37*
G36*
X38500Y14450D02*
X38050D01*
Y13900D01*
X38500D01*
Y14450D01*
D02*
G37*
G36*
X37850D02*
X37400D01*
Y13900D01*
X37850D01*
Y14450D01*
D02*
G37*
G36*
X26000Y15510D02*
X25805Y15471D01*
X25640Y15360D01*
X25529Y15195D01*
X25507Y15084D01*
X24423Y14000D01*
X21150D01*
Y13720D01*
X21023Y13652D01*
X20995Y13671D01*
X20800Y13710D01*
X20605Y13671D01*
X20440Y13560D01*
X20329Y13395D01*
X20290Y13200D01*
X20329Y13005D01*
X20440Y12840D01*
X20605Y12729D01*
X20800Y12690D01*
X20995Y12729D01*
X21023Y12748D01*
X21150Y12680D01*
Y12200D01*
X24850D01*
Y13273D01*
X26084Y14507D01*
X26195Y14529D01*
X26360Y14640D01*
X26471Y14805D01*
X26510Y15000D01*
X26471Y15195D01*
X26360Y15360D01*
X26195Y15471D01*
X26000Y15510D01*
D02*
G37*
G36*
X44000Y14510D02*
X43805Y14471D01*
X43710Y14408D01*
X42690D01*
X42595Y14471D01*
X42400Y14510D01*
X42205Y14471D01*
X42040Y14360D01*
X41929Y14195D01*
X41890Y14000D01*
X41929Y13805D01*
X42040Y13640D01*
X42205Y13529D01*
X42400Y13490D01*
X42595Y13529D01*
X42690Y13592D01*
X43710D01*
X43805Y13529D01*
X44000Y13490D01*
X44195Y13529D01*
X44360Y13640D01*
X44471Y13805D01*
X44510Y14000D01*
X44471Y14195D01*
X44360Y14360D01*
X44195Y14471D01*
X44000Y14510D01*
D02*
G37*
G36*
X37000Y14450D02*
X35900D01*
Y14342D01*
X35773Y14275D01*
X35600Y14310D01*
X35405Y14271D01*
X35240Y14160D01*
X35203Y14106D01*
X32797D01*
X32760Y14160D01*
X32595Y14271D01*
X32400Y14310D01*
X32205Y14271D01*
X32040Y14160D01*
X31929Y13995D01*
X31890Y13800D01*
X31929Y13605D01*
X32040Y13440D01*
X32205Y13329D01*
X32400Y13290D01*
X32595Y13329D01*
X32760Y13440D01*
X32797Y13494D01*
X35203D01*
X35240Y13440D01*
X35405Y13329D01*
X35600Y13290D01*
X35773Y13325D01*
X35900Y13258D01*
Y13150D01*
X37000D01*
Y14450D01*
D02*
G37*
G36*
X10000Y20710D02*
X9805Y20671D01*
X9640Y20560D01*
X9529Y20395D01*
X9490Y20200D01*
X9529Y20005D01*
X9592Y19910D01*
Y14890D01*
X9529Y14795D01*
X9490Y14600D01*
X9529Y14405D01*
X9640Y14240D01*
X9805Y14129D01*
X10000Y14090D01*
X10195Y14129D01*
X10360Y14240D01*
X10471Y14405D01*
X10510Y14600D01*
X10471Y14795D01*
X10408Y14890D01*
Y19910D01*
X10471Y20005D01*
X10510Y20200D01*
X10471Y20395D01*
X10360Y20560D01*
X10195Y20671D01*
X10000Y20710D01*
D02*
G37*
G36*
X42700Y7400D02*
X42375D01*
Y7304D01*
X42248Y7236D01*
X42195Y7271D01*
X42000Y7310D01*
X41805Y7271D01*
X41640Y7160D01*
X41576Y7066D01*
X41424D01*
X41360Y7160D01*
X41195Y7271D01*
X41000Y7310D01*
X40805Y7271D01*
X40752Y7236D01*
X40625Y7304D01*
Y7400D01*
X40300D01*
Y6850D01*
X40307D01*
X40356Y6733D01*
X39912Y6288D01*
X39823Y6156D01*
X39818Y6130D01*
X39806Y6069D01*
X39775Y5950D01*
X39775Y5950D01*
Y5950D01*
D01*
X39775Y5832D01*
Y4650D01*
X39792D01*
Y3834D01*
X39781Y3830D01*
X39582Y3678D01*
X39430Y3479D01*
X39334Y3248D01*
X39302Y3000D01*
X39334Y2752D01*
X39430Y2521D01*
X39582Y2322D01*
X39781Y2170D01*
X40012Y2074D01*
X40260Y2042D01*
X40508Y2074D01*
X40739Y2170D01*
X40938Y2322D01*
X41090Y2521D01*
X41186Y2752D01*
X41218Y3000D01*
X41186Y3248D01*
X41090Y3479D01*
X40938Y3678D01*
X40739Y3830D01*
X40608Y3884D01*
Y4650D01*
X40625D01*
Y5848D01*
X41084Y6307D01*
X41195Y6329D01*
X41360Y6440D01*
X41424Y6534D01*
X41576D01*
X41640Y6440D01*
X41805Y6329D01*
X41916Y6307D01*
X42375Y5848D01*
Y4650D01*
X42392D01*
Y3950D01*
X41850D01*
Y2050D01*
X43750D01*
Y3950D01*
X43208D01*
Y4650D01*
X43225D01*
Y5950D01*
X43208D01*
Y6000D01*
X43177Y6156D01*
X43088Y6288D01*
X42644Y6733D01*
X42693Y6850D01*
X42700D01*
Y7400D01*
D02*
G37*
G36*
X37700D02*
X37375D01*
Y7304D01*
X37248Y7236D01*
X37195Y7271D01*
X37000Y7310D01*
X36805Y7271D01*
X36640Y7160D01*
X36576Y7066D01*
X36424D01*
X36360Y7160D01*
X36195Y7271D01*
X36000Y7310D01*
X35805Y7271D01*
X35752Y7236D01*
X35625Y7304D01*
Y7400D01*
X35300D01*
Y6850D01*
X35307D01*
X35356Y6733D01*
X34912Y6288D01*
X34823Y6156D01*
X34818Y6130D01*
X34806Y6069D01*
X34775Y5950D01*
X34775Y5950D01*
Y5950D01*
D01*
X34775Y5832D01*
Y4650D01*
X34792D01*
Y3868D01*
X34701Y3830D01*
X34502Y3678D01*
X34350Y3479D01*
X34254Y3248D01*
X34222Y3000D01*
X34254Y2752D01*
X34350Y2521D01*
X34502Y2322D01*
X34701Y2170D01*
X34932Y2074D01*
X35180Y2042D01*
X35428Y2074D01*
X35659Y2170D01*
X35858Y2322D01*
X36010Y2521D01*
X36106Y2752D01*
X36138Y3000D01*
X36106Y3248D01*
X36010Y3479D01*
X35858Y3678D01*
X35659Y3830D01*
X35608Y3851D01*
Y4650D01*
X35625D01*
Y5848D01*
X36084Y6307D01*
X36195Y6329D01*
X36360Y6440D01*
X36424Y6534D01*
X36576D01*
X36640Y6440D01*
X36805Y6329D01*
X36916Y6307D01*
X37375Y5848D01*
Y4650D01*
X37392D01*
Y3892D01*
X37241Y3830D01*
X37042Y3678D01*
X36890Y3479D01*
X36794Y3248D01*
X36762Y3000D01*
X36794Y2752D01*
X36890Y2521D01*
X37042Y2322D01*
X37241Y2170D01*
X37472Y2074D01*
X37720Y2042D01*
X37968Y2074D01*
X38199Y2170D01*
X38398Y2322D01*
X38550Y2521D01*
X38646Y2752D01*
X38678Y3000D01*
X38646Y3248D01*
X38550Y3479D01*
X38398Y3678D01*
X38208Y3823D01*
Y4650D01*
X38225D01*
Y5832D01*
X38225Y5950D01*
Y5950D01*
D01*
X38225Y5950D01*
X38194Y6069D01*
X38177Y6156D01*
X38147Y6200D01*
X38088Y6288D01*
X38088Y6288D01*
X37644Y6733D01*
X37693Y6850D01*
X37700D01*
Y7400D01*
D02*
G37*
G36*
X43225D02*
X42900D01*
Y6850D01*
X43225D01*
Y7400D01*
D02*
G37*
G36*
X35100Y8150D02*
X34775D01*
Y7600D01*
X35100D01*
Y8150D01*
D02*
G37*
G36*
X48100Y8405D02*
Y7560D01*
X48945D01*
X48926Y7708D01*
X48830Y7939D01*
X48678Y8138D01*
X48479Y8290D01*
X48248Y8386D01*
X48100Y8405D01*
D02*
G37*
G36*
X47900D02*
X47752Y8386D01*
X47521Y8290D01*
X47322Y8138D01*
X47170Y7939D01*
X47074Y7708D01*
X47055Y7560D01*
X47900D01*
Y8405D01*
D02*
G37*
G36*
X48945Y7360D02*
X48100D01*
Y6515D01*
X48248Y6534D01*
X48479Y6630D01*
X48678Y6782D01*
X48830Y6981D01*
X48926Y7212D01*
X48945Y7360D01*
D02*
G37*
G36*
X47900D02*
X47055D01*
X47074Y7212D01*
X47170Y6981D01*
X47322Y6782D01*
X47521Y6630D01*
X47752Y6534D01*
X47900Y6515D01*
Y7360D01*
D02*
G37*
G36*
X11650Y6900D02*
X10350D01*
Y5700D01*
X11650D01*
X11650Y5700D01*
Y5700D01*
X11760Y5759D01*
X11805Y5729D01*
X12000Y5690D01*
X12195Y5729D01*
X12240Y5759D01*
X12350Y5700D01*
Y5700D01*
X12350Y5700D01*
X13650D01*
Y6800D01*
X12350D01*
Y6720D01*
X12223Y6652D01*
X12195Y6671D01*
X12000Y6710D01*
X11805Y6671D01*
X11777Y6652D01*
X11650Y6720D01*
Y6900D01*
D02*
G37*
G36*
X40100Y7400D02*
X39775D01*
Y6850D01*
X40100D01*
Y7400D01*
D02*
G37*
G36*
X38225D02*
X37900D01*
Y6850D01*
X38225D01*
Y7400D01*
D02*
G37*
G36*
X35100D02*
X34775D01*
Y6850D01*
X35100D01*
Y7400D01*
D02*
G37*
G36*
X35625Y8150D02*
X35300D01*
Y7600D01*
X35625D01*
Y8150D01*
D02*
G37*
G36*
X48950Y10950D02*
X47050D01*
Y9050D01*
X48950D01*
Y10950D01*
D02*
G37*
G36*
X38500Y9450D02*
X38050D01*
Y8900D01*
X38500D01*
Y9450D01*
D02*
G37*
G36*
X37850D02*
X37400D01*
Y8900D01*
X37850D01*
Y9450D01*
D02*
G37*
G36*
X44000Y9510D02*
X43805Y9471D01*
X43710Y9408D01*
X42690D01*
X42595Y9471D01*
X42400Y9510D01*
X42205Y9471D01*
X42040Y9360D01*
X41929Y9195D01*
X41890Y9000D01*
X41929Y8805D01*
X42040Y8640D01*
X42205Y8529D01*
X42400Y8490D01*
X42595Y8529D01*
X42690Y8592D01*
X43710D01*
X43805Y8529D01*
X44000Y8490D01*
X44195Y8529D01*
X44360Y8640D01*
X44471Y8805D01*
X44510Y9000D01*
X44471Y9195D01*
X44360Y9360D01*
X44195Y9471D01*
X44000Y9510D01*
D02*
G37*
G36*
X20600Y11310D02*
X20405Y11271D01*
X20240Y11160D01*
X20129Y10995D01*
X20090Y10800D01*
X20129Y10605D01*
X20148Y10577D01*
X20080Y10450D01*
X19700D01*
Y9306D01*
X18397D01*
X18360Y9360D01*
X18195Y9471D01*
X18000Y9510D01*
X17805Y9471D01*
X17640Y9360D01*
X17529Y9195D01*
X17490Y9000D01*
X17529Y8805D01*
X17640Y8640D01*
X17805Y8529D01*
X18000Y8490D01*
X18195Y8529D01*
X18360Y8640D01*
X18397Y8694D01*
X19296D01*
X19344Y8577D01*
X19064Y8297D01*
X19000Y8310D01*
X18805Y8271D01*
X18640Y8160D01*
X18529Y7995D01*
X18490Y7800D01*
X18529Y7605D01*
X18640Y7440D01*
X18805Y7329D01*
X19000Y7290D01*
X19195Y7329D01*
X19360Y7440D01*
X19471Y7605D01*
X19510Y7800D01*
X19497Y7864D01*
X19927Y8294D01*
X22473D01*
X23346Y7421D01*
X23329Y7395D01*
X23290Y7200D01*
X23329Y7005D01*
X23440Y6840D01*
X23605Y6729D01*
X23800Y6690D01*
X23995Y6729D01*
X24160Y6840D01*
X24271Y7005D01*
X24310Y7200D01*
X24271Y7395D01*
X24160Y7560D01*
X23995Y7671D01*
X23953Y7679D01*
X23056Y8577D01*
X23104Y8694D01*
X27603D01*
X27640Y8640D01*
X27805Y8529D01*
X28000Y8490D01*
X28195Y8529D01*
X28360Y8640D01*
X28471Y8805D01*
X28510Y9000D01*
X28471Y9195D01*
X28360Y9360D01*
X28195Y9471D01*
X28000Y9510D01*
X27805Y9471D01*
X27640Y9360D01*
X27603Y9306D01*
X22300D01*
Y9700D01*
X21700D01*
Y9800D01*
X21600D01*
Y10450D01*
X21120D01*
X21034Y10550D01*
X21071Y10605D01*
X21110Y10800D01*
X21071Y10995D01*
X20960Y11160D01*
X20795Y11271D01*
X20600Y11310D01*
D02*
G37*
G36*
X37000Y9450D02*
X35900D01*
Y9342D01*
X35773Y9275D01*
X35600Y9310D01*
X35405Y9271D01*
X35240Y9160D01*
X35203Y9106D01*
X32797D01*
X32760Y9160D01*
X32595Y9271D01*
X32400Y9310D01*
X32205Y9271D01*
X32040Y9160D01*
X31929Y8995D01*
X31890Y8800D01*
X31929Y8605D01*
X32040Y8440D01*
X32205Y8329D01*
X32400Y8290D01*
X32595Y8329D01*
X32760Y8440D01*
X32797Y8494D01*
X35203D01*
X35240Y8440D01*
X35405Y8329D01*
X35600Y8290D01*
X35773Y8325D01*
X35900Y8258D01*
Y8150D01*
X37000D01*
Y9450D01*
D02*
G37*
G36*
X40625Y8150D02*
X40300D01*
Y7600D01*
X40625D01*
Y8150D01*
D02*
G37*
G36*
X40100D02*
X39775D01*
Y7600D01*
X40100D01*
Y8150D01*
D02*
G37*
G36*
X38500Y8700D02*
X37400D01*
Y8150D01*
X37375D01*
Y7600D01*
X38225D01*
Y8150D01*
X38500D01*
Y8700D01*
D02*
G37*
G36*
X12000Y8310D02*
X11805Y8271D01*
X11760Y8241D01*
X11650Y8300D01*
Y8300D01*
X11650Y8300D01*
X10350D01*
Y7100D01*
X11650D01*
Y7292D01*
X11990D01*
X12000Y7290D01*
X12010Y7292D01*
X12350D01*
Y7200D01*
X13650D01*
Y8300D01*
X12350D01*
X12350Y8300D01*
Y8300D01*
X12240Y8241D01*
X12195Y8271D01*
X12000Y8310D01*
D02*
G37*
G36*
X43225Y8150D02*
X42900D01*
Y7600D01*
X43225D01*
Y8150D01*
D02*
G37*
G36*
X42700D02*
X42375D01*
Y7600D01*
X42700D01*
Y8150D01*
D02*
G37*
G36*
X42400Y16710D02*
X42205Y16671D01*
X42040Y16560D01*
X41929Y16395D01*
X41890Y16200D01*
X41929Y16005D01*
X42040Y15840D01*
X42205Y15729D01*
X42400Y15690D01*
X42510Y15712D01*
X42600Y15694D01*
X44603D01*
X44640Y15640D01*
X44805Y15529D01*
X45000Y15490D01*
X45195Y15529D01*
X45360Y15640D01*
X45471Y15805D01*
X45510Y16000D01*
X45471Y16195D01*
X45360Y16360D01*
X45195Y16471D01*
X45000Y16510D01*
X44805Y16471D01*
X44640Y16360D01*
X44603Y16306D01*
X42889D01*
X42871Y16395D01*
X42760Y16560D01*
X42595Y16671D01*
X42400Y16710D01*
D02*
G37*
G36*
X45200Y25310D02*
X45005Y25271D01*
X44910Y25208D01*
X42690D01*
X42595Y25271D01*
X42400Y25310D01*
X42205Y25271D01*
X42040Y25160D01*
X41929Y24995D01*
X41890Y24800D01*
X41929Y24605D01*
X42005Y24490D01*
X42029Y24400D01*
X42005Y24310D01*
X41929Y24195D01*
X41890Y24000D01*
X41929Y23805D01*
X42040Y23640D01*
X42205Y23529D01*
X42400Y23490D01*
X42595Y23529D01*
X42690Y23592D01*
X43710D01*
X43805Y23529D01*
X44000Y23490D01*
X44195Y23529D01*
X44360Y23640D01*
X44471Y23805D01*
X44510Y24000D01*
X44471Y24195D01*
X44424Y24265D01*
X44492Y24392D01*
X44910D01*
X45005Y24329D01*
X45200Y24290D01*
X45395Y24329D01*
X45560Y24440D01*
X45671Y24605D01*
X45710Y24800D01*
X45671Y24995D01*
X45560Y25160D01*
X45395Y25271D01*
X45200Y25310D01*
D02*
G37*
G36*
X37000Y24450D02*
X35900D01*
Y24342D01*
X35773Y24275D01*
X35600Y24310D01*
X35405Y24271D01*
X35240Y24160D01*
X35203Y24106D01*
X32797D01*
X32760Y24160D01*
X32595Y24271D01*
X32400Y24310D01*
X32205Y24271D01*
X32040Y24160D01*
X31929Y23995D01*
X31890Y23800D01*
X31929Y23605D01*
X32040Y23440D01*
X32205Y23329D01*
X32400Y23290D01*
X32595Y23329D01*
X32760Y23440D01*
X32797Y23494D01*
X35203D01*
X35240Y23440D01*
X35405Y23329D01*
X35600Y23290D01*
X35773Y23325D01*
X35900Y23258D01*
Y23150D01*
X37000D01*
Y24450D01*
D02*
G37*
G36*
X38500D02*
X38050D01*
Y23900D01*
X38500D01*
Y24450D01*
D02*
G37*
G36*
X35600Y26710D02*
X35405Y26671D01*
X35240Y26560D01*
X35203Y26506D01*
X32797D01*
X32760Y26560D01*
X32595Y26671D01*
X32400Y26710D01*
X32205Y26671D01*
X32040Y26560D01*
X31929Y26395D01*
X31890Y26200D01*
X31929Y26005D01*
X32040Y25840D01*
X32205Y25729D01*
X32400Y25690D01*
X32595Y25729D01*
X32760Y25840D01*
X32797Y25894D01*
X35203D01*
X35240Y25840D01*
X35405Y25729D01*
X35600Y25690D01*
X35795Y25729D01*
X35960Y25840D01*
X36071Y26005D01*
X36110Y26200D01*
X36071Y26395D01*
X35960Y26560D01*
X35795Y26671D01*
X35600Y26710D01*
D02*
G37*
G36*
X37600Y34110D02*
X37405Y34071D01*
X37240Y33960D01*
X37129Y33795D01*
X37090Y33600D01*
X37129Y33405D01*
X37192Y33310D01*
Y27090D01*
X37129Y26995D01*
X37090Y26800D01*
X37129Y26605D01*
X37240Y26440D01*
X37405Y26329D01*
X37600Y26290D01*
X37795Y26329D01*
X37960Y26440D01*
X38071Y26605D01*
X38110Y26800D01*
X38071Y26995D01*
X38008Y27090D01*
Y33310D01*
X38071Y33405D01*
X38110Y33600D01*
X38071Y33795D01*
X37960Y33960D01*
X37795Y34071D01*
X37600Y34110D01*
D02*
G37*
G36*
X27850Y35300D02*
X26850D01*
Y33900D01*
X27044D01*
Y33300D01*
X26750D01*
Y32200D01*
X27517D01*
X27800Y31917D01*
X27751Y31800D01*
X27500D01*
Y31350D01*
X28050D01*
Y31501D01*
X28167Y31550D01*
X28898Y30819D01*
X28857Y30681D01*
X28805Y30671D01*
X28640Y30560D01*
X28529Y30395D01*
X28490Y30200D01*
X28529Y30005D01*
X28592Y29910D01*
Y27090D01*
X28529Y26995D01*
X28490Y26800D01*
X28529Y26605D01*
X28640Y26440D01*
X28805Y26329D01*
X29000Y26290D01*
X29195Y26329D01*
X29360Y26440D01*
X29471Y26605D01*
X29510Y26800D01*
X29471Y26995D01*
X29408Y27090D01*
Y29910D01*
X29471Y30005D01*
X29481Y30057D01*
X29619Y30098D01*
X30094Y29623D01*
Y26597D01*
X30040Y26560D01*
X29929Y26395D01*
X29890Y26200D01*
X29929Y26005D01*
X30040Y25840D01*
X30205Y25729D01*
X30400Y25690D01*
X30595Y25729D01*
X30760Y25840D01*
X30871Y26005D01*
X30910Y26200D01*
X30871Y26395D01*
X30760Y26560D01*
X30706Y26597D01*
Y29750D01*
X30683Y29867D01*
X30616Y29966D01*
X30616Y29966D01*
X28050Y32533D01*
Y33300D01*
X27656D01*
Y33900D01*
X27850D01*
Y35300D01*
D02*
G37*
G36*
X48000Y24618D02*
X47752Y24586D01*
X47521Y24490D01*
X47322Y24338D01*
X47170Y24139D01*
X47074Y23908D01*
X47042Y23660D01*
X47074Y23412D01*
X47170Y23181D01*
X47322Y22982D01*
X47521Y22830D01*
X47752Y22734D01*
X48000Y22702D01*
X48248Y22734D01*
X48479Y22830D01*
X48678Y22982D01*
X48830Y23181D01*
X48926Y23412D01*
X48958Y23660D01*
X48926Y23908D01*
X48830Y24139D01*
X48678Y24338D01*
X48479Y24490D01*
X48248Y24586D01*
X48000Y24618D01*
D02*
G37*
G36*
X35600Y22310D02*
X35405Y22271D01*
X35310Y22208D01*
X33490D01*
X33395Y22271D01*
X33200Y22310D01*
X33005Y22271D01*
X32840Y22160D01*
X32729Y21995D01*
X32690Y21800D01*
X32729Y21605D01*
X32814Y21477D01*
X32723Y21386D01*
X32595Y21471D01*
X32400Y21510D01*
X32205Y21471D01*
X32040Y21360D01*
X31929Y21195D01*
X31890Y21000D01*
X31929Y20805D01*
X32040Y20640D01*
X32205Y20529D01*
X32400Y20490D01*
X32595Y20529D01*
X32760Y20640D01*
X32797Y20694D01*
X33611D01*
X33649Y20567D01*
X33640Y20560D01*
X33529Y20395D01*
X33490Y20200D01*
X33529Y20005D01*
X33640Y19840D01*
X33805Y19729D01*
X34000Y19690D01*
X34195Y19729D01*
X34290Y19792D01*
X35310D01*
X35405Y19729D01*
X35600Y19690D01*
X35795Y19729D01*
X35960Y19840D01*
X36071Y20005D01*
X36110Y20200D01*
X36071Y20395D01*
X35995Y20510D01*
X35971Y20600D01*
X35995Y20690D01*
X36071Y20805D01*
X36110Y21000D01*
X36071Y21195D01*
X35995Y21310D01*
X35971Y21400D01*
X35995Y21490D01*
X36071Y21605D01*
X36110Y21800D01*
X36071Y21995D01*
X35960Y22160D01*
X35795Y22271D01*
X35600Y22310D01*
D02*
G37*
G36*
X26400Y22250D02*
X25950D01*
Y21700D01*
X26400D01*
Y22250D01*
D02*
G37*
G36*
X37850Y24450D02*
X37400D01*
Y23900D01*
X37850D01*
Y24450D01*
D02*
G37*
G36*
X38500Y23700D02*
X38050D01*
Y23150D01*
X38500D01*
Y23700D01*
D02*
G37*
G36*
X37850D02*
X37400D01*
Y23150D01*
X37850D01*
Y23700D01*
D02*
G37*
G36*
X48950Y27150D02*
X47050D01*
Y26608D01*
X44969D01*
X44893Y26684D01*
X44871Y26795D01*
X44760Y26960D01*
X44595Y27071D01*
X44400Y27110D01*
X44205Y27071D01*
X44040Y26960D01*
X43929Y26795D01*
X43890Y26600D01*
X43929Y26405D01*
X44040Y26240D01*
X44205Y26129D01*
X44316Y26107D01*
X44512Y25912D01*
X44512Y25912D01*
X44644Y25823D01*
X44800Y25792D01*
X47050D01*
Y25250D01*
X48950D01*
Y27150D01*
D02*
G37*
G36*
X25950Y34500D02*
X25550D01*
Y33900D01*
X25950D01*
Y34500D01*
D02*
G37*
G36*
X25350D02*
X24950D01*
Y33900D01*
X25350D01*
Y34500D01*
D02*
G37*
G36*
X43000Y32510D02*
X42805Y32471D01*
X42640Y32360D01*
X42529Y32195D01*
X42490Y32000D01*
X42529Y31805D01*
X42640Y31640D01*
X42805Y31529D01*
X43000Y31490D01*
X43195Y31529D01*
X43290Y31592D01*
X46110D01*
X46205Y31529D01*
X46400Y31490D01*
X46595Y31529D01*
X46760Y31639D01*
X46871Y31805D01*
X46910Y32000D01*
X46871Y32195D01*
X46760Y32360D01*
X46595Y32471D01*
X46400Y32510D01*
X46205Y32471D01*
X46110Y32408D01*
X43290D01*
X43195Y32471D01*
X43000Y32510D01*
D02*
G37*
G36*
X26400Y38706D02*
X26217Y38682D01*
X26047Y38611D01*
X25901Y38499D01*
X25789Y38353D01*
X25718Y38183D01*
X25694Y38000D01*
X25718Y37817D01*
X25789Y37647D01*
X25900Y37502D01*
Y36300D01*
X26900D01*
Y37502D01*
X27011Y37647D01*
X27082Y37817D01*
X27106Y38000D01*
X27082Y38183D01*
X27011Y38353D01*
X26899Y38499D01*
X26753Y38611D01*
X26583Y38682D01*
X26400Y38706D01*
D02*
G37*
G36*
X25950Y35300D02*
X25550D01*
Y34700D01*
X25950D01*
Y35300D01*
D02*
G37*
G36*
X25350D02*
X24950D01*
Y34700D01*
X25350D01*
Y35300D01*
D02*
G37*
G36*
X26200Y28910D02*
X26005Y28871D01*
X25890Y28795D01*
X25800Y28771D01*
X25710Y28795D01*
X25595Y28871D01*
X25400Y28910D01*
X25205Y28871D01*
X25090Y28795D01*
X25000Y28771D01*
X24910Y28795D01*
X24795Y28871D01*
X24600Y28910D01*
X24405Y28871D01*
X24290Y28795D01*
X24200Y28771D01*
X24110Y28795D01*
X23995Y28871D01*
X23800Y28910D01*
X23605Y28871D01*
X23490Y28795D01*
X23400Y28771D01*
X23310Y28795D01*
X23195Y28871D01*
X23000Y28910D01*
X22805Y28871D01*
X22640Y28760D01*
X22510Y28795D01*
X22395Y28871D01*
X22200Y28910D01*
X22005Y28871D01*
X21840Y28760D01*
X21729Y28595D01*
X21690Y28400D01*
X21699Y28354D01*
X21595Y28271D01*
X21400Y28310D01*
X21205Y28271D01*
X21040Y28160D01*
X20929Y27995D01*
X20890Y27800D01*
X20929Y27605D01*
X21040Y27440D01*
X21094Y27403D01*
Y27000D01*
X21094Y27000D01*
X21094Y27000D01*
Y25597D01*
X21040Y25560D01*
X20929Y25395D01*
X20890Y25200D01*
X20929Y25005D01*
X21040Y24840D01*
X21205Y24729D01*
X21400Y24690D01*
X21595Y24729D01*
X21760Y24840D01*
X21890Y24805D01*
X22005Y24729D01*
X22200Y24690D01*
X22395Y24729D01*
X22510Y24805D01*
X22600Y24829D01*
X22690Y24805D01*
X22805Y24729D01*
X23000Y24690D01*
X23195Y24729D01*
X23310Y24805D01*
X23400Y24829D01*
X23490Y24805D01*
X23605Y24729D01*
X23800Y24690D01*
X23995Y24729D01*
X24110Y24805D01*
X24200Y24829D01*
X24290Y24805D01*
X24405Y24729D01*
X24600Y24690D01*
X24795Y24729D01*
X24910Y24805D01*
X25000Y24829D01*
X25090Y24805D01*
X25205Y24729D01*
X25400Y24690D01*
X25595Y24729D01*
X25710Y24805D01*
X25800Y24829D01*
X25890Y24805D01*
X26005Y24729D01*
X26200Y24690D01*
X26395Y24729D01*
X26560Y24840D01*
X26671Y25005D01*
X26710Y25200D01*
X26671Y25395D01*
X26560Y25560D01*
X26506Y25597D01*
Y28003D01*
X26560Y28040D01*
X26671Y28205D01*
X26710Y28400D01*
X26671Y28595D01*
X26560Y28760D01*
X26395Y28871D01*
X26200Y28910D01*
D02*
G37*
G36*
X47400Y29710D02*
X47205Y29671D01*
X47040Y29560D01*
X46929Y29395D01*
X46890Y29200D01*
X46903Y29136D01*
X46273Y28506D01*
X45589D01*
X45551Y28633D01*
X45560Y28640D01*
X45671Y28805D01*
X45710Y29000D01*
X45671Y29195D01*
X45560Y29360D01*
X45395Y29471D01*
X45200Y29510D01*
X45005Y29471D01*
X44840Y29360D01*
X44803Y29306D01*
X41597D01*
X41560Y29360D01*
X41395Y29471D01*
X41200Y29510D01*
X41005Y29471D01*
X40840Y29360D01*
X40729Y29195D01*
X40690Y29000D01*
X40729Y28805D01*
X40805Y28690D01*
X40829Y28600D01*
X40805Y28510D01*
X40729Y28395D01*
X40690Y28200D01*
X40729Y28005D01*
X40840Y27840D01*
X41005Y27729D01*
X41200Y27690D01*
X41395Y27729D01*
X41560Y27840D01*
X41597Y27894D01*
X46400D01*
X46400Y27894D01*
X46517Y27917D01*
X46616Y27984D01*
X47336Y28703D01*
X47400Y28690D01*
X47595Y28729D01*
X47760Y28840D01*
X47871Y29005D01*
X47910Y29200D01*
X47871Y29395D01*
X47760Y29560D01*
X47595Y29671D01*
X47400Y29710D01*
D02*
G37*
G36*
X17000Y33210D02*
X16805Y33171D01*
X16640Y33060D01*
X16529Y32895D01*
X16490Y32700D01*
X16529Y32505D01*
X16640Y32340D01*
X16805Y32229D01*
X17000Y32190D01*
X17019Y32194D01*
X17592Y31621D01*
Y28490D01*
X17529Y28395D01*
X17490Y28200D01*
X17529Y28005D01*
X17640Y27840D01*
X17805Y27729D01*
X18000Y27690D01*
X18195Y27729D01*
X18360Y27840D01*
X18471Y28005D01*
X18510Y28200D01*
X18471Y28395D01*
X18408Y28490D01*
Y31790D01*
X18377Y31946D01*
X18288Y32078D01*
X18288Y32078D01*
X17470Y32897D01*
X17360Y33060D01*
X17195Y33171D01*
X17000Y33210D01*
D02*
G37*
G36*
X27300Y31800D02*
X26750D01*
Y31350D01*
X27300D01*
Y31800D01*
D02*
G37*
G36*
X28050Y31150D02*
X27500D01*
Y30700D01*
X28050D01*
Y31150D01*
D02*
G37*
G36*
X27300D02*
X26750D01*
Y30700D01*
X27300D01*
Y31150D01*
D02*
G37*
G36*
X24850Y17800D02*
X21150D01*
Y17320D01*
X21023Y17252D01*
X20995Y17271D01*
X20800Y17310D01*
X20605Y17271D01*
X20440Y17160D01*
X20329Y16995D01*
X20290Y16800D01*
X20329Y16605D01*
X20440Y16440D01*
X20605Y16329D01*
X20800Y16290D01*
X20995Y16329D01*
X21023Y16348D01*
X21150Y16280D01*
Y16000D01*
X24850D01*
Y16280D01*
X24977Y16348D01*
X25005Y16329D01*
X25200Y16290D01*
X25395Y16329D01*
X25560Y16440D01*
X25671Y16605D01*
X25710Y16800D01*
X25671Y16995D01*
X25560Y17160D01*
X25395Y17271D01*
X25200Y17310D01*
X25005Y17271D01*
X24977Y17252D01*
X24850Y17320D01*
Y17800D01*
D02*
G37*
G36*
X35600Y17310D02*
X35405Y17271D01*
X35310Y17208D01*
X33490D01*
X33395Y17271D01*
X33200Y17310D01*
X33005Y17271D01*
X32840Y17160D01*
X32729Y16995D01*
X32690Y16800D01*
X32729Y16605D01*
X32814Y16477D01*
X32723Y16386D01*
X32595Y16471D01*
X32400Y16510D01*
X32205Y16471D01*
X32040Y16360D01*
X31929Y16195D01*
X31890Y16000D01*
X31929Y15805D01*
X32040Y15640D01*
X32205Y15529D01*
X32400Y15490D01*
X32595Y15529D01*
X32760Y15640D01*
X32797Y15694D01*
X33611D01*
X33649Y15567D01*
X33640Y15560D01*
X33529Y15395D01*
X33490Y15200D01*
X33529Y15005D01*
X33640Y14840D01*
X33805Y14729D01*
X34000Y14690D01*
X34195Y14729D01*
X34290Y14792D01*
X35310D01*
X35405Y14729D01*
X35600Y14690D01*
X35795Y14729D01*
X35960Y14840D01*
X36071Y15005D01*
X36110Y15200D01*
X36071Y15395D01*
X35995Y15510D01*
X35971Y15600D01*
X35995Y15690D01*
X36071Y15805D01*
X36110Y16000D01*
X36071Y16195D01*
X35995Y16310D01*
X35971Y16400D01*
X35995Y16490D01*
X36071Y16605D01*
X36110Y16800D01*
X36071Y16995D01*
X35960Y17160D01*
X35795Y17271D01*
X35600Y17310D01*
D02*
G37*
G36*
X18450Y17500D02*
X17900D01*
Y17000D01*
X18450D01*
Y17500D01*
D02*
G37*
G36*
X5825Y20400D02*
X4175D01*
Y18077D01*
X4175Y18050D01*
Y18000D01*
Y17950D01*
X4175Y17923D01*
Y16875D01*
X5825D01*
Y17923D01*
X5825Y17950D01*
Y18000D01*
Y18050D01*
X5825Y18077D01*
Y19133D01*
X5952Y19164D01*
X6001Y19101D01*
X6147Y18989D01*
X6317Y18918D01*
X6500Y18894D01*
X6683Y18918D01*
X6853Y18989D01*
X6999Y19101D01*
X7111Y19247D01*
X7182Y19417D01*
X7206Y19600D01*
X7182Y19783D01*
X7111Y19953D01*
X6999Y20099D01*
X6853Y20211D01*
X6683Y20282D01*
X6500Y20306D01*
X6317Y20282D01*
X6147Y20211D01*
X6001Y20099D01*
X5952Y20036D01*
X5825Y20067D01*
Y20400D01*
D02*
G37*
G36*
X38500Y18700D02*
X38050D01*
Y18150D01*
X38500D01*
Y18700D01*
D02*
G37*
G36*
X37850D02*
X37400D01*
Y18150D01*
X37850D01*
Y18700D01*
D02*
G37*
G36*
X4900Y16675D02*
X4175D01*
Y15600D01*
X4900D01*
Y16675D01*
D02*
G37*
G36*
X11960Y16425D02*
Y15580D01*
X12805D01*
X12786Y15728D01*
X12690Y15959D01*
X12538Y16158D01*
X12339Y16310D01*
X12108Y16406D01*
X11960Y16425D01*
D02*
G37*
G36*
X11760D02*
X11612Y16406D01*
X11381Y16310D01*
X11182Y16158D01*
X11030Y15959D01*
X10934Y15728D01*
X10915Y15580D01*
X11760D01*
Y16425D01*
D02*
G37*
G36*
X17700Y17500D02*
X17150D01*
Y17000D01*
X17700D01*
Y17500D01*
D02*
G37*
G36*
X18450Y16800D02*
X17150D01*
Y16450D01*
X17150D01*
Y16000D01*
X18450D01*
Y16300D01*
X18450D01*
Y16800D01*
D02*
G37*
G36*
X5825Y16675D02*
X5100D01*
Y15600D01*
X5825D01*
Y16675D01*
D02*
G37*
G36*
X37850Y19450D02*
X37400D01*
Y18900D01*
X37850D01*
Y19450D01*
D02*
G37*
G36*
X20000Y20850D02*
X20000D01*
D01*
X19873Y20850D01*
X19500D01*
Y20200D01*
X19400D01*
Y20100D01*
X18717D01*
X18689Y20088D01*
X18600Y20162D01*
Y20850D01*
X17400D01*
Y19550D01*
X18058D01*
X18505Y19103D01*
X18517Y19020D01*
X18480Y18948D01*
X18439Y18900D01*
X18417Y18900D01*
X18327Y18900D01*
X18327Y18900D01*
X18325Y18900D01*
X18325D01*
X17150D01*
Y17700D01*
X18450D01*
Y17700D01*
X18577Y17748D01*
X18605Y17729D01*
X18800Y17690D01*
X18995Y17729D01*
X19160Y17840D01*
X19271Y18005D01*
X19310Y18200D01*
X19271Y18395D01*
X19160Y18560D01*
X19123Y18585D01*
X19150Y18720D01*
X19195Y18729D01*
X19360Y18840D01*
X19471Y19005D01*
X19510Y19200D01*
X19471Y19395D01*
X19442Y19438D01*
X19502Y19550D01*
X19873D01*
X20000Y19550D01*
X20000D01*
X20098D01*
X20158Y19438D01*
X20129Y19395D01*
X20090Y19200D01*
X20129Y19005D01*
X20240Y18840D01*
X20405Y18729D01*
X20600Y18690D01*
X20795Y18729D01*
X20960Y18840D01*
X21029Y18942D01*
X21166D01*
X21166Y18942D01*
X21296Y18968D01*
X21322Y18973D01*
X21454Y19062D01*
X21942Y19550D01*
X22600D01*
Y20850D01*
X21400D01*
Y20162D01*
X21311Y20088D01*
X21283Y20100D01*
X20600D01*
Y20200D01*
X20500D01*
Y20850D01*
X20127D01*
X20000Y20850D01*
D02*
G37*
G36*
X20700Y20850D02*
Y20300D01*
X21200D01*
Y20850D01*
X20700D01*
D02*
G37*
G36*
X19300D02*
X18800D01*
Y20300D01*
X19300D01*
Y20850D01*
D02*
G37*
G36*
X25750Y22250D02*
X25300D01*
Y21700D01*
X25750D01*
Y22250D01*
D02*
G37*
G36*
X44800Y21710D02*
X44605Y21671D01*
X44440Y21560D01*
X44403Y21506D01*
X42797D01*
X42760Y21560D01*
X42595Y21671D01*
X42400Y21710D01*
X42205Y21671D01*
X42040Y21560D01*
X41929Y21395D01*
X41890Y21200D01*
X41929Y21005D01*
X42040Y20840D01*
X42205Y20729D01*
X42400Y20690D01*
X42595Y20729D01*
X42760Y20840D01*
X42797Y20894D01*
X44403D01*
X44440Y20840D01*
X44605Y20729D01*
X44800Y20690D01*
X44995Y20729D01*
X45160Y20840D01*
X45271Y21005D01*
X45310Y21200D01*
X45271Y21395D01*
X45160Y21560D01*
X44995Y21671D01*
X44800Y21710D01*
D02*
G37*
G36*
X27900Y22250D02*
X26800D01*
Y20977D01*
X26800Y20950D01*
X26735Y20850D01*
X26700D01*
Y20171D01*
X26627Y20062D01*
X26618Y20060D01*
X26504Y20100D01*
X26000D01*
Y19550D01*
X26465D01*
X26480Y19550D01*
X26566Y19450D01*
X26529Y19395D01*
X26490Y19200D01*
X26529Y19005D01*
X26640Y18840D01*
X26805Y18729D01*
X27000Y18690D01*
X27195Y18729D01*
X27360Y18840D01*
X27471Y19005D01*
X27510Y19200D01*
X27471Y19395D01*
X27452Y19423D01*
X27520Y19550D01*
X27900D01*
Y20823D01*
X27900Y20850D01*
Y20900D01*
X27900Y20950D01*
X27900Y20977D01*
Y21294D01*
X28603D01*
X28640Y21240D01*
X28805Y21129D01*
X29000Y21090D01*
X29195Y21129D01*
X29360Y21240D01*
X29471Y21405D01*
X29510Y21600D01*
X29471Y21795D01*
X29360Y21960D01*
X29195Y22071D01*
X29000Y22110D01*
X28805Y22071D01*
X28640Y21960D01*
X28603Y21906D01*
X27900D01*
Y22250D01*
D02*
G37*
G36*
X25800Y20100D02*
X25300D01*
Y19550D01*
X25800D01*
Y20100D01*
D02*
G37*
G36*
X37000Y19450D02*
X35900D01*
Y19342D01*
X35773Y19275D01*
X35600Y19310D01*
X35405Y19271D01*
X35240Y19160D01*
X35203Y19106D01*
X32797D01*
X32760Y19160D01*
X32595Y19271D01*
X32400Y19310D01*
X32205Y19271D01*
X32040Y19160D01*
X31929Y18995D01*
X31890Y18800D01*
X31929Y18605D01*
X32040Y18440D01*
X32205Y18329D01*
X32400Y18290D01*
X32595Y18329D01*
X32760Y18440D01*
X32797Y18494D01*
X35203D01*
X35240Y18440D01*
X35405Y18329D01*
X35600Y18290D01*
X35773Y18325D01*
X35900Y18258D01*
Y18150D01*
X37000D01*
Y19450D01*
D02*
G37*
G36*
X38500D02*
X38050D01*
Y18900D01*
X38500D01*
Y19450D01*
D02*
G37*
G36*
X26400Y21500D02*
X25300D01*
Y20977D01*
X25300Y20950D01*
Y20900D01*
X25300Y20850D01*
X25300Y20823D01*
Y20300D01*
X26500D01*
Y20850D01*
X26465D01*
X26465Y20850D01*
X26400Y20950D01*
X26400Y20977D01*
Y21500D01*
D02*
G37*
G36*
X46000Y20310D02*
X45805Y20271D01*
X45710Y20208D01*
X42690D01*
X42595Y20271D01*
X42400Y20310D01*
X42205Y20271D01*
X42040Y20160D01*
X41929Y19995D01*
X41890Y19800D01*
X41929Y19605D01*
X42005Y19490D01*
X42029Y19400D01*
X42005Y19310D01*
X41929Y19195D01*
X41890Y19000D01*
X41929Y18805D01*
X42040Y18640D01*
X42205Y18529D01*
X42400Y18490D01*
X42595Y18529D01*
X42690Y18592D01*
X43710D01*
X43805Y18529D01*
X44000Y18490D01*
X44195Y18529D01*
X44360Y18640D01*
X44471Y18805D01*
X44510Y19000D01*
X44471Y19195D01*
X44424Y19265D01*
X44492Y19392D01*
X45710D01*
X45805Y19329D01*
X46000Y19290D01*
X46195Y19329D01*
X46360Y19440D01*
X46471Y19605D01*
X46510Y19800D01*
X46471Y19995D01*
X46360Y20160D01*
X46195Y20271D01*
X46000Y20310D01*
D02*
G37*
G36*
X48000Y22078D02*
X47752Y22046D01*
X47521Y21950D01*
X47322Y21798D01*
X47170Y21599D01*
X47074Y21368D01*
X47042Y21120D01*
X47074Y20872D01*
X47170Y20641D01*
X47322Y20442D01*
X47521Y20290D01*
X47752Y20194D01*
X48000Y20162D01*
X48248Y20194D01*
X48479Y20290D01*
X48678Y20442D01*
X48830Y20641D01*
X48926Y20872D01*
X48958Y21120D01*
X48926Y21368D01*
X48830Y21599D01*
X48678Y21798D01*
X48479Y21950D01*
X48248Y22046D01*
X48000Y22078D01*
D02*
G37*
%LPD*%
G54D15*
X11000Y6300D02*
D03*
Y7700D02*
D03*
X17800Y16900D02*
D03*
Y18300D02*
D03*
X28200Y10700D02*
D03*
Y12100D02*
D03*
G54D16*
X21700Y9800D02*
D03*
X20300D02*
D03*
X19400Y20200D02*
D03*
X18000D02*
D03*
X22000D02*
D03*
X20600D02*
D03*
X25900Y20200D02*
D03*
X27300D02*
D03*
G54D17*
X36450Y23800D02*
D03*
X37950D02*
D03*
X36450Y18800D02*
D03*
X37950D02*
D03*
X36450Y13800D02*
D03*
X37950D02*
D03*
X36450Y8800D02*
D03*
X37950D02*
D03*
X25850Y21600D02*
D03*
X27350D02*
D03*
G54D20*
X13000Y6250D02*
D03*
Y7750D02*
D03*
X17800Y15900D02*
D03*
Y14500D02*
D03*
X27400Y32750D02*
D03*
Y31250D02*
D03*
G54D25*
X5000Y19225D02*
D03*
Y16775D02*
D03*
G54D31*
X25400Y25200D02*
Y28400D01*
X41200Y29000D02*
X45200D01*
X46400Y28200D02*
X47400Y29200D01*
X41200Y28200D02*
X46400D01*
X22200Y28400D02*
X22200Y28400D01*
Y25200D02*
Y28400D01*
X23800Y25200D02*
Y28400D01*
X23000Y25200D02*
Y28400D01*
X24600Y25200D02*
Y28400D01*
X21400Y25200D02*
Y27000D01*
X26200Y25200D02*
Y28400D01*
X21400Y27000D02*
X21400Y27000D01*
X27400Y32750D02*
X30400Y29750D01*
Y26200D02*
Y29750D01*
X30400Y15800D02*
Y19000D01*
Y15800D02*
X30400Y15800D01*
X27350Y32800D02*
Y34600D01*
X32400Y26200D02*
X35600D01*
X44800Y11200D02*
X45000D01*
X45000Y11200D01*
X42600Y16000D02*
X45000D01*
X42400Y21200D02*
X44800D01*
X42400Y11200D02*
X45000D01*
X42400Y16200D02*
X42600Y16000D01*
X32400Y13800D02*
X35600D01*
X12950Y6300D02*
X13000Y6250D01*
X11000Y6300D02*
X12950D01*
X23800Y7200D02*
Y7400D01*
X27350Y21600D02*
X29000D01*
X27350Y21600D02*
X27350Y21600D01*
X32400Y23800D02*
X35600D01*
X19000Y7800D02*
X19800Y8600D01*
X22600D01*
X23800Y7400D01*
X18000Y9000D02*
X28000D01*
X32400Y18800D02*
X35600D01*
X32400Y21000D02*
X35600D01*
X35600Y23800D02*
X36450D01*
X35600Y18800D02*
X36450D01*
X35600Y13800D02*
X36450D01*
X35600Y8800D02*
X36450D01*
X32400Y8800D02*
X35600D01*
X35600Y11000D02*
X35600Y11000D01*
X32400Y11000D02*
X35600D01*
X32400Y16000D02*
X35600D01*
X21400Y27000D02*
X21400Y27000D01*
Y27800D01*
G54D32*
X5375Y19600D02*
X6500D01*
X5000Y19225D02*
X5375Y19600D01*
X44600Y34400D02*
X44600Y34400D01*
X26400Y37000D02*
Y38000D01*
X43000Y32000D02*
X43000Y32000D01*
X17800Y14500D02*
X18300Y15000D01*
X18800D01*
X42400Y9000D02*
X44000D01*
X42400Y14000D02*
X44000D01*
X42400Y19000D02*
X44000D01*
X42400Y19800D02*
X46000D01*
X42400Y24000D02*
X44000D01*
X22900Y13200D02*
X23000Y13100D01*
X20800Y16800D02*
X22900D01*
X23000Y16900D01*
X24200Y16800D02*
X25200D01*
X24100Y16900D02*
X24200Y16800D01*
X21166Y19350D02*
X22000Y20184D01*
X20750Y19350D02*
X21166D01*
X23000Y16900D02*
X24100D01*
X20300Y9800D02*
X20600Y10100D01*
X27900Y11800D02*
X28200Y12100D01*
X27200Y11800D02*
X27900D01*
X18000Y20184D02*
Y20200D01*
Y20184D02*
X18984Y19200D01*
X19000D01*
X22000Y20184D02*
Y20200D01*
X17900Y18200D02*
X18800D01*
X17800Y18300D02*
X17900Y18200D01*
X20600Y10100D02*
Y10800D01*
X12950Y7700D02*
X13000Y7750D01*
X11000Y7700D02*
X12950D01*
X34000Y15200D02*
X35600D01*
X20600Y19200D02*
X20750Y19350D01*
X43000Y32000D02*
X46400D01*
X20800Y13200D02*
X22900D01*
X42400Y24800D02*
X45200D01*
X37600Y26800D02*
Y33600D01*
X34000Y20200D02*
X35600D01*
X44400Y26600D02*
X44800Y26200D01*
X48000D01*
X29000Y30200D02*
X29000Y30200D01*
X29000Y26800D02*
Y30200D01*
X33200Y21800D02*
X35600D01*
X33200Y16800D02*
X35600D01*
X33200Y11800D02*
X35600D01*
X27000Y19900D02*
X27300Y20200D01*
X27000Y19200D02*
Y19900D01*
X24100Y13100D02*
X26000Y15000D01*
X23000Y13100D02*
X24100D01*
X10000Y14600D02*
Y20200D01*
X34000Y10200D02*
X35600D01*
X37720Y3000D02*
X37800Y3080D01*
Y6000D01*
X42000Y6800D02*
X42800Y6000D01*
Y3000D02*
Y6000D01*
X37000Y6800D02*
X37800Y6000D01*
X40200Y3060D02*
X40260Y3000D01*
X40200Y3060D02*
Y5300D01*
X35180Y3000D02*
X35200Y3020D01*
Y5300D01*
Y6000D01*
X36000Y6800D01*
X40200Y5300D02*
Y6000D01*
X41000Y6800D01*
X17000Y32700D02*
X17090D01*
X18000Y31790D01*
Y28200D02*
Y31790D01*
G54D33*
X3000Y3000D02*
D03*
X47000D02*
D03*
X3000Y42000D02*
D03*
X47000D02*
D03*
G54D34*
X35180Y3000D02*
D03*
X37720D02*
D03*
X40260D02*
D03*
X11860Y10400D02*
D03*
X14400Y12940D02*
D03*
X11860D02*
D03*
X14400Y15480D02*
D03*
X11860D02*
D03*
X48000Y7460D02*
D03*
Y23660D02*
D03*
Y21120D02*
D03*
G54D35*
X42800Y3000D02*
D03*
G54D36*
X14400Y10400D02*
D03*
X48000Y10000D02*
D03*
Y26200D02*
D03*
G54D37*
X49000Y37000D02*
D03*
Y39000D02*
D03*
X1000Y37000D02*
D03*
Y39000D02*
D03*
X43000Y44000D02*
D03*
X7000D02*
D03*
X14800Y38400D02*
D03*
X12000D02*
D03*
X49000Y35000D02*
D03*
X1000D02*
D03*
X24600Y35200D02*
D03*
Y36000D02*
D03*
Y34400D02*
D03*
Y33600D02*
D03*
X25400D02*
D03*
Y28400D02*
D03*
X29400Y33600D02*
D03*
X25400Y36000D02*
D03*
X26200D02*
D03*
X15000Y8000D02*
D03*
X16000D02*
D03*
X30000Y10000D02*
D03*
X31000D02*
D03*
Y9000D02*
D03*
X30000D02*
D03*
X3600Y17000D02*
D03*
X6400D02*
D03*
X1000Y20000D02*
D03*
Y18000D02*
D03*
Y16000D02*
D03*
Y9000D02*
D03*
Y11000D02*
D03*
Y25000D02*
D03*
Y27000D02*
D03*
Y29000D02*
D03*
X5800Y27000D02*
D03*
X49000Y6000D02*
D03*
X12000Y1000D02*
D03*
X10000D02*
D03*
X8000D02*
D03*
X6000D02*
D03*
X14000D02*
D03*
X16000D02*
D03*
X40000D02*
D03*
X42000D02*
D03*
X44000D02*
D03*
X38000D02*
D03*
X34000D02*
D03*
X32000D02*
D03*
X30000D02*
D03*
X28000D02*
D03*
X1000Y6000D02*
D03*
Y31000D02*
D03*
Y33000D02*
D03*
X49000Y29000D02*
D03*
Y22000D02*
D03*
Y20000D02*
D03*
X9000Y44000D02*
D03*
X11000D02*
D03*
X13000D02*
D03*
X15000D02*
D03*
X17000D02*
D03*
X19000D02*
D03*
X21000D02*
D03*
X23000D02*
D03*
X25000D02*
D03*
X27000D02*
D03*
X29000D02*
D03*
X31000D02*
D03*
X33000D02*
D03*
X35000D02*
D03*
X37000D02*
D03*
X39000Y44000D02*
D03*
X41000D02*
D03*
X49000Y12000D02*
D03*
Y14000D02*
D03*
Y16000D02*
D03*
Y18000D02*
D03*
X30000Y6000D02*
D03*
Y7000D02*
D03*
X26200Y33600D02*
D03*
X28600D02*
D03*
X17000Y31800D02*
D03*
Y30800D02*
D03*
X13400Y37000D02*
D03*
X17000Y37800D02*
D03*
X28000Y37600D02*
D03*
X33000Y38400D02*
D03*
X30200D02*
D03*
X31600Y37000D02*
D03*
X34400D02*
D03*
X12000Y25800D02*
D03*
Y24200D02*
D03*
X14800Y23800D02*
D03*
X14000D02*
D03*
X13200D02*
D03*
Y26200D02*
D03*
X14000D02*
D03*
X14800D02*
D03*
X15800Y26600D02*
D03*
Y25000D02*
D03*
Y25800D02*
D03*
X12000Y25000D02*
D03*
X7400Y24600D02*
D03*
Y25400D02*
D03*
X8800Y24600D02*
D03*
Y25400D02*
D03*
Y23800D02*
D03*
X7400D02*
D03*
X8800Y26200D02*
D03*
X7400D02*
D03*
X45200Y29000D02*
D03*
X41200D02*
D03*
X47400Y29200D02*
D03*
X44600Y34400D02*
D03*
X41200Y28200D02*
D03*
X22200Y28400D02*
D03*
X23800Y28400D02*
D03*
X23000D02*
D03*
Y25200D02*
D03*
X24600Y28400D02*
D03*
X25400Y25200D02*
D03*
X23800D02*
D03*
X22200D02*
D03*
X21400Y25200D02*
D03*
X26200Y28400D02*
D03*
Y25200D02*
D03*
X24600D02*
D03*
X30400Y26200D02*
D03*
X30400Y19000D02*
D03*
X43000Y32000D02*
D03*
X35600Y26200D02*
D03*
X18800Y15000D02*
D03*
X45200Y24800D02*
D03*
X44800Y11200D02*
D03*
X44000Y9000D02*
D03*
X42400D02*
D03*
Y9800D02*
D03*
X45000Y16000D02*
D03*
X42400Y14800D02*
D03*
X44000Y14000D02*
D03*
X42400D02*
D03*
X44000Y19000D02*
D03*
X42400D02*
D03*
X44000Y24000D02*
D03*
X42400D02*
D03*
X44800Y21200D02*
D03*
X46000Y19800D02*
D03*
X35600Y13800D02*
D03*
X32400Y11000D02*
D03*
Y13800D02*
D03*
Y23800D02*
D03*
Y26200D02*
D03*
X42400Y21200D02*
D03*
Y19800D02*
D03*
Y16200D02*
D03*
Y11200D02*
D03*
X20800Y16800D02*
D03*
X25200D02*
D03*
X27200Y11800D02*
D03*
X18800Y18200D02*
D03*
X19000Y19200D02*
D03*
X21400Y10800D02*
D03*
X20600D02*
D03*
X12000Y7800D02*
D03*
Y6200D02*
D03*
X19000Y7800D02*
D03*
X32400Y8800D02*
D03*
X23800Y7200D02*
D03*
X35600Y15200D02*
D03*
X34000D02*
D03*
X32400Y16000D02*
D03*
X29000Y21600D02*
D03*
X30400Y15800D02*
D03*
X32400Y18800D02*
D03*
X35600Y23800D02*
D03*
X20600Y19200D02*
D03*
X46400Y32000D02*
D03*
X27200Y11000D02*
D03*
X20800Y13200D02*
D03*
X18800Y15800D02*
D03*
X19800Y19200D02*
D03*
X26200D02*
D03*
X28000Y9000D02*
D03*
X18000D02*
D03*
X42400Y24800D02*
D03*
X34000Y10200D02*
D03*
X37600Y33600D02*
D03*
Y26800D02*
D03*
X35600Y18800D02*
D03*
Y20200D02*
D03*
X34000D02*
D03*
X35600Y21000D02*
D03*
X32400D02*
D03*
X44400Y26600D02*
D03*
X29000Y30200D02*
D03*
X29000Y26800D02*
D03*
X35600Y21800D02*
D03*
X33200D02*
D03*
X35600Y16800D02*
D03*
X33200D02*
D03*
Y11800D02*
D03*
X10000Y20200D02*
D03*
X27000Y19200D02*
D03*
X26000Y15000D02*
D03*
X10000Y14600D02*
D03*
X35600Y8800D02*
D03*
Y10200D02*
D03*
Y11000D02*
D03*
Y16000D02*
D03*
X36000Y1000D02*
D03*
X32000Y6000D02*
D03*
X31000D02*
D03*
Y7000D02*
D03*
X32000D02*
D03*
X42000Y6800D02*
D03*
X36000D02*
D03*
X37000D02*
D03*
X41000D02*
D03*
X35600Y11800D02*
D03*
X38600Y25000D02*
D03*
X39400D02*
D03*
X39000Y25600D02*
D03*
X38600Y20000D02*
D03*
X39400D02*
D03*
X39000Y20600D02*
D03*
X38600Y15000D02*
D03*
X39400D02*
D03*
X39000Y15600D02*
D03*
X38600Y10000D02*
D03*
X39400D02*
D03*
X39000Y10600D02*
D03*
X8000Y12000D02*
D03*
X7000Y11000D02*
D03*
X9000Y13000D02*
D03*
Y8000D02*
D03*
X8000D02*
D03*
X14000D02*
D03*
X10000D02*
D03*
X5400Y15200D02*
D03*
X6400Y16200D02*
D03*
X3600D02*
D03*
X4600Y15200D02*
D03*
X21400Y27800D02*
D03*
X10600Y37000D02*
D03*
X42200Y36800D02*
D03*
X17000Y32700D02*
D03*
X18000Y28200D02*
D03*
G54D38*
X6500Y19600D02*
D03*
X26400Y38000D02*
D03*
G54D39*
X37800Y5300D02*
D03*
Y7500D02*
D03*
X35200Y5300D02*
D03*
Y7500D02*
D03*
X40200Y5300D02*
D03*
Y7500D02*
D03*
X42800Y5300D02*
D03*
Y7500D02*
D03*
G54D40*
X23000Y13100D02*
D03*
Y16900D02*
D03*
G54D41*
X26400Y37000D02*
D03*
X25450Y34600D02*
D03*
X27350D02*
D03*
M02*
