%FSLAX43Y43*%
%MOMM*%
G71*
G01*
G75*
G04 Layer_Color=16711935*
%ADD10R,3.650X2.050*%
%ADD11R,1.400X0.400*%
%ADD12R,1.900X2.300*%
%ADD13R,1.900X2.400*%
%ADD14R,0.900X1.000*%
%ADD15R,0.900X0.800*%
%ADD16R,0.800X0.900*%
%ADD17R,0.700X0.900*%
%ADD18R,3.000X1.000*%
%ADD19O,1.550X0.250*%
%ADD20R,0.900X0.700*%
%ADD21R,3.300X1.100*%
%ADD22R,1.500X1.400*%
%ADD23R,1.050X0.600*%
%ADD24R,2.250X2.100*%
%ADD25R,1.250X1.950*%
%ADD26O,0.600X2.050*%
%ADD27O,2.050X0.600*%
%ADD28R,2.150X3.200*%
%ADD29R,2.150X0.900*%
%ADD30R,0.559X0.711*%
%ADD31C,0.200*%
%ADD32C,0.400*%
%ADD33C,5.000*%
%ADD34C,1.500*%
%ADD35R,1.500X1.500*%
%ADD36R,1.500X1.500*%
%ADD37C,0.600*%
%ADD38C,1.000*%
%ADD39R,0.450X0.900*%
%ADD40R,3.300X1.400*%
%ADD41R,0.600X1.000*%
%ADD42C,0.250*%
%ADD43C,0.100*%
%ADD44C,0.600*%
%ADD45C,0.254*%
%ADD46C,0.203*%
%ADD47R,3.853X2.253*%
%ADD48R,1.603X0.603*%
%ADD49R,2.103X2.503*%
%ADD50R,2.103X2.603*%
%ADD51R,1.103X1.203*%
%ADD52R,1.103X1.003*%
%ADD53R,1.003X1.103*%
%ADD54R,0.903X1.103*%
%ADD55R,3.203X1.203*%
%ADD56O,1.753X0.453*%
%ADD57R,1.103X0.903*%
%ADD58R,3.503X1.303*%
%ADD59R,1.703X1.603*%
%ADD60R,1.253X0.803*%
%ADD61R,2.453X2.303*%
%ADD62R,1.453X2.153*%
%ADD63O,0.803X2.253*%
%ADD64O,2.253X0.803*%
%ADD65R,2.353X3.403*%
%ADD66R,2.353X1.103*%
%ADD67R,0.762X0.914*%
%ADD68C,1.703*%
%ADD69R,1.703X1.703*%
%ADD70R,1.703X1.703*%
%ADD71R,0.653X1.103*%
%ADD72R,3.503X1.603*%
%ADD73R,0.803X1.203*%
G54D33*
X3000Y3000D02*
D03*
X47000D02*
D03*
X3000Y42000D02*
D03*
X47000D02*
D03*
G54D52*
X11000Y6300D02*
D03*
Y7700D02*
D03*
X17800Y16900D02*
D03*
Y18300D02*
D03*
X28200Y10700D02*
D03*
Y12100D02*
D03*
G54D53*
X21700Y9800D02*
D03*
X20300D02*
D03*
X19400Y20200D02*
D03*
X18000D02*
D03*
X22000D02*
D03*
X20600D02*
D03*
X25900Y20200D02*
D03*
X27300D02*
D03*
G54D54*
X36450Y23800D02*
D03*
X37950D02*
D03*
X36450Y18800D02*
D03*
X37950D02*
D03*
X36450Y13800D02*
D03*
X37950D02*
D03*
X36450Y8800D02*
D03*
X37950D02*
D03*
X25850Y21600D02*
D03*
X27350D02*
D03*
G54D57*
X13000Y6250D02*
D03*
Y7750D02*
D03*
X17800Y15900D02*
D03*
Y14500D02*
D03*
X27400Y32750D02*
D03*
Y31250D02*
D03*
G54D62*
X5000Y19225D02*
D03*
Y16775D02*
D03*
G54D68*
X35180Y3000D02*
D03*
X37720D02*
D03*
X40260D02*
D03*
X11860Y10400D02*
D03*
X14400Y12940D02*
D03*
X11860D02*
D03*
X14400Y15480D02*
D03*
X11860D02*
D03*
X48000Y7460D02*
D03*
Y23660D02*
D03*
Y21120D02*
D03*
G54D69*
X42800Y3000D02*
D03*
G54D70*
X14400Y10400D02*
D03*
X48000Y10000D02*
D03*
Y26200D02*
D03*
G54D71*
X37800Y5300D02*
D03*
Y7500D02*
D03*
X35200Y5300D02*
D03*
Y7500D02*
D03*
X40200Y5300D02*
D03*
Y7500D02*
D03*
X42800Y5300D02*
D03*
Y7500D02*
D03*
G54D72*
X23000Y13100D02*
D03*
Y16900D02*
D03*
G54D73*
X26400Y37000D02*
D03*
X25450Y34600D02*
D03*
X27350D02*
D03*
M02*
